G04*
G04 #@! TF.GenerationSoftware,Altium Limited,Altium Designer,23.0.1 (38)*
G04*
G04 Layer_Color=65535*
%FSLAX25Y25*%
%MOIN*%
G70*
G04*
G04 #@! TF.SameCoordinates,062A7089-F7A0-45CD-874A-4056981EB9F5*
G04*
G04*
G04 #@! TF.FilePolarity,Positive*
G04*
G01*
G75*
%ADD10C,0.00787*%
%ADD11C,0.00984*%
%ADD12C,0.02362*%
%ADD13C,0.00500*%
%ADD14C,0.01000*%
D10*
X177065Y105853D02*
G03*
X177065Y105853I-15748J0D01*
G01*
X38876Y139232D02*
G03*
X38876Y144232I0J2500D01*
G01*
X131199Y149606D02*
G03*
X131199Y149606I-394J0D01*
G01*
Y118110D02*
G03*
X131199Y118110I-394J0D01*
G01*
Y86614D02*
G03*
X131199Y86614I-394J0D01*
G01*
X177065Y145000D02*
G03*
X177065Y145000I-15748J0D01*
G01*
Y66706D02*
G03*
X177065Y66706I-15748J0D01*
G01*
Y27559D02*
G03*
X177065Y27559I-15748J0D01*
G01*
X178817Y105853D02*
X183817D01*
X181317Y103353D02*
Y108353D01*
X36337Y68780D02*
Y87283D01*
X78463Y68780D02*
Y87283D01*
X36337D02*
X78463D01*
X36337Y68780D02*
X78463D01*
X36337Y70748D02*
X78463D01*
X94136Y47244D02*
X98136D01*
X122136D02*
X126136D01*
X98136Y51244D02*
X122136D01*
X98136Y43244D02*
Y51244D01*
Y43244D02*
X122136D01*
Y51244D01*
X94136Y62992D02*
X98136D01*
X122136D02*
X126136D01*
X98136Y66992D02*
X122136D01*
X98136Y58992D02*
Y66992D01*
Y58992D02*
X122136D01*
Y66992D01*
X79034Y131299D02*
Y152165D01*
X38876Y144232D02*
Y152165D01*
Y131299D02*
Y139232D01*
Y152165D02*
X79034D01*
X38876Y131299D02*
X79034D01*
X122136Y15748D02*
X126136D01*
X94136D02*
X98136D01*
Y11748D02*
X122136D01*
Y19748D01*
X98136D02*
X122136D01*
X98136Y11748D02*
Y19748D01*
X94136Y31496D02*
X98136D01*
X122136D02*
X126136D01*
X98136Y35496D02*
X122136D01*
X98136Y27496D02*
Y35496D01*
Y27496D02*
X122136D01*
Y35496D01*
X24585Y109173D02*
Y129173D01*
X14585D02*
X24585D01*
X14585Y109173D02*
Y129173D01*
Y109173D02*
X24585D01*
X14585Y74646D02*
Y94646D01*
Y74646D02*
X24585D01*
Y94646D01*
X14585D02*
X24585D01*
X14585Y40118D02*
Y60118D01*
Y40118D02*
X24585D01*
Y60118D01*
X14585D02*
X24585D01*
X181317Y142500D02*
Y147500D01*
X178817Y145000D02*
X183817D01*
X181317Y64206D02*
Y69206D01*
X178817Y66706D02*
X183817D01*
X181317Y25059D02*
Y30059D01*
X178817Y27559D02*
X183817D01*
X37124Y96398D02*
Y115689D01*
X77676Y96398D02*
Y115689D01*
X37124Y96398D02*
X77676D01*
X37124Y115689D02*
X77676D01*
X37124Y113720D02*
X77676D01*
X192458Y57087D02*
X220372D01*
X188876D02*
X190293D01*
X220372D02*
Y116142D01*
X188876Y57087D02*
Y116142D01*
X192458Y57087D02*
X193344Y54724D01*
X189407D02*
X190293Y57087D01*
X189407Y54724D02*
X193344D01*
X211022Y118504D02*
X214959D01*
X211022D02*
X211907Y116142D01*
X214073D02*
X214959Y118504D01*
X214073Y116142D02*
X220372D01*
X188876D02*
X211907D01*
X62105Y24016D02*
Y54724D01*
X60884Y24016D02*
Y54724D01*
X72695Y24016D02*
Y54724D01*
X60884D02*
X72695D01*
X60884Y24016D02*
X72695D01*
X42420D02*
Y54724D01*
X41199Y24016D02*
Y54724D01*
X53010Y24016D02*
Y54724D01*
X41199D02*
X53010D01*
X41199Y24016D02*
X53010D01*
D11*
X67892Y89842D02*
G03*
X67892Y89842I-492J0D01*
G01*
X39329Y126732D02*
G03*
X39329Y126732I-492J0D01*
G01*
X35058Y105000D02*
G03*
X35058Y105000I-492J0D01*
G01*
X67321Y21457D02*
G03*
X67321Y21457I-492J0D01*
G01*
X47636D02*
G03*
X47636Y21457I-492J0D01*
G01*
D12*
X43995Y135236D02*
G03*
X43995Y135236I-1181J0D01*
G01*
D13*
X91376Y159094D02*
X128896D01*
Y140079D02*
Y159094D01*
X91376Y140079D02*
Y159094D01*
Y140079D02*
X128896D01*
X91376Y127598D02*
X128896D01*
Y108583D02*
Y127598D01*
X91376Y108583D02*
Y127598D01*
Y108583D02*
X128896D01*
X91376Y96102D02*
X128896D01*
Y77087D02*
Y96102D01*
X91376Y77087D02*
Y96102D01*
Y77087D02*
X128896D01*
D14*
X134402Y92499D02*
Y88500D01*
X140400D01*
Y92499D01*
X137401Y88500D02*
Y90499D01*
X140400Y94498D02*
X134402D01*
X140400Y98497D01*
X134402D01*
Y100496D02*
Y104495D01*
Y102496D01*
X140400D01*
X135402Y110493D02*
X134402Y109493D01*
Y107494D01*
X135402Y106494D01*
X139400D01*
X140400Y107494D01*
Y109493D01*
X139400Y110493D01*
X140400Y122489D02*
Y118490D01*
X136401Y122489D01*
X135402D01*
X134402Y121489D01*
Y119490D01*
X135402Y118490D01*
Y124488D02*
X134402Y125488D01*
Y127487D01*
X135402Y128487D01*
X139400D01*
X140400Y127487D01*
Y125488D01*
X139400Y124488D01*
X135402D01*
Y130486D02*
X134402Y131486D01*
Y133485D01*
X135402Y134485D01*
X139400D01*
X140400Y133485D01*
Y131486D01*
X139400Y130486D01*
X135402D01*
Y136485D02*
X134402Y137484D01*
Y139483D01*
X135402Y140483D01*
X136401D01*
X137401Y139483D01*
Y138484D01*
Y139483D01*
X138401Y140483D01*
X139400D01*
X140400Y139483D01*
Y137484D01*
X139400Y136485D01*
X134402Y146481D02*
Y142482D01*
X137401D01*
X136401Y144482D01*
Y145482D01*
X137401Y146481D01*
X139400D01*
X140400Y145482D01*
Y143482D01*
X139400Y142482D01*
X134402Y152479D02*
X135402Y150480D01*
X137401Y148481D01*
X139400D01*
X140400Y149480D01*
Y151480D01*
X139400Y152479D01*
X138401D01*
X137401Y151480D01*
Y148481D01*
X140400Y154479D02*
X136401D01*
X134402Y156478D01*
X136401Y158477D01*
X140400D01*
X137401D01*
Y154479D01*
X205900Y31500D02*
X199902D01*
Y34499D01*
X200902Y35499D01*
X202901D01*
X203901Y34499D01*
Y31500D01*
X200902Y41497D02*
X199902Y40497D01*
Y38498D01*
X200902Y37498D01*
X204900D01*
X205900Y38498D01*
Y40497D01*
X204900Y41497D01*
X199902Y43496D02*
X205900D01*
Y46495D01*
X204900Y47495D01*
X203901D01*
X202901Y46495D01*
Y43496D01*
Y46495D01*
X201901Y47495D01*
X200902D01*
X199902Y46495D01*
Y43496D01*
X197400Y12500D02*
X191402D01*
Y15499D01*
X192402Y16499D01*
X194401D01*
X195401Y15499D01*
Y12500D01*
Y19498D02*
Y21497D01*
X194401Y22497D01*
X192402D01*
X191402Y21497D01*
Y19498D01*
X192402Y18498D01*
X194401D01*
X195401Y19498D01*
X191402Y24496D02*
X194401D01*
X195401Y25496D01*
X194401Y26496D01*
X195401Y27495D01*
X194401Y28495D01*
X191402D01*
X195401Y33493D02*
Y31494D01*
X194401Y30494D01*
X192402D01*
X191402Y31494D01*
Y33493D01*
X192402Y34493D01*
X193401D01*
Y30494D01*
X191402Y36492D02*
X195401D01*
X193401D01*
X192402Y37492D01*
X191402Y38492D01*
Y39491D01*
X84401Y142003D02*
X88400D01*
X90399Y144002D01*
X88400Y146001D01*
X84401D01*
X90399Y148001D02*
X84401D01*
Y151000D01*
X85401Y151999D01*
X87400D01*
X88400Y151000D01*
Y148001D01*
Y150000D02*
X90399Y151999D01*
X85401Y153999D02*
X84401Y154998D01*
Y156998D01*
X85401Y157997D01*
X86400D01*
X87400Y156998D01*
Y155998D01*
Y156998D01*
X88400Y157997D01*
X89399D01*
X90399Y156998D01*
Y154998D01*
X89399Y153999D01*
X84401Y109503D02*
X88400D01*
X90399Y111502D01*
X88400Y113501D01*
X84401D01*
X90399Y115501D02*
X84401D01*
Y118500D01*
X85401Y119499D01*
X87400D01*
X88400Y118500D01*
Y115501D01*
Y117500D02*
X90399Y119499D01*
Y125497D02*
Y121499D01*
X86400Y125497D01*
X85401D01*
X84401Y124498D01*
Y122498D01*
X85401Y121499D01*
X104902Y59501D02*
Y65499D01*
X107901D01*
X108900Y64499D01*
Y62500D01*
X107901Y61500D01*
X104902D01*
X106901D02*
X108900Y59501D01*
X113899D02*
Y65499D01*
X110900Y62500D01*
X114898D01*
X104902Y44501D02*
Y50499D01*
X107901D01*
X108900Y49499D01*
Y47500D01*
X107901Y46500D01*
X104902D01*
X106901D02*
X108900Y44501D01*
X110900Y49499D02*
X111899Y50499D01*
X113899D01*
X114898Y49499D01*
Y48500D01*
X113899Y47500D01*
X112899D01*
X113899D01*
X114898Y46500D01*
Y45501D01*
X113899Y44501D01*
X111899D01*
X110900Y45501D01*
X104902Y29501D02*
Y35499D01*
X107901D01*
X108900Y34499D01*
Y32500D01*
X107901Y31500D01*
X104902D01*
X106901D02*
X108900Y29501D01*
X114898D02*
X110900D01*
X114898Y33500D01*
Y34499D01*
X113899Y35499D01*
X111899D01*
X110900Y34499D01*
X4775Y82616D02*
X10773D01*
Y85615D01*
X9773Y86614D01*
X8774D01*
X7774D01*
X6774Y85615D01*
Y82616D01*
X10773Y88613D02*
Y90613D01*
Y89613D01*
X4775D01*
X5775Y88613D01*
X4775Y43184D02*
X10773D01*
Y47182D01*
X4775Y53180D02*
Y49182D01*
X10773D01*
Y53180D01*
X7774Y49182D02*
Y51181D01*
X4775Y55180D02*
X10773D01*
Y58179D01*
X9773Y59179D01*
X5775D01*
X4775Y58179D01*
Y55180D01*
X84401Y80502D02*
X88400D01*
X90399Y82502D01*
X88400Y84501D01*
X84401D01*
X90399Y86500D02*
X84401D01*
Y89499D01*
X85401Y90499D01*
X87400D01*
X88400Y89499D01*
Y86500D01*
Y88500D02*
X90399Y90499D01*
Y92498D02*
Y94498D01*
Y93498D01*
X84401D01*
X85401Y92498D01*
X29401Y70002D02*
X34399D01*
X35399Y71001D01*
Y73001D01*
X34399Y74000D01*
X29401D01*
X30401Y76000D02*
X29401Y76999D01*
Y78999D01*
X30401Y79998D01*
X31400D01*
X32400Y78999D01*
Y77999D01*
Y78999D01*
X33400Y79998D01*
X34399D01*
X35399Y78999D01*
Y76999D01*
X34399Y76000D01*
X29401Y92502D02*
X34399D01*
X35399Y93501D01*
Y95501D01*
X34399Y96500D01*
X29401D01*
X35399Y102498D02*
Y98500D01*
X31400Y102498D01*
X30401D01*
X29401Y101499D01*
Y99499D01*
X30401Y98500D01*
X29401Y141001D02*
X34399D01*
X35399Y142001D01*
Y144000D01*
X34399Y145000D01*
X29401D01*
X35399Y146999D02*
Y148999D01*
Y147999D01*
X29401D01*
X30401Y146999D01*
X105901Y12001D02*
Y17999D01*
X108900D01*
X109900Y16999D01*
Y15000D01*
X108900Y14000D01*
X105901D01*
X107901D02*
X109900Y12001D01*
X111899D02*
X113899D01*
X112899D01*
Y17999D01*
X111899Y16999D01*
X47643Y13870D02*
X43645D01*
X42645Y12871D01*
Y10871D01*
X43645Y9872D01*
X47643D01*
X48643Y10871D01*
Y12871D01*
X46644Y11871D02*
X48643Y13870D01*
Y12871D02*
X47643Y13870D01*
X48643Y19869D02*
Y15870D01*
X44644Y19869D01*
X43645D01*
X42645Y18869D01*
Y16869D01*
X43645Y15870D01*
X66329Y13870D02*
X62330D01*
X61330Y12870D01*
Y10871D01*
X62330Y9871D01*
X66329D01*
X67328Y10871D01*
Y12870D01*
X65329Y11871D02*
X67328Y13870D01*
Y12870D02*
X66329Y13870D01*
X67328Y15869D02*
Y17869D01*
Y16869D01*
X61330D01*
X62330Y15869D01*
X198627Y99613D02*
X196627D01*
X195628Y98614D01*
Y94615D01*
X196627Y93615D01*
X198627D01*
X199626Y94615D01*
Y98614D01*
X198627Y99613D01*
X201626D02*
Y94615D01*
X202625Y93615D01*
X204625D01*
X205624Y94615D01*
Y99613D01*
X207624D02*
X211623D01*
X209623D01*
Y93615D01*
X213622D02*
X215621D01*
X214621D01*
Y99613D01*
X213622Y98614D01*
X4401Y113502D02*
Y115501D01*
Y114502D01*
X10399D01*
Y113502D01*
Y115501D01*
Y118500D02*
X4401D01*
X10399Y122499D01*
X4401D01*
X10399Y124498D02*
Y126498D01*
Y125498D01*
X4401D01*
X5401Y124498D01*
X160418Y155543D02*
X159418Y156542D01*
X157419D01*
X156419Y155543D01*
Y151544D01*
X157419Y150544D01*
X159418D01*
X160418Y151544D01*
X165416Y150544D02*
Y156542D01*
X162417Y153543D01*
X166416D01*
X160418Y116173D02*
X159418Y117172D01*
X157419D01*
X156419Y116173D01*
Y112174D01*
X157419Y111174D01*
X159418D01*
X160418Y112174D01*
X162417Y116173D02*
X163417Y117172D01*
X165416D01*
X166416Y116173D01*
Y115173D01*
X165416Y114173D01*
X164416D01*
X165416D01*
X166416Y113174D01*
Y112174D01*
X165416Y111174D01*
X163417D01*
X162417Y112174D01*
X160418Y78771D02*
X159418Y79771D01*
X157419D01*
X156419Y78771D01*
Y74772D01*
X157419Y73773D01*
X159418D01*
X160418Y74772D01*
X166416Y73773D02*
X162417D01*
X166416Y77771D01*
Y78771D01*
X165416Y79771D01*
X163417D01*
X162417Y78771D01*
X161417Y39401D02*
X160418Y40401D01*
X158418D01*
X157419Y39401D01*
Y35402D01*
X158418Y34402D01*
X160418D01*
X161417Y35402D01*
X163417Y34402D02*
X165416D01*
X164416D01*
Y40401D01*
X163417Y39401D01*
M02*
