G04*
G04 #@! TF.GenerationSoftware,Altium Limited,Altium Designer,23.0.1 (38)*
G04*
G04 Layer_Color=255*
%FSLAX25Y25*%
%MOIN*%
G70*
G04*
G04 #@! TF.SameCoordinates,062A7089-F7A0-45CD-874A-4056981EB9F5*
G04*
G04*
G04 #@! TF.FilePolarity,Positive*
G04*
G01*
G75*
%ADD30C,0.11811*%
%ADD31R,0.05512X0.05512*%
%ADD32C,0.05512*%
%ADD33C,0.06299*%
%ADD34R,0.06299X0.06299*%
%ADD35C,0.05906*%
%ADD36R,0.05906X0.05906*%
%ADD37C,0.04795*%
%ADD38R,0.04795X0.04795*%
%ADD39R,0.06299X0.06299*%
%ADD40C,0.06299*%
%ADD41C,0.08858*%
%ADD42R,0.08858X0.08858*%
%ADD43R,0.06299X0.06299*%
D30*
X210630Y155512D02*
D03*
Y13780D02*
D03*
X13780D02*
D03*
Y155512D02*
D03*
D31*
X168207Y105853D02*
D03*
Y145000D02*
D03*
Y66706D02*
D03*
Y27559D02*
D03*
D32*
X154428Y105853D02*
D03*
X90136Y47244D02*
D03*
X130136D02*
D03*
X90136Y62992D02*
D03*
X130136D02*
D03*
Y15748D02*
D03*
X90136D02*
D03*
Y31496D02*
D03*
X130136D02*
D03*
X154428Y145000D02*
D03*
Y66706D02*
D03*
Y27559D02*
D03*
D33*
X47400Y80000D02*
D03*
X57400D02*
D03*
D34*
X67400D02*
D03*
D35*
X73955Y156732D02*
D03*
X63955D02*
D03*
X53955D02*
D03*
X43955D02*
D03*
X73955Y126732D02*
D03*
X63955D02*
D03*
X53955D02*
D03*
X19585Y114173D02*
D03*
Y89646D02*
D03*
Y55118D02*
D03*
D36*
X43955Y126732D02*
D03*
X19585Y124173D02*
D03*
Y79646D02*
D03*
Y45118D02*
D03*
D37*
X100136Y149606D02*
D03*
X110136D02*
D03*
X100136Y118110D02*
D03*
X110136D02*
D03*
X100136Y86614D02*
D03*
X110136D02*
D03*
D38*
X120136Y149606D02*
D03*
Y118110D02*
D03*
Y86614D02*
D03*
D39*
X47400Y105000D02*
D03*
D40*
X57400D02*
D03*
X67400D02*
D03*
X66829Y48386D02*
D03*
Y39370D02*
D03*
X47144Y48386D02*
D03*
Y39370D02*
D03*
D41*
X204624Y86614D02*
D03*
Y106299D02*
D03*
D42*
Y66929D02*
D03*
D43*
X66829Y30354D02*
D03*
X47144D02*
D03*
M02*
