M48
;Layer_Color=9474304
;FILE_FORMAT=2:5
INCH,TZ
;TYPE=PLATED
T1F00S00C0.02795
T2F00S00C0.03346
T3F00S00C0.03543
T4F00S00C0.03937
T5F00S00C0.05906
T6F00S00C0.11811
%
T01
X100136Y86614
X110136
X120136
Y118110
X110136
X100136
Y149606
X110136
X120136
T02
X90136Y15748
Y31496
Y47244
Y62992
X130136
Y47244
Y31496
Y15748
T03
X19585Y45118
Y55118
Y79646
Y89646
X154428Y66706
X168207
Y27559
X154428
Y105853
X168207
Y145000
X154428
X73955Y156732
X63955
Y126732
X73955
X53955
X43955
X19585Y124173
Y114173
X43955Y156732
X53955
T04
X47144Y30354
Y39370
Y48386
X47400Y80000
X57400
X67400
X66829Y48386
Y39370
Y30354
X67400Y105000
X57400
X47400
T05
X204624Y66929
Y86614
Y106299
T06
X13780Y13780
X210630
Y155512
X13780
M30
