G04*
G04 #@! TF.GenerationSoftware,Altium Limited,Altium Designer,23.0.1 (38)*
G04*
G04 Layer_Color=16711935*
%FSLAX25Y25*%
%MOIN*%
G70*
G04*
G04 #@! TF.SameCoordinates,062A7089-F7A0-45CD-874A-4056981EB9F5*
G04*
G04*
G04 #@! TF.FilePolarity,Positive*
G04*
G01*
G75*
%ADD10C,0.00787*%
%ADD13C,0.00500*%
%ADD47C,0.00394*%
D10*
X125530Y149606D02*
G03*
X125530Y149606I-394J0D01*
G01*
Y118110D02*
G03*
X125530Y118110I-394J0D01*
G01*
Y86614D02*
G03*
X125530Y86614I-394J0D01*
G01*
D13*
X128896Y140079D02*
Y159094D01*
X91376D02*
X128896D01*
X91376Y140079D02*
Y159094D01*
Y140079D02*
X128896D01*
Y108583D02*
Y127598D01*
X91376D02*
X128896D01*
X91376Y108583D02*
Y127598D01*
Y108583D02*
X128896D01*
Y77087D02*
Y96102D01*
X91376D02*
X128896D01*
X91376Y77087D02*
Y96102D01*
Y77087D02*
X128896D01*
D47*
X177065Y105853D02*
G03*
X177065Y105853I-15748J0D01*
G01*
X44487Y132283D02*
G03*
X44487Y132283I-1969J0D01*
G01*
X177065Y145000D02*
G03*
X177065Y145000I-15748J0D01*
G01*
Y66706D02*
G03*
X177065Y66706I-15748J0D01*
G01*
Y27559D02*
G03*
X177065Y27559I-15748J0D01*
G01*
X36337Y73898D02*
X78463D01*
X36337Y68780D02*
Y87283D01*
X78463Y68780D02*
Y87283D01*
X36337D02*
X78463D01*
X36337Y68780D02*
X78463D01*
X78936Y128740D02*
Y154724D01*
X38975Y128740D02*
Y154724D01*
X78936D01*
X38975Y128740D02*
X78936D01*
X37124Y96496D02*
X77676D01*
X37124Y115591D02*
X77676D01*
X37124Y96496D02*
Y115591D01*
X77676Y96496D02*
Y115591D01*
X37124Y113425D02*
X77676D01*
X201869Y65748D02*
Y68110D01*
Y65748D02*
X205806D01*
X201869Y68110D02*
X205806D01*
X205839Y65755D02*
X220372Y64764D01*
X205839Y68104D02*
X220372Y69095D01*
X205839Y87789D02*
X220372Y88780D01*
X205839Y85440D02*
X220372Y84449D01*
X201869Y87795D02*
X205806D01*
X201869Y85433D02*
X205806D01*
X201869D02*
Y87795D01*
X189407Y54724D02*
X193344D01*
X189407D02*
X190293Y57087D01*
X192458D02*
X193344Y54724D01*
X188876Y57087D02*
Y116142D01*
X220372Y57087D02*
Y116142D01*
X188876Y57087D02*
X190293D01*
X192458D02*
X220372D01*
X188876Y116142D02*
X211907D01*
X214073D02*
X220372D01*
X214073D02*
X214959Y118504D01*
X211022D02*
X211907Y116142D01*
X211022Y118504D02*
X214959D01*
X205839Y107474D02*
X220372Y108465D01*
X205839Y105125D02*
X220372Y104134D01*
X201869Y107480D02*
X205806D01*
X201869Y105118D02*
X205806D01*
X201869D02*
Y107480D01*
X65806Y24016D02*
Y54724D01*
X60884D02*
X72695D01*
X60884Y24016D02*
X72695D01*
X60884D02*
Y54724D01*
X72695Y24016D02*
Y54724D01*
X46120Y24016D02*
Y54724D01*
X41199D02*
X53010D01*
X41199Y24016D02*
X53010D01*
X41199D02*
Y54724D01*
X53010Y24016D02*
Y54724D01*
M02*
