G04*
G04 #@! TF.GenerationSoftware,Altium Limited,Altium Designer,23.0.1 (38)*
G04*
G04 Layer_Color=32768*
%FSLAX25Y25*%
%MOIN*%
G70*
G04*
G04 #@! TF.SameCoordinates,062A7089-F7A0-45CD-874A-4056981EB9F5*
G04*
G04*
G04 #@! TF.FilePolarity,Positive*
G04*
G01*
G75*
%ADD47C,0.00394*%
%ADD48C,0.00197*%
D47*
X161317Y103885D02*
Y107822D01*
X159349Y105853D02*
X163286D01*
X57400Y78031D02*
Y81968D01*
X55432Y80000D02*
X59369D01*
X56987Y141732D02*
X60924D01*
X58955Y139764D02*
Y143701D01*
X159349Y145000D02*
X163286D01*
X161317Y143032D02*
Y146969D01*
X159349Y66706D02*
X163286D01*
X161317Y64738D02*
Y68675D01*
X159349Y27559D02*
X163286D01*
X161317Y25591D02*
Y29528D01*
X57400Y103032D02*
Y106969D01*
X55432Y105000D02*
X59369D01*
X66829Y37401D02*
Y41339D01*
X64861Y39370D02*
X68798D01*
X47144Y37401D02*
Y41339D01*
X45176Y39370D02*
X49113D01*
D48*
X177459Y105853D02*
G03*
X177459Y105853I-16142J0D01*
G01*
Y145000D02*
G03*
X177459Y145000I-16142J0D01*
G01*
Y66706D02*
G03*
X177459Y66706I-16142J0D01*
G01*
Y27559D02*
G03*
X177459Y27559I-16142J0D01*
G01*
X35943Y68386D02*
X78857D01*
X35943Y87677D02*
X78857D01*
Y68386D02*
Y87677D01*
X35943Y68386D02*
Y87677D01*
X80018Y122638D02*
Y160827D01*
X37892Y122638D02*
Y160827D01*
X80018D01*
X37892Y122638D02*
X80018D01*
X129880Y139094D02*
Y160079D01*
X90392D02*
X129880D01*
X90392Y139094D02*
Y160079D01*
Y139094D02*
X129880D01*
Y107598D02*
Y128583D01*
X90392D02*
X129880D01*
X90392Y107598D02*
Y128583D01*
Y107598D02*
X129880D01*
Y76102D02*
Y97087D01*
X90392D02*
X129880D01*
X90392Y76102D02*
Y97087D01*
Y76102D02*
X129880D01*
X36140Y95512D02*
X78660D01*
X36140Y116575D02*
X78660D01*
X36140Y95512D02*
Y116575D01*
X78660Y95512D02*
Y116575D01*
X202656Y86614D02*
X206593D01*
X204624Y84646D02*
Y88583D01*
X188089Y53937D02*
X221160D01*
Y119291D01*
X188089D02*
X221160D01*
X188089Y53937D02*
Y119291D01*
X59900Y55709D02*
X73680D01*
X59900Y23031D02*
X73680D01*
X59900D02*
Y55709D01*
X73680Y23031D02*
Y55709D01*
X40215D02*
X53994D01*
X40215Y23031D02*
X53994D01*
X40215D02*
Y55709D01*
X53994Y23031D02*
Y55709D01*
M02*
