G04*
G04 #@! TF.GenerationSoftware,Altium Limited,Altium Designer,23.0.1 (38)*
G04*
G04 Layer_Color=65535*
%FSLAX25Y25*%
%MOIN*%
G70*
G04*
G04 #@! TF.SameCoordinates,7B218C2A-F859-486B-BE56-2060E057D8DB*
G04*
G04*
G04 #@! TF.FilePolarity,Positive*
G04*
G01*
G75*
%ADD10C,0.00787*%
%ADD11C,0.02362*%
%ADD12C,0.00984*%
%ADD13C,0.00500*%
%ADD14C,0.01000*%
%ADD15C,0.00600*%
D10*
X191181Y19875D02*
X190394D01*
X191181D01*
X196815Y50871D02*
X196028D01*
X196815D01*
Y82443D02*
X196028D01*
X196815D01*
Y114014D02*
X196028D01*
X196815D01*
Y145586D02*
X196028D01*
X196815D01*
Y177157D02*
X196028D01*
X196815D01*
Y208729D02*
X196028D01*
X196815D01*
X195063Y241800D02*
X194276D01*
X195063D01*
X38110Y49485D02*
X39067Y49675D01*
X39878Y50217D01*
X40420Y51028D01*
X40610Y51985D01*
X40420Y52942D01*
X39878Y53753D01*
X39067Y54295D01*
X38110Y54485D01*
X78921Y201800D02*
X79878Y201990D01*
X80689Y202532D01*
X81231Y203343D01*
X81421Y204300D01*
X81231Y205257D01*
X80689Y206068D01*
X79878Y206610D01*
X78921Y206800D01*
X71047Y108863D02*
X72004Y109053D01*
X72815Y109595D01*
X73357Y110406D01*
X73547Y111363D01*
X73357Y112320D01*
X72815Y113131D01*
X72004Y113673D01*
X71047Y113863D01*
X66118Y152501D02*
Y162501D01*
X26118Y152501D02*
X66118D01*
X26118Y162501D02*
X66118D01*
X26118Y152501D02*
Y162501D01*
X145900Y231900D02*
Y241900D01*
X115900Y231900D02*
X145900D01*
X115900D02*
Y241900D01*
X145900D01*
X133500Y213300D02*
Y214200D01*
Y192400D02*
Y193300D01*
Y213300D02*
X136500D01*
Y193300D02*
Y213300D01*
X130500Y193300D02*
X136500D01*
X130500D02*
Y213300D01*
X133500D01*
X83598Y248052D02*
X105252D01*
Y232304D02*
Y236339D01*
Y244017D02*
Y248052D01*
X83598Y232304D02*
X105252D01*
X83598D02*
Y236339D01*
Y244017D02*
Y248052D01*
X44228D02*
X65882D01*
Y232304D02*
Y236339D01*
Y244017D02*
Y248052D01*
X44228Y232304D02*
X65882D01*
X44228D02*
Y236339D01*
Y244017D02*
Y248052D01*
X39600Y187800D02*
X40500D01*
X60500D02*
X61400D01*
X40500D02*
Y190800D01*
X60500D01*
Y184800D02*
Y190800D01*
X40500Y184800D02*
X60500D01*
X40500D02*
Y187800D01*
X39600Y202550D02*
X40500D01*
X60500D02*
X61400D01*
X40500D02*
Y205550D01*
X60500D01*
Y199550D02*
Y205550D01*
X40500Y199550D02*
X60500D01*
X40500D02*
Y202550D01*
X39600Y217300D02*
X40500D01*
X60500D02*
X61400D01*
X40500D02*
Y220300D01*
X60500D01*
Y214300D02*
Y220300D01*
X40500Y214300D02*
X60500D01*
X40500D02*
Y217300D01*
X78268Y41552D02*
Y62418D01*
X38110Y54485D02*
Y62418D01*
Y41552D02*
Y49485D01*
Y62418D02*
X78268D01*
X38110Y41552D02*
X78268D01*
X119079Y193867D02*
Y214733D01*
X78921Y206800D02*
Y214733D01*
Y193867D02*
Y201800D01*
Y214733D02*
X119079D01*
X78921Y193867D02*
X119079D01*
X7600Y187900D02*
X17600D01*
X7600D02*
Y217900D01*
X17600D01*
Y187900D02*
Y217900D01*
X6000Y108800D02*
X16000D01*
X6000D02*
Y138800D01*
X16000D01*
Y108800D02*
Y138800D01*
X10000Y75800D02*
X20000D01*
Y35800D02*
Y75800D01*
X10000Y35800D02*
Y75800D01*
Y35800D02*
X20000D01*
X142189Y60985D02*
Y61885D01*
Y40085D02*
Y40985D01*
Y60985D02*
X145189D01*
Y40985D02*
Y60985D01*
X139189Y40985D02*
X145189D01*
X139189D02*
Y60985D01*
X142189D01*
X129564Y40085D02*
Y40985D01*
Y60985D02*
Y61885D01*
X126564Y40985D02*
X129564D01*
X126564D02*
Y60985D01*
X132564D01*
Y40985D02*
Y60985D01*
X129564Y40985D02*
X132564D01*
X116939Y40085D02*
Y40985D01*
Y60985D02*
Y61885D01*
X113939Y40985D02*
X116939D01*
X113939D02*
Y60985D01*
X119939D01*
Y40985D02*
Y60985D01*
X116939Y40985D02*
X119939D01*
X104314Y60985D02*
Y61885D01*
Y40085D02*
Y40985D01*
Y60985D02*
X107314D01*
Y40985D02*
Y60985D01*
X101314Y40985D02*
X107314D01*
X101314D02*
Y60985D01*
X104314D01*
X91689Y40085D02*
Y40985D01*
Y60985D02*
Y61885D01*
X88689Y40985D02*
X91689D01*
X88689D02*
Y60985D01*
X94689D01*
Y40985D02*
Y60985D01*
X91689Y40985D02*
X94689D01*
X78205Y172674D02*
X99858D01*
Y156926D02*
Y160961D01*
Y168639D02*
Y172674D01*
X78205Y156926D02*
X99858D01*
X78205D02*
Y160961D01*
Y168639D02*
Y172674D01*
X78362Y153674D02*
X100016D01*
Y137926D02*
Y141961D01*
Y149639D02*
Y153674D01*
X78362Y137926D02*
X100016D01*
X78362D02*
Y141961D01*
Y149639D02*
Y153674D01*
X137626Y100969D02*
Y101869D01*
Y121869D02*
Y122769D01*
X134626Y101869D02*
X137626D01*
X134626D02*
Y121869D01*
X140626D01*
Y101869D02*
Y121869D01*
X137626Y101869D02*
X140626D01*
X127126Y121869D02*
Y122769D01*
Y100969D02*
Y101869D01*
Y121869D02*
X130126D01*
Y101869D02*
Y121869D01*
X124126Y101869D02*
X130126D01*
X124126D02*
Y121869D01*
X127126D01*
X147626Y100969D02*
Y101869D01*
Y121869D02*
Y122769D01*
X144626Y101869D02*
X147626D01*
X144626D02*
Y121869D01*
X150626D01*
Y101869D02*
Y121869D01*
X147626Y101869D02*
X150626D01*
X111205Y100930D02*
Y121796D01*
X71047Y113863D02*
Y121796D01*
Y100930D02*
Y108863D01*
Y121796D02*
X111205D01*
X71047Y100930D02*
X111205D01*
X57000Y100200D02*
Y101100D01*
Y121100D02*
Y122000D01*
X54000Y101100D02*
X57000D01*
X54000D02*
Y121100D01*
X60000D01*
Y101100D02*
Y121100D01*
X57000Y101100D02*
X60000D01*
X45126Y120863D02*
Y121763D01*
Y99963D02*
Y100863D01*
Y120863D02*
X48126D01*
Y100863D02*
Y120863D01*
X42126Y100863D02*
X48126D01*
X42126D02*
Y120863D01*
X45126D01*
X33626D02*
Y121763D01*
Y99963D02*
Y100863D01*
Y120863D02*
X36626D01*
Y100863D02*
Y120863D01*
X30626Y100863D02*
X36626D01*
X30626D02*
Y120863D01*
X33626D01*
X147500Y192900D02*
Y193800D01*
Y213800D02*
Y214700D01*
X144500Y193800D02*
X147500D01*
X144500D02*
Y213800D01*
X150500D01*
Y193800D02*
Y213800D01*
X147500Y193800D02*
X150500D01*
D11*
X43228Y45489D02*
X42784Y46412D01*
X41784Y46641D01*
X40983Y46001D01*
Y44976D01*
X41784Y44337D01*
X42784Y44566D01*
X43228Y45489D01*
X84039Y197804D02*
X83595Y198727D01*
X82595Y198955D01*
X81794Y198316D01*
Y197292D01*
X82595Y196652D01*
X83595Y196880D01*
X84039Y197804D01*
X76165Y104867D02*
X75721Y105790D01*
X74721Y106018D01*
X73920Y105379D01*
Y104355D01*
X74721Y103715D01*
X75721Y103944D01*
X76165Y104867D01*
D12*
X38563Y36985D02*
X37825Y37411D01*
Y36559D01*
X38563Y36985D01*
X79374Y189300D02*
X78636Y189726D01*
Y188874D01*
X79374Y189300D01*
X71500Y96363D02*
X70762Y96789D01*
Y95937D01*
X71500Y96363D01*
D13*
X151358Y10347D02*
X188878D01*
X151358D02*
Y29363D01*
X188878Y10347D02*
Y29363D01*
X151358D02*
X188878D01*
X156992Y41344D02*
X194512D01*
X156992D02*
Y60360D01*
X194512Y41344D02*
Y60360D01*
X156992D02*
X194512D01*
X156992Y72915D02*
X194512D01*
X156992D02*
Y91931D01*
X194512Y72915D02*
Y91931D01*
X156992D02*
X194512D01*
X156992Y104487D02*
X194512D01*
X156992D02*
Y123503D01*
X194512Y104487D02*
Y123503D01*
X156992D02*
X194512D01*
X156992Y136058D02*
X194512D01*
X156992D02*
Y155074D01*
X194512Y136058D02*
Y155074D01*
X156992D02*
X194512D01*
X156992Y167630D02*
X194512D01*
X156992D02*
Y186645D01*
X194512Y167630D02*
Y186645D01*
X156992D02*
X194512D01*
X156992Y199201D02*
X194512D01*
X156992D02*
Y218217D01*
X194512Y199201D02*
Y218217D01*
X156992D02*
X194512D01*
X155240Y232272D02*
X192760D01*
X155240D02*
Y251288D01*
X192760Y232272D02*
Y251288D01*
X155240D02*
X192760D01*
D14*
X213474Y162479D02*
Y158480D01*
X219472D01*
Y162479D01*
X216473Y158480D02*
Y160480D01*
X219472Y164478D02*
X213474D01*
X219472Y168477D01*
X213474D01*
Y170476D02*
Y174475D01*
Y172476D01*
X219472D01*
X214474Y180473D02*
X213474Y179473D01*
Y177474D01*
X214474Y176474D01*
X218473D01*
X219472Y177474D01*
Y179473D01*
X218473Y180473D01*
X219472Y190038D02*
Y186039D01*
X215474Y190038D01*
X214474D01*
X213474Y189038D01*
Y187039D01*
X214474Y186039D01*
Y192037D02*
X213474Y193037D01*
Y195036D01*
X214474Y196036D01*
X218473D01*
X219472Y195036D01*
Y193037D01*
X218473Y192037D01*
X214474D01*
Y198036D02*
X213474Y199035D01*
Y201034D01*
X214474Y202034D01*
X218473D01*
X219472Y201034D01*
Y199035D01*
X218473Y198036D01*
X214474D01*
Y204033D02*
X213474Y205033D01*
Y207033D01*
X214474Y208032D01*
X215474D01*
X216473Y207033D01*
Y206033D01*
Y207033D01*
X217473Y208032D01*
X218473D01*
X219472Y207033D01*
Y205033D01*
X218473Y204033D01*
X213474Y214030D02*
Y210032D01*
X216473D01*
X215474Y212031D01*
Y213031D01*
X216473Y214030D01*
X218473D01*
X219472Y213031D01*
Y211031D01*
X218473Y210032D01*
X213474Y220028D02*
X214474Y218029D01*
X216473Y216030D01*
X218473D01*
X219472Y217029D01*
Y219029D01*
X218473Y220028D01*
X217473D01*
X216473Y219029D01*
Y216030D01*
X219472Y222028D02*
X215474D01*
X213474Y224027D01*
X215474Y226026D01*
X219472D01*
X216473D01*
Y222028D01*
X217473Y36433D02*
X211475D01*
X217473Y40432D01*
X211475D01*
X217473Y43431D02*
Y45430D01*
X216473Y46430D01*
X214474D01*
X213474Y45430D01*
Y43431D01*
X214474Y42431D01*
X216473D01*
X217473Y43431D01*
Y48429D02*
Y50428D01*
Y49429D01*
X213474D01*
Y48429D01*
X217473Y53428D02*
Y56427D01*
X216473Y57426D01*
X215474Y56427D01*
Y54427D01*
X214474Y53428D01*
X213474Y54427D01*
Y57426D01*
X217473Y62425D02*
Y60425D01*
X216473Y59426D01*
X214474D01*
X213474Y60425D01*
Y62425D01*
X214474Y63424D01*
X215474D01*
Y59426D01*
X212475Y75420D02*
X211475Y74421D01*
Y72421D01*
X212475Y71422D01*
X216473D01*
X217473Y72421D01*
Y74421D01*
X216473Y75420D01*
X213474Y78420D02*
Y80419D01*
X214474Y81419D01*
X217473D01*
Y78420D01*
X216473Y77420D01*
X215474Y78420D01*
Y81419D01*
X217473Y83418D02*
X213474D01*
Y86417D01*
X214474Y87417D01*
X217473D01*
X213474Y93415D02*
Y90416D01*
X214474Y89416D01*
X216473D01*
X217473Y90416D01*
Y93415D01*
Y98413D02*
Y96414D01*
X216473Y95414D01*
X214474D01*
X213474Y96414D01*
Y98413D01*
X214474Y99413D01*
X215474D01*
Y95414D01*
X217473Y101412D02*
Y103411D01*
Y102412D01*
X211475D01*
Y101412D01*
X217473Y106410D02*
Y108410D01*
Y107410D01*
X211475D01*
Y106410D01*
X217473Y111409D02*
Y113408D01*
Y112408D01*
X213474D01*
Y111409D01*
X217473Y116407D02*
X213474D01*
Y119406D01*
X214474Y120406D01*
X217473D01*
X219472Y124405D02*
Y125404D01*
X218473Y126404D01*
X213474D01*
Y123405D01*
X214474Y122405D01*
X216473D01*
X217473Y123405D01*
Y126404D01*
X93426Y242177D02*
X92426Y243177D01*
X90426D01*
X89427Y242177D01*
Y238179D01*
X90426Y237179D01*
X92426D01*
X93426Y238179D01*
X99424Y237179D02*
X95425D01*
X99424Y241178D01*
Y242177D01*
X98424Y243177D01*
X96425D01*
X95425Y242177D01*
X128038Y21280D02*
X130037Y17281D01*
X132037Y21280D01*
X134036D02*
Y17281D01*
Y19281D01*
X135036Y20280D01*
X136035Y21280D01*
X137035D01*
X140034Y22280D02*
X141034Y23279D01*
X143033D01*
X144033Y22280D01*
Y21280D01*
X143033Y20280D01*
X144033Y19281D01*
Y18281D01*
X143033Y17281D01*
X141034D01*
X140034Y18281D01*
Y19281D01*
X141034Y20280D01*
X140034Y21280D01*
Y22280D01*
X141034Y20280D02*
X143033D01*
X164774Y36903D02*
X166773Y32904D01*
X168773Y36903D01*
X170772D02*
Y32904D01*
Y34903D01*
X171772Y35903D01*
X172771Y36903D01*
X173771D01*
X176770Y38902D02*
X180769D01*
Y37902D01*
X176770Y33904D01*
Y32904D01*
X164774Y68503D02*
X166773Y64504D01*
X168773Y68503D01*
X170772D02*
Y64504D01*
Y66503D01*
X171772Y67503D01*
X172771Y68503D01*
X173771D01*
X180769Y70502D02*
X178770Y69502D01*
X176770Y67503D01*
Y65504D01*
X177770Y64504D01*
X179769D01*
X180769Y65504D01*
Y66503D01*
X179769Y67503D01*
X176770D01*
X164774Y100103D02*
X166773Y96104D01*
X168773Y100103D01*
X170772D02*
Y96104D01*
Y98103D01*
X171772Y99103D01*
X172771Y100103D01*
X173771D01*
X180769Y102102D02*
X176770D01*
Y99103D01*
X178770Y100103D01*
X179769D01*
X180769Y99103D01*
Y97104D01*
X179769Y96104D01*
X177770D01*
X176770Y97104D01*
X164774Y131703D02*
X166773Y127704D01*
X168773Y131703D01*
X170772D02*
Y127704D01*
Y129703D01*
X171772Y130703D01*
X172771Y131703D01*
X173771D01*
X179769Y127704D02*
Y133702D01*
X176770Y130703D01*
X180769D01*
X164774Y163203D02*
X166773Y159204D01*
X168773Y163203D01*
X170772D02*
Y159204D01*
Y161203D01*
X171772Y162203D01*
X172771Y163203D01*
X173771D01*
X176770Y164202D02*
X177770Y165202D01*
X179769D01*
X180769Y164202D01*
Y163203D01*
X179769Y162203D01*
X178770D01*
X179769D01*
X180769Y161203D01*
Y160204D01*
X179769Y159204D01*
X177770D01*
X176770Y160204D01*
X164774Y194803D02*
X166773Y190804D01*
X168773Y194803D01*
X170772D02*
Y190804D01*
Y192803D01*
X171772Y193803D01*
X172771Y194803D01*
X173771D01*
X180769Y190804D02*
X176770D01*
X180769Y194803D01*
Y195802D01*
X179769Y196802D01*
X177770D01*
X176770Y195802D01*
X163022Y227903D02*
X165021Y223904D01*
X167021Y227903D01*
X169020D02*
Y223904D01*
Y225903D01*
X170020Y226903D01*
X171019Y227903D01*
X172019D01*
X175018Y223904D02*
X177017D01*
X176018D01*
Y229902D01*
X175018Y228902D01*
X53690Y46487D02*
X58688D01*
X59688Y47486D01*
Y49486D01*
X58688Y50485D01*
X53690D01*
X54690Y52485D02*
X53690Y53484D01*
Y55484D01*
X54690Y56483D01*
X55689D01*
X56689Y55484D01*
Y54484D01*
Y55484D01*
X57689Y56483D01*
X58688D01*
X59688Y55484D01*
Y53484D01*
X58688Y52485D01*
X85128Y114862D02*
Y109864D01*
X86127Y108864D01*
X88127D01*
X89126Y109864D01*
Y114862D01*
X95124Y108864D02*
X91126D01*
X95124Y112863D01*
Y113862D01*
X94125Y114862D01*
X92125D01*
X91126Y113862D01*
X95001Y201801D02*
X99999D01*
X100999Y202801D01*
Y204800D01*
X99999Y205800D01*
X95001D01*
X100999Y207799D02*
Y209799D01*
Y208799D01*
X95001D01*
X96001Y207799D01*
X25499Y114303D02*
X19501D01*
Y117302D01*
X20501Y118302D01*
X22500D01*
X23500Y117302D01*
Y114303D01*
Y116303D02*
X25499Y118302D01*
Y120301D02*
X21500D01*
Y121301D01*
X22500Y122301D01*
X25499D01*
X22500D01*
X21500Y123301D01*
X22500Y124300D01*
X25499D01*
Y126300D02*
Y128299D01*
Y127299D01*
X21500D01*
Y126300D01*
Y135297D02*
Y132298D01*
X22500Y131298D01*
X24499D01*
X25499Y132298D01*
Y135297D01*
X143033Y71565D02*
X145657D01*
X144345D01*
X143689Y72221D01*
X143033Y72877D01*
Y73533D01*
X145657Y75501D02*
Y76813D01*
Y76157D01*
X141721D01*
X142377Y75501D01*
X141721Y81405D02*
X142377Y80093D01*
X143689Y78781D01*
X145001D01*
X145657Y79437D01*
Y80749D01*
X145001Y81405D01*
X144345D01*
X143689Y80749D01*
Y78781D01*
X116033Y72565D02*
X118657D01*
X117345D01*
X116689Y73221D01*
X116033Y73877D01*
Y74533D01*
X118657Y76501D02*
Y77813D01*
Y77157D01*
X114721D01*
X115377Y76501D01*
X114721Y82405D02*
Y79781D01*
X116689D01*
X116033Y81093D01*
Y81749D01*
X116689Y82405D01*
X118001D01*
X118657Y81749D01*
Y80437D01*
X118001Y79781D01*
X128533Y72565D02*
X131157D01*
X129845D01*
X129189Y73221D01*
X128533Y73877D01*
Y74533D01*
X131157Y76501D02*
Y77813D01*
Y77157D01*
X127221D01*
X127877Y76501D01*
X131157Y81749D02*
X127221D01*
X129189Y79781D01*
Y82405D01*
X148470Y134567D02*
X151094D01*
X149782D01*
X149126Y135223D01*
X148470Y135879D01*
Y136535D01*
X151094Y138503D02*
Y139815D01*
Y139159D01*
X147158D01*
X147814Y138503D01*
Y141782D02*
X147158Y142438D01*
Y143750D01*
X147814Y144406D01*
X148470D01*
X149126Y143750D01*
Y143094D01*
Y143750D01*
X149782Y144406D01*
X150438D01*
X151094Y143750D01*
Y142438D01*
X150438Y141782D01*
X126470Y133067D02*
X129094D01*
X127782D01*
X127126Y133723D01*
X126470Y134379D01*
Y135035D01*
X129094Y137003D02*
Y138315D01*
Y137659D01*
X125158D01*
X125814Y137003D01*
X129094Y142906D02*
Y140282D01*
X126470Y142906D01*
X125814D01*
X125158Y142250D01*
Y140938D01*
X125814Y140282D01*
X137470Y132723D02*
X140094D01*
X138782D01*
X138126Y133379D01*
X137470Y134035D01*
Y134691D01*
X140094Y136659D02*
Y137971D01*
Y137315D01*
X136158D01*
X136814Y136659D01*
X140094Y139939D02*
Y141251D01*
Y140595D01*
X136158D01*
X136814Y139939D01*
X148544Y165751D02*
X152542D01*
X150543D01*
X149543Y166751D01*
X148544Y167751D01*
Y168750D01*
X152542Y171749D02*
Y173749D01*
Y172749D01*
X146544D01*
X147544Y171749D01*
Y176748D02*
X146544Y177747D01*
Y179747D01*
X147544Y180746D01*
X151543D01*
X152542Y179747D01*
Y177747D01*
X151543Y176748D01*
X147544D01*
X132796Y168250D02*
X136794D01*
X134795D01*
X133795Y169250D01*
X132796Y170250D01*
Y171249D01*
X135795Y174249D02*
X136794Y175248D01*
Y177248D01*
X135795Y178247D01*
X131796D01*
X130796Y177248D01*
Y175248D01*
X131796Y174249D01*
X132796D01*
X133795Y175248D01*
Y178247D01*
X104033Y72705D02*
X106657D01*
X105345D01*
X104689Y73361D01*
X104033Y74017D01*
Y74673D01*
X103377Y76641D02*
X102721Y77297D01*
Y78609D01*
X103377Y79265D01*
X104033D01*
X104689Y78609D01*
X105345Y79265D01*
X106001D01*
X106657Y78609D01*
Y77297D01*
X106001Y76641D01*
X105345D01*
X104689Y77297D01*
X104033Y76641D01*
X103377D01*
X104689Y77297D02*
Y78609D01*
X90033Y72205D02*
X92657D01*
X91345D01*
X90689Y72861D01*
X90033Y73517D01*
Y74173D01*
X88721Y76141D02*
Y78765D01*
X89377D01*
X92001Y76141D01*
X92657D01*
X56344Y81720D02*
X58968D01*
X57656D01*
X57000Y82376D01*
X56344Y83032D01*
Y83688D01*
X55032Y88280D02*
X55688Y86968D01*
X57000Y85656D01*
X58312D01*
X58968Y86312D01*
Y87624D01*
X58312Y88280D01*
X57656D01*
X57000Y87624D01*
Y85656D01*
X44970Y81583D02*
X47594D01*
X46282D01*
X45626Y82239D01*
X44970Y82895D01*
Y83551D01*
X43658Y88143D02*
Y85519D01*
X45626D01*
X44970Y86831D01*
Y87487D01*
X45626Y88143D01*
X46938D01*
X47594Y87487D01*
Y86175D01*
X46938Y85519D01*
X33970Y81583D02*
X36594D01*
X35282D01*
X34626Y82239D01*
X33970Y82895D01*
Y83551D01*
X36594Y87487D02*
X32658D01*
X34626Y85519D01*
Y88143D01*
X46720Y210956D02*
Y208332D01*
Y209644D01*
X47376Y210300D01*
X48032Y210956D01*
X48688D01*
X50656Y211612D02*
X51312Y212268D01*
X52624D01*
X53280Y211612D01*
Y210956D01*
X52624Y210300D01*
X51968D01*
X52624D01*
X53280Y209644D01*
Y208988D01*
X52624Y208332D01*
X51312D01*
X50656Y208988D01*
X46720Y195456D02*
Y192832D01*
Y194144D01*
X47376Y194800D01*
X48032Y195456D01*
X48688D01*
X53280Y192832D02*
X50656D01*
X53280Y195456D01*
Y196112D01*
X52624Y196768D01*
X51312D01*
X50656Y196112D01*
X47376Y224956D02*
Y222332D01*
Y223644D01*
X48032Y224300D01*
X48688Y224956D01*
X49344D01*
X51312Y222332D02*
X52624D01*
X51968D01*
Y226268D01*
X51312Y225612D01*
X117404Y245712D02*
Y251710D01*
X120404D01*
X121403Y250710D01*
Y248711D01*
X120404Y247711D01*
X117404D01*
X124402D02*
X126401D01*
X127401Y248711D01*
Y250710D01*
X126401Y251710D01*
X124402D01*
X123403Y250710D01*
Y248711D01*
X124402Y247711D01*
X129401Y251710D02*
Y248711D01*
X130400Y247711D01*
X131400Y248711D01*
X132400Y247711D01*
X133399Y248711D01*
Y251710D01*
X138398Y247711D02*
X136398D01*
X135399Y248711D01*
Y250710D01*
X136398Y251710D01*
X138398D01*
X139397Y250710D01*
Y249711D01*
X135399D01*
X141397Y251710D02*
Y247711D01*
Y249711D01*
X142396Y250710D01*
X143396Y251710D01*
X144396D01*
X21101Y193903D02*
X27099D01*
Y197902D01*
Y199901D02*
X23100D01*
Y200901D01*
X24100Y201901D01*
X27099D01*
X24100D01*
X23100Y202901D01*
X24100Y203900D01*
X27099D01*
Y205900D02*
Y207899D01*
Y206899D01*
X23100D01*
Y205900D01*
Y214897D02*
Y211898D01*
X24100Y210898D01*
X26099D01*
X27099Y211898D01*
Y214897D01*
X87189Y144800D02*
Y141801D01*
X88189Y140802D01*
X90188D01*
X91188Y141801D01*
Y144800D01*
Y149799D02*
X85190D01*
X88189Y146800D01*
Y150798D01*
X87532Y163800D02*
Y160801D01*
X88532Y159802D01*
X90531D01*
X91531Y160801D01*
Y163800D01*
X86532Y165800D02*
X85532Y166799D01*
Y168799D01*
X86532Y169798D01*
X87532D01*
X88532Y168799D01*
Y167799D01*
Y168799D01*
X89531Y169798D01*
X90531D01*
X91531Y168799D01*
Y166799D01*
X90531Y165800D01*
X55055Y241178D02*
X52056D01*
X51056Y240178D01*
Y238179D01*
X52056Y237179D01*
X55055D01*
X57055D02*
X59054D01*
X58054D01*
Y243177D01*
X57055Y242177D01*
D15*
X29873Y168000D02*
Y167500D01*
X29373D01*
X30373D01*
X29873D01*
Y166001D01*
X30373Y165501D01*
X32372D02*
X33372D01*
X33872Y166001D01*
Y167001D01*
X33372Y167500D01*
X32372D01*
X31872Y167001D01*
Y166001D01*
X32372Y165501D01*
X34871Y168500D02*
Y165501D01*
Y167001D01*
X36871D01*
Y168500D01*
Y165501D01*
X39370D02*
X38370D01*
X37870Y166001D01*
Y167001D01*
X38370Y167500D01*
X39370D01*
X39870Y167001D01*
Y166501D01*
X37870D01*
X41369Y167500D02*
X42369D01*
X42869Y167001D01*
Y165501D01*
X41369D01*
X40870Y166001D01*
X41369Y166501D01*
X42869D01*
X45868Y168500D02*
Y165501D01*
X44368D01*
X43868Y166001D01*
Y167001D01*
X44368Y167500D01*
X45868D01*
X46867Y164501D02*
Y167500D01*
X48367D01*
X48867Y167001D01*
Y166001D01*
X48367Y165501D01*
X46867D01*
X49867Y168500D02*
Y165501D01*
Y167001D01*
X50366Y167500D01*
X51366D01*
X51866Y167001D01*
Y165501D01*
X53365D02*
X54365D01*
X54865Y166001D01*
Y167001D01*
X54365Y167500D01*
X53365D01*
X52866Y167001D01*
Y166001D01*
X53365Y165501D01*
X55865D02*
Y167500D01*
X57364D01*
X57864Y167001D01*
Y165501D01*
X60363D02*
X59364D01*
X58864Y166001D01*
Y167001D01*
X59364Y167500D01*
X60363D01*
X60863Y167001D01*
Y166501D01*
X58864D01*
X24501Y35224D02*
X25334D01*
Y34391D01*
Y36057D01*
Y35224D01*
X27833D01*
X28666Y36057D01*
Y39389D02*
Y41055D01*
X27833Y41888D01*
X26167D01*
X25334Y41055D01*
Y39389D01*
X26167Y38556D01*
X27833D01*
X28666Y39389D01*
X24501Y46887D02*
X23668Y46054D01*
Y44388D01*
X24501Y43554D01*
X27833D01*
X28666Y44388D01*
Y46054D01*
X27833Y46887D01*
X28666Y49386D02*
Y51052D01*
X27833Y51885D01*
X26167D01*
X25334Y51052D01*
Y49386D01*
X26167Y48553D01*
X27833D01*
X28666Y49386D01*
Y53551D02*
X25334D01*
Y54384D01*
X26167Y55217D01*
X28666D01*
X26167D01*
X25334Y56050D01*
X26167Y56884D01*
X28666D01*
X30332Y58550D02*
X25334D01*
Y61049D01*
X26167Y61882D01*
X27833D01*
X28666Y61049D01*
Y58550D01*
X25334Y63548D02*
X27833D01*
X28666Y64381D01*
Y66880D01*
X25334D01*
X24501Y69379D02*
X25334D01*
Y68546D01*
Y70213D01*
Y69379D01*
X27833D01*
X28666Y70213D01*
Y75211D02*
Y73545D01*
X27833Y72712D01*
X26167D01*
X25334Y73545D01*
Y75211D01*
X26167Y76044D01*
X27000D01*
Y72712D01*
X25334Y77710D02*
X28666D01*
X27000D01*
X26167Y78543D01*
X25334Y79376D01*
Y80209D01*
M02*
