G04*
G04 #@! TF.GenerationSoftware,Altium Limited,Altium Designer,23.0.1 (38)*
G04*
G04 Layer_Color=255*
%FSLAX25Y25*%
%MOIN*%
G70*
G04*
G04 #@! TF.SameCoordinates,7B218C2A-F859-486B-BE56-2060E057D8DB*
G04*
G04*
G04 #@! TF.FilePolarity,Positive*
G04*
G01*
G75*
%ADD22R,0.04724X0.04724*%
%ADD23C,0.04724*%
%ADD27R,0.05906X0.05906*%
%ADD28C,0.05906*%
%ADD29R,0.04795X0.04795*%
%ADD30C,0.04795*%
%ADD31C,0.11811*%
%ADD32C,0.05512*%
%ADD33R,0.05906X0.05906*%
D22*
X84583Y240178D02*
D03*
X45213D02*
D03*
X79189Y164800D02*
D03*
X79346Y145800D02*
D03*
D23*
X104268Y240178D02*
D03*
X64898D02*
D03*
X98874Y164800D02*
D03*
X99032Y145800D02*
D03*
D27*
X31118Y157501D02*
D03*
X140900Y236900D02*
D03*
D28*
X41118Y157501D02*
D03*
X51118D02*
D03*
X61118D02*
D03*
X120900Y236900D02*
D03*
X130900D02*
D03*
X73189Y66985D02*
D03*
X63189D02*
D03*
X53189D02*
D03*
X43189D02*
D03*
X73189Y36985D02*
D03*
X63189D02*
D03*
X53189D02*
D03*
X114000Y219300D02*
D03*
X104000D02*
D03*
X94000D02*
D03*
X84000D02*
D03*
X114000Y189300D02*
D03*
X104000D02*
D03*
X94000D02*
D03*
X12600Y212900D02*
D03*
Y202900D02*
D03*
X11000Y133800D02*
D03*
Y123800D02*
D03*
X15000Y50800D02*
D03*
Y60800D02*
D03*
Y70800D02*
D03*
X106126Y126363D02*
D03*
X96126D02*
D03*
X86126D02*
D03*
X76126D02*
D03*
X106126Y96363D02*
D03*
X96126D02*
D03*
X86126D02*
D03*
D29*
X180118Y19875D02*
D03*
X185752Y50871D02*
D03*
Y82443D02*
D03*
Y114014D02*
D03*
Y145586D02*
D03*
Y177157D02*
D03*
Y208729D02*
D03*
X184000Y241800D02*
D03*
D30*
X170118Y19875D02*
D03*
X160118D02*
D03*
X175752Y50871D02*
D03*
X165752D02*
D03*
X175752Y82443D02*
D03*
X165752D02*
D03*
X175752Y114014D02*
D03*
X165752D02*
D03*
X175752Y145586D02*
D03*
X165752D02*
D03*
X175752Y177157D02*
D03*
X165752D02*
D03*
X175752Y208729D02*
D03*
X165752D02*
D03*
X174000Y241800D02*
D03*
X164000D02*
D03*
D31*
X210630Y246063D02*
D03*
Y13780D02*
D03*
X13780D02*
D03*
Y246063D02*
D03*
D32*
X133500Y188300D02*
D03*
Y218300D02*
D03*
X65500Y187800D02*
D03*
X35500D02*
D03*
X65500Y202550D02*
D03*
X35500D02*
D03*
X65500Y217300D02*
D03*
X35500D02*
D03*
X142189Y35985D02*
D03*
Y65985D02*
D03*
X129564D02*
D03*
Y35985D02*
D03*
X116939Y65985D02*
D03*
Y35985D02*
D03*
X104314D02*
D03*
Y65985D02*
D03*
X91689D02*
D03*
Y35985D02*
D03*
X137626Y126869D02*
D03*
Y96869D02*
D03*
X127126D02*
D03*
Y126869D02*
D03*
X147626D02*
D03*
Y96869D02*
D03*
X57000Y126100D02*
D03*
Y96100D02*
D03*
X45126Y95863D02*
D03*
Y125863D02*
D03*
X33626Y95863D02*
D03*
Y125863D02*
D03*
X147500Y218800D02*
D03*
Y188800D02*
D03*
D33*
X43189Y36985D02*
D03*
X84000Y189300D02*
D03*
X12600Y192900D02*
D03*
X11000Y113800D02*
D03*
X15000Y40800D02*
D03*
X76126Y96363D02*
D03*
M02*
