G04*
G04 #@! TF.GenerationSoftware,Altium Limited,Altium Designer,23.0.1 (38)*
G04*
G04 Layer_Color=16711935*
%FSLAX25Y25*%
%MOIN*%
G70*
G04*
G04 #@! TF.SameCoordinates,7B218C2A-F859-486B-BE56-2060E057D8DB*
G04*
G04*
G04 #@! TF.FilePolarity,Positive*
G04*
G01*
G75*
%ADD10C,0.00787*%
G36*
X95674Y242780D02*
X95706Y242777D01*
X95746Y242773D01*
X95786Y242770D01*
X95834Y242759D01*
X95932Y242737D01*
X96041Y242704D01*
X96096Y242682D01*
X96147Y242657D01*
X96198Y242624D01*
X96249Y242591D01*
X96252Y242588D01*
X96260Y242584D01*
X96274Y242573D01*
X96293Y242555D01*
X96311Y242537D01*
X96336Y242511D01*
X96362Y242482D01*
X96391Y242453D01*
X96420Y242417D01*
X96449Y242373D01*
X96482Y242329D01*
X96511Y242282D01*
X96536Y242227D01*
X96566Y242173D01*
X96587Y242114D01*
X96609Y242049D01*
X96282Y241972D01*
Y241976D01*
X96278Y241983D01*
X96271Y241998D01*
X96263Y242016D01*
X96256Y242038D01*
X96245Y242067D01*
X96216Y242125D01*
X96180Y242191D01*
X96136Y242256D01*
X96081Y242318D01*
X96023Y242373D01*
X96016Y242380D01*
X95994Y242395D01*
X95958Y242413D01*
X95910Y242438D01*
X95848Y242460D01*
X95779Y242482D01*
X95696Y242497D01*
X95604Y242500D01*
X95575D01*
X95557Y242497D01*
X95532D01*
X95503Y242493D01*
X95433Y242482D01*
X95357Y242467D01*
X95277Y242442D01*
X95193Y242406D01*
X95117Y242358D01*
X95113D01*
X95109Y242351D01*
X95084Y242333D01*
X95051Y242304D01*
X95011Y242260D01*
X94964Y242205D01*
X94920Y242144D01*
X94880Y242067D01*
X94844Y241983D01*
Y241980D01*
X94840Y241972D01*
X94836Y241962D01*
X94833Y241943D01*
X94826Y241921D01*
X94818Y241896D01*
X94807Y241834D01*
X94793Y241761D01*
X94778Y241681D01*
X94771Y241594D01*
X94767Y241499D01*
Y241496D01*
Y241485D01*
Y241466D01*
Y241445D01*
X94771Y241419D01*
Y241386D01*
X94775Y241350D01*
X94778Y241310D01*
X94789Y241223D01*
X94807Y241128D01*
X94829Y241033D01*
X94858Y240939D01*
Y240935D01*
X94862Y240928D01*
X94869Y240917D01*
X94876Y240899D01*
X94898Y240855D01*
X94931Y240804D01*
X94971Y240746D01*
X95022Y240684D01*
X95080Y240629D01*
X95149Y240578D01*
X95153D01*
X95160Y240575D01*
X95171Y240567D01*
X95186Y240560D01*
X95204Y240553D01*
X95226Y240542D01*
X95277Y240520D01*
X95342Y240498D01*
X95415Y240480D01*
X95495Y240465D01*
X95579Y240462D01*
X95604D01*
X95626Y240465D01*
X95652D01*
X95677Y240469D01*
X95743Y240484D01*
X95819Y240502D01*
X95896Y240531D01*
X95976Y240571D01*
X96016Y240593D01*
X96052Y240622D01*
X96056Y240626D01*
X96060Y240629D01*
X96070Y240640D01*
X96085Y240651D01*
X96100Y240669D01*
X96118Y240691D01*
X96140Y240713D01*
X96158Y240742D01*
X96180Y240775D01*
X96205Y240811D01*
X96227Y240848D01*
X96249Y240891D01*
X96267Y240939D01*
X96285Y240990D01*
X96303Y241044D01*
X96318Y241103D01*
X96653Y241019D01*
Y241015D01*
X96649Y241001D01*
X96642Y240979D01*
X96631Y240950D01*
X96620Y240917D01*
X96605Y240877D01*
X96587Y240833D01*
X96566Y240786D01*
X96514Y240684D01*
X96449Y240582D01*
X96409Y240531D01*
X96369Y240480D01*
X96325Y240436D01*
X96274Y240393D01*
X96271Y240389D01*
X96263Y240382D01*
X96245Y240374D01*
X96227Y240360D01*
X96198Y240342D01*
X96169Y240323D01*
X96129Y240305D01*
X96089Y240287D01*
X96041Y240265D01*
X95990Y240247D01*
X95936Y240229D01*
X95877Y240211D01*
X95816Y240196D01*
X95750Y240189D01*
X95681Y240181D01*
X95608Y240178D01*
X95568D01*
X95539Y240181D01*
X95506D01*
X95466Y240185D01*
X95423Y240193D01*
X95372Y240200D01*
X95266Y240218D01*
X95157Y240247D01*
X95048Y240287D01*
X94997Y240313D01*
X94946Y240342D01*
X94942Y240345D01*
X94935Y240349D01*
X94920Y240360D01*
X94906Y240374D01*
X94884Y240389D01*
X94858Y240411D01*
X94829Y240436D01*
X94800Y240465D01*
X94771Y240498D01*
X94738Y240531D01*
X94673Y240615D01*
X94611Y240713D01*
X94556Y240822D01*
Y240826D01*
X94549Y240837D01*
X94545Y240855D01*
X94534Y240877D01*
X94527Y240906D01*
X94516Y240942D01*
X94502Y240982D01*
X94491Y241026D01*
X94480Y241073D01*
X94465Y241128D01*
X94447Y241241D01*
X94432Y241368D01*
X94425Y241499D01*
Y241503D01*
Y241517D01*
Y241539D01*
X94429Y241565D01*
Y241601D01*
X94432Y241637D01*
X94436Y241685D01*
X94443Y241732D01*
X94462Y241838D01*
X94487Y241954D01*
X94523Y242071D01*
X94574Y242183D01*
X94578Y242187D01*
X94582Y242198D01*
X94589Y242213D01*
X94604Y242231D01*
X94618Y242256D01*
X94636Y242285D01*
X94684Y242351D01*
X94745Y242424D01*
X94818Y242497D01*
X94902Y242569D01*
X95000Y242631D01*
X95004Y242635D01*
X95015Y242638D01*
X95029Y242646D01*
X95048Y242657D01*
X95077Y242668D01*
X95106Y242679D01*
X95142Y242693D01*
X95182Y242708D01*
X95226Y242722D01*
X95273Y242737D01*
X95375Y242759D01*
X95492Y242777D01*
X95612Y242784D01*
X95648D01*
X95674Y242780D01*
D02*
G37*
G36*
X97832Y242748D02*
X97861Y242744D01*
X97898Y242741D01*
X97938Y242733D01*
X97978Y242726D01*
X98072Y242700D01*
X98167Y242664D01*
X98214Y242642D01*
X98262Y242617D01*
X98305Y242584D01*
X98345Y242547D01*
X98349Y242544D01*
X98356Y242540D01*
X98364Y242526D01*
X98378Y242511D01*
X98396Y242493D01*
X98415Y242467D01*
X98433Y242442D01*
X98455Y242409D01*
X98491Y242340D01*
X98527Y242253D01*
X98542Y242209D01*
X98549Y242158D01*
X98557Y242107D01*
X98560Y242053D01*
Y242045D01*
Y242027D01*
X98557Y241998D01*
X98553Y241958D01*
X98546Y241914D01*
X98531Y241863D01*
X98516Y241809D01*
X98495Y241754D01*
X98491Y241747D01*
X98484Y241728D01*
X98469Y241699D01*
X98447Y241659D01*
X98418Y241616D01*
X98382Y241561D01*
X98338Y241507D01*
X98287Y241445D01*
X98280Y241437D01*
X98262Y241416D01*
X98243Y241397D01*
X98225Y241379D01*
X98203Y241357D01*
X98174Y241328D01*
X98145Y241299D01*
X98109Y241266D01*
X98072Y241230D01*
X98029Y241190D01*
X97981Y241150D01*
X97931Y241103D01*
X97872Y241055D01*
X97814Y241004D01*
X97810Y241001D01*
X97803Y240993D01*
X97789Y240982D01*
X97770Y240968D01*
X97749Y240946D01*
X97723Y240924D01*
X97665Y240877D01*
X97603Y240822D01*
X97545Y240768D01*
X97494Y240720D01*
X97472Y240702D01*
X97454Y240684D01*
X97450Y240680D01*
X97439Y240669D01*
X97425Y240655D01*
X97406Y240633D01*
X97388Y240607D01*
X97366Y240582D01*
X97323Y240520D01*
X98564D01*
Y240222D01*
X96893D01*
Y240225D01*
Y240240D01*
Y240262D01*
X96897Y240291D01*
X96900Y240323D01*
X96908Y240360D01*
X96915Y240396D01*
X96930Y240436D01*
Y240440D01*
X96933Y240444D01*
X96940Y240465D01*
X96955Y240498D01*
X96977Y240542D01*
X97006Y240593D01*
X97042Y240651D01*
X97082Y240709D01*
X97133Y240771D01*
Y240775D01*
X97141Y240778D01*
X97159Y240800D01*
X97192Y240833D01*
X97239Y240880D01*
X97294Y240935D01*
X97363Y241001D01*
X97446Y241073D01*
X97537Y241150D01*
X97541Y241153D01*
X97556Y241164D01*
X97577Y241182D01*
X97603Y241204D01*
X97636Y241233D01*
X97676Y241266D01*
X97716Y241303D01*
X97763Y241343D01*
X97854Y241430D01*
X97945Y241517D01*
X97989Y241561D01*
X98029Y241605D01*
X98065Y241645D01*
X98094Y241685D01*
Y241688D01*
X98102Y241692D01*
X98109Y241703D01*
X98116Y241718D01*
X98142Y241758D01*
X98171Y241805D01*
X98196Y241863D01*
X98222Y241925D01*
X98236Y241994D01*
X98243Y242060D01*
Y242063D01*
Y242067D01*
X98240Y242089D01*
X98236Y242125D01*
X98225Y242165D01*
X98211Y242216D01*
X98185Y242267D01*
X98153Y242318D01*
X98109Y242369D01*
X98102Y242376D01*
X98083Y242391D01*
X98058Y242409D01*
X98018Y242435D01*
X97967Y242457D01*
X97909Y242478D01*
X97839Y242493D01*
X97763Y242497D01*
X97741D01*
X97727Y242493D01*
X97683Y242489D01*
X97632Y242478D01*
X97577Y242464D01*
X97515Y242438D01*
X97457Y242406D01*
X97403Y242362D01*
X97395Y242355D01*
X97381Y242336D01*
X97359Y242307D01*
X97337Y242264D01*
X97312Y242213D01*
X97290Y242147D01*
X97275Y242074D01*
X97268Y241991D01*
X96951Y242023D01*
Y242027D01*
X96955Y242038D01*
Y242056D01*
X96959Y242082D01*
X96966Y242111D01*
X96973Y242144D01*
X96984Y242183D01*
X96995Y242224D01*
X97024Y242311D01*
X97068Y242398D01*
X97093Y242442D01*
X97126Y242486D01*
X97159Y242526D01*
X97195Y242562D01*
X97199Y242566D01*
X97206Y242569D01*
X97217Y242580D01*
X97235Y242591D01*
X97257Y242606D01*
X97283Y242620D01*
X97312Y242638D01*
X97348Y242657D01*
X97388Y242675D01*
X97432Y242693D01*
X97479Y242708D01*
X97530Y242722D01*
X97585Y242733D01*
X97643Y242744D01*
X97705Y242748D01*
X97770Y242751D01*
X97807D01*
X97832Y242748D01*
D02*
G37*
G36*
X55936Y242082D02*
X55958D01*
X55987Y242078D01*
X56056Y242067D01*
X56133Y242049D01*
X56213Y242020D01*
X56293Y241983D01*
X56369Y241932D01*
X56373D01*
X56376Y241925D01*
X56398Y241903D01*
X56431Y241870D01*
X56471Y241823D01*
X56511Y241765D01*
X56551Y241692D01*
X56587Y241608D01*
X56613Y241510D01*
X56311Y241463D01*
Y241466D01*
X56307Y241470D01*
X56304Y241492D01*
X56293Y241525D01*
X56274Y241565D01*
X56256Y241608D01*
X56227Y241656D01*
X56194Y241699D01*
X56158Y241736D01*
X56154Y241740D01*
X56140Y241750D01*
X56114Y241765D01*
X56085Y241783D01*
X56045Y241801D01*
X56002Y241816D01*
X55950Y241827D01*
X55896Y241830D01*
X55874D01*
X55856Y241827D01*
X55816Y241823D01*
X55761Y241809D01*
X55703Y241790D01*
X55638Y241761D01*
X55576Y241718D01*
X55546Y241692D01*
X55517Y241663D01*
Y241659D01*
X55510Y241656D01*
X55503Y241645D01*
X55496Y241630D01*
X55485Y241612D01*
X55470Y241590D01*
X55459Y241565D01*
X55445Y241536D01*
X55430Y241499D01*
X55419Y241459D01*
X55405Y241416D01*
X55394Y241368D01*
X55386Y241317D01*
X55379Y241259D01*
X55372Y241197D01*
Y241132D01*
Y241128D01*
Y241117D01*
Y241095D01*
X55375Y241073D01*
Y241041D01*
X55379Y241008D01*
X55390Y240928D01*
X55405Y240840D01*
X55430Y240749D01*
X55463Y240669D01*
X55485Y240629D01*
X55510Y240597D01*
X55517Y240589D01*
X55536Y240571D01*
X55568Y240546D01*
X55608Y240516D01*
X55663Y240484D01*
X55725Y240458D01*
X55798Y240440D01*
X55838Y240436D01*
X55878Y240433D01*
X55885D01*
X55907Y240436D01*
X55943Y240440D01*
X55983Y240447D01*
X56031Y240458D01*
X56082Y240480D01*
X56133Y240506D01*
X56180Y240542D01*
X56187Y240546D01*
X56198Y240564D01*
X56220Y240589D01*
X56245Y240629D01*
X56271Y240677D01*
X56300Y240735D01*
X56322Y240808D01*
X56336Y240888D01*
X56642Y240848D01*
Y240844D01*
X56638Y240833D01*
X56635Y240819D01*
X56631Y240797D01*
X56624Y240768D01*
X56617Y240739D01*
X56591Y240666D01*
X56558Y240589D01*
X56511Y240506D01*
X56453Y240425D01*
X56420Y240389D01*
X56384Y240353D01*
X56380Y240349D01*
X56373Y240345D01*
X56362Y240338D01*
X56347Y240327D01*
X56329Y240313D01*
X56304Y240298D01*
X56274Y240283D01*
X56245Y240265D01*
X56173Y240232D01*
X56085Y240207D01*
X55990Y240185D01*
X55936Y240181D01*
X55881Y240178D01*
X55845D01*
X55819Y240181D01*
X55787Y240185D01*
X55750Y240193D01*
X55710Y240200D01*
X55667Y240207D01*
X55568Y240236D01*
X55521Y240258D01*
X55470Y240280D01*
X55419Y240309D01*
X55372Y240342D01*
X55324Y240378D01*
X55281Y240422D01*
X55277Y240425D01*
X55270Y240433D01*
X55259Y240447D01*
X55244Y240465D01*
X55230Y240491D01*
X55208Y240524D01*
X55190Y240560D01*
X55168Y240600D01*
X55146Y240648D01*
X55128Y240702D01*
X55106Y240757D01*
X55092Y240822D01*
X55077Y240888D01*
X55066Y240964D01*
X55059Y241041D01*
X55055Y241124D01*
Y241128D01*
Y241139D01*
Y241153D01*
Y241175D01*
X55059Y241201D01*
Y241230D01*
X55062Y241263D01*
X55066Y241299D01*
X55077Y241379D01*
X55095Y241466D01*
X55117Y241554D01*
X55150Y241641D01*
Y241645D01*
X55153Y241652D01*
X55161Y241663D01*
X55168Y241678D01*
X55190Y241718D01*
X55222Y241765D01*
X55266Y241820D01*
X55317Y241874D01*
X55379Y241929D01*
X55448Y241972D01*
X55452D01*
X55459Y241976D01*
X55470Y241983D01*
X55485Y241991D01*
X55503Y241998D01*
X55525Y242009D01*
X55579Y242031D01*
X55641Y242049D01*
X55718Y242067D01*
X55798Y242082D01*
X55885Y242085D01*
X55914D01*
X55936Y242082D01*
D02*
G37*
G36*
X57985Y240218D02*
X57676D01*
Y242187D01*
X57672Y242183D01*
X57654Y242169D01*
X57632Y242147D01*
X57596Y242122D01*
X57556Y242089D01*
X57505Y242053D01*
X57447Y242013D01*
X57381Y241972D01*
X57377D01*
X57374Y241969D01*
X57352Y241954D01*
X57315Y241936D01*
X57272Y241914D01*
X57221Y241889D01*
X57166Y241863D01*
X57112Y241838D01*
X57057Y241816D01*
Y242114D01*
X57061D01*
X57068Y242122D01*
X57083Y242125D01*
X57101Y242136D01*
X57123Y242147D01*
X57148Y242162D01*
X57210Y242198D01*
X57283Y242238D01*
X57356Y242289D01*
X57432Y242347D01*
X57508Y242409D01*
X57512Y242413D01*
X57516Y242417D01*
X57527Y242427D01*
X57541Y242438D01*
X57574Y242475D01*
X57618Y242518D01*
X57661Y242569D01*
X57709Y242628D01*
X57749Y242686D01*
X57785Y242748D01*
X57985D01*
Y240218D01*
D02*
G37*
G36*
X91663Y167370D02*
X91711Y167362D01*
X91769Y167352D01*
X91834Y167333D01*
X91900Y167312D01*
X91965Y167282D01*
X91969D01*
X91973Y167279D01*
X91994Y167268D01*
X92027Y167246D01*
X92064Y167221D01*
X92107Y167184D01*
X92151Y167144D01*
X92195Y167097D01*
X92231Y167042D01*
X92235Y167035D01*
X92246Y167017D01*
X92260Y166984D01*
X92278Y166944D01*
X92296Y166897D01*
X92311Y166842D01*
X92322Y166780D01*
X92326Y166718D01*
Y166711D01*
Y166689D01*
X92322Y166660D01*
X92315Y166620D01*
X92304Y166573D01*
X92286Y166522D01*
X92264Y166471D01*
X92235Y166420D01*
X92231Y166412D01*
X92220Y166398D01*
X92198Y166372D01*
X92169Y166343D01*
X92133Y166311D01*
X92089Y166274D01*
X92038Y166241D01*
X91976Y166209D01*
X91980D01*
X91987Y166205D01*
X91998Y166201D01*
X92013Y166198D01*
X92053Y166183D01*
X92104Y166161D01*
X92162Y166132D01*
X92220Y166096D01*
X92275Y166049D01*
X92326Y165994D01*
X92329Y165987D01*
X92344Y165965D01*
X92366Y165928D01*
X92387Y165881D01*
X92409Y165823D01*
X92431Y165754D01*
X92446Y165674D01*
X92449Y165586D01*
Y165583D01*
Y165572D01*
Y165553D01*
X92446Y165532D01*
X92442Y165503D01*
X92435Y165470D01*
X92428Y165433D01*
X92420Y165393D01*
X92391Y165306D01*
X92369Y165259D01*
X92348Y165215D01*
X92318Y165168D01*
X92286Y165120D01*
X92249Y165073D01*
X92206Y165029D01*
X92202Y165026D01*
X92195Y165018D01*
X92180Y165007D01*
X92162Y164993D01*
X92140Y164975D01*
X92111Y164956D01*
X92078Y164935D01*
X92038Y164916D01*
X91998Y164895D01*
X91951Y164873D01*
X91903Y164855D01*
X91849Y164836D01*
X91791Y164822D01*
X91729Y164811D01*
X91667Y164804D01*
X91598Y164800D01*
X91565D01*
X91543Y164804D01*
X91514Y164807D01*
X91481Y164811D01*
X91445Y164818D01*
X91405Y164825D01*
X91317Y164847D01*
X91226Y164884D01*
X91179Y164906D01*
X91135Y164931D01*
X91092Y164964D01*
X91048Y164997D01*
X91044Y165000D01*
X91037Y165007D01*
X91026Y165018D01*
X91015Y165033D01*
X90997Y165051D01*
X90979Y165077D01*
X90957Y165102D01*
X90935Y165135D01*
X90913Y165171D01*
X90891Y165208D01*
X90851Y165295D01*
X90819Y165397D01*
X90808Y165452D01*
X90800Y165510D01*
X91110Y165550D01*
Y165546D01*
X91114Y165539D01*
X91117Y165524D01*
X91121Y165506D01*
X91124Y165484D01*
X91132Y165459D01*
X91150Y165404D01*
X91175Y165339D01*
X91208Y165277D01*
X91245Y165219D01*
X91288Y165168D01*
X91295Y165164D01*
X91310Y165149D01*
X91339Y165131D01*
X91376Y165113D01*
X91419Y165091D01*
X91474Y165073D01*
X91536Y165058D01*
X91601Y165055D01*
X91623D01*
X91638Y165058D01*
X91678Y165062D01*
X91729Y165073D01*
X91787Y165091D01*
X91849Y165117D01*
X91911Y165153D01*
X91969Y165204D01*
X91976Y165211D01*
X91994Y165233D01*
X92016Y165266D01*
X92045Y165310D01*
X92075Y165364D01*
X92096Y165426D01*
X92115Y165499D01*
X92122Y165579D01*
Y165583D01*
Y165590D01*
Y165601D01*
X92118Y165615D01*
X92115Y165655D01*
X92104Y165703D01*
X92089Y165761D01*
X92064Y165819D01*
X92027Y165877D01*
X91980Y165932D01*
X91973Y165939D01*
X91954Y165954D01*
X91925Y165976D01*
X91885Y166001D01*
X91834Y166027D01*
X91772Y166049D01*
X91703Y166063D01*
X91627Y166070D01*
X91594D01*
X91568Y166067D01*
X91536Y166063D01*
X91499Y166056D01*
X91456Y166049D01*
X91408Y166038D01*
X91445Y166311D01*
X91463D01*
X91478Y166307D01*
X91525D01*
X91565Y166314D01*
X91612Y166322D01*
X91667Y166332D01*
X91729Y166351D01*
X91787Y166376D01*
X91849Y166409D01*
X91852D01*
X91856Y166412D01*
X91874Y166427D01*
X91900Y166453D01*
X91929Y166485D01*
X91958Y166533D01*
X91983Y166587D01*
X92002Y166649D01*
X92009Y166685D01*
Y166726D01*
Y166729D01*
Y166733D01*
Y166755D01*
X92002Y166784D01*
X91994Y166824D01*
X91980Y166867D01*
X91962Y166915D01*
X91932Y166962D01*
X91892Y167006D01*
X91889Y167009D01*
X91871Y167024D01*
X91845Y167042D01*
X91812Y167064D01*
X91769Y167082D01*
X91718Y167100D01*
X91659Y167115D01*
X91594Y167119D01*
X91565D01*
X91532Y167111D01*
X91488Y167104D01*
X91441Y167089D01*
X91394Y167071D01*
X91343Y167042D01*
X91295Y167006D01*
X91292Y167002D01*
X91277Y166984D01*
X91255Y166958D01*
X91230Y166922D01*
X91205Y166875D01*
X91179Y166816D01*
X91157Y166747D01*
X91143Y166667D01*
X90833Y166722D01*
Y166726D01*
X90837Y166736D01*
X90841Y166751D01*
X90844Y166773D01*
X90851Y166798D01*
X90862Y166827D01*
X90884Y166897D01*
X90921Y166977D01*
X90964Y167057D01*
X91019Y167133D01*
X91088Y167202D01*
X91092Y167206D01*
X91099Y167210D01*
X91110Y167217D01*
X91124Y167228D01*
X91143Y167242D01*
X91168Y167257D01*
X91194Y167271D01*
X91226Y167290D01*
X91299Y167319D01*
X91383Y167348D01*
X91481Y167366D01*
X91532Y167373D01*
X91623D01*
X91663Y167370D01*
D02*
G37*
G36*
X89912Y166707D02*
X89934D01*
X89963Y166704D01*
X90032Y166693D01*
X90109Y166674D01*
X90189Y166645D01*
X90269Y166609D01*
X90346Y166558D01*
X90349D01*
X90353Y166551D01*
X90375Y166529D01*
X90407Y166496D01*
X90447Y166449D01*
X90487Y166391D01*
X90527Y166318D01*
X90564Y166234D01*
X90589Y166136D01*
X90287Y166088D01*
Y166092D01*
X90284Y166096D01*
X90280Y166118D01*
X90269Y166150D01*
X90251Y166190D01*
X90233Y166234D01*
X90203Y166281D01*
X90171Y166325D01*
X90134Y166361D01*
X90131Y166365D01*
X90116Y166376D01*
X90091Y166391D01*
X90062Y166409D01*
X90022Y166427D01*
X89978Y166442D01*
X89927Y166453D01*
X89872Y166456D01*
X89850D01*
X89832Y166453D01*
X89792Y166449D01*
X89738Y166434D01*
X89679Y166416D01*
X89614Y166387D01*
X89552Y166343D01*
X89523Y166318D01*
X89494Y166289D01*
Y166285D01*
X89486Y166281D01*
X89479Y166270D01*
X89472Y166256D01*
X89461Y166238D01*
X89446Y166216D01*
X89435Y166190D01*
X89421Y166161D01*
X89406Y166125D01*
X89395Y166085D01*
X89381Y166041D01*
X89370Y165994D01*
X89363Y165943D01*
X89355Y165885D01*
X89348Y165823D01*
Y165757D01*
Y165754D01*
Y165743D01*
Y165721D01*
X89352Y165699D01*
Y165666D01*
X89355Y165633D01*
X89366Y165553D01*
X89381Y165466D01*
X89406Y165375D01*
X89439Y165295D01*
X89461Y165255D01*
X89486Y165222D01*
X89494Y165215D01*
X89512Y165197D01*
X89545Y165171D01*
X89585Y165142D01*
X89639Y165109D01*
X89701Y165084D01*
X89774Y165066D01*
X89814Y165062D01*
X89854Y165058D01*
X89861D01*
X89883Y165062D01*
X89920Y165066D01*
X89960Y165073D01*
X90007Y165084D01*
X90058Y165106D01*
X90109Y165131D01*
X90156Y165168D01*
X90163Y165171D01*
X90174Y165189D01*
X90196Y165215D01*
X90222Y165255D01*
X90247Y165302D01*
X90276Y165360D01*
X90298Y165433D01*
X90313Y165513D01*
X90618Y165473D01*
Y165470D01*
X90615Y165459D01*
X90611Y165444D01*
X90608Y165422D01*
X90600Y165393D01*
X90593Y165364D01*
X90567Y165291D01*
X90535Y165215D01*
X90487Y165131D01*
X90429Y165051D01*
X90396Y165015D01*
X90360Y164978D01*
X90356Y164975D01*
X90349Y164971D01*
X90338Y164964D01*
X90324Y164953D01*
X90305Y164938D01*
X90280Y164924D01*
X90251Y164909D01*
X90222Y164891D01*
X90149Y164858D01*
X90062Y164833D01*
X89967Y164811D01*
X89912Y164807D01*
X89858Y164804D01*
X89821D01*
X89796Y164807D01*
X89763Y164811D01*
X89727Y164818D01*
X89687Y164825D01*
X89643Y164833D01*
X89545Y164862D01*
X89497Y164884D01*
X89446Y164906D01*
X89395Y164935D01*
X89348Y164967D01*
X89301Y165004D01*
X89257Y165048D01*
X89253Y165051D01*
X89246Y165058D01*
X89235Y165073D01*
X89221Y165091D01*
X89206Y165117D01*
X89184Y165149D01*
X89166Y165186D01*
X89144Y165226D01*
X89122Y165273D01*
X89104Y165328D01*
X89082Y165382D01*
X89068Y165448D01*
X89053Y165513D01*
X89042Y165590D01*
X89035Y165666D01*
X89031Y165750D01*
Y165754D01*
Y165765D01*
Y165779D01*
Y165801D01*
X89035Y165826D01*
Y165856D01*
X89039Y165888D01*
X89042Y165925D01*
X89053Y166005D01*
X89072Y166092D01*
X89093Y166180D01*
X89126Y166267D01*
Y166270D01*
X89130Y166278D01*
X89137Y166289D01*
X89144Y166303D01*
X89166Y166343D01*
X89199Y166391D01*
X89243Y166445D01*
X89293Y166500D01*
X89355Y166554D01*
X89425Y166598D01*
X89428D01*
X89435Y166602D01*
X89446Y166609D01*
X89461Y166616D01*
X89479Y166624D01*
X89501Y166635D01*
X89556Y166656D01*
X89618Y166674D01*
X89694Y166693D01*
X89774Y166707D01*
X89861Y166711D01*
X89890D01*
X89912Y166707D01*
D02*
G37*
G36*
X90070Y147704D02*
X90092D01*
X90121Y147700D01*
X90190Y147689D01*
X90266Y147671D01*
X90346Y147642D01*
X90426Y147605D01*
X90503Y147554D01*
X90507D01*
X90510Y147547D01*
X90532Y147525D01*
X90565Y147493D01*
X90605Y147445D01*
X90645Y147387D01*
X90685Y147314D01*
X90721Y147231D01*
X90747Y147132D01*
X90445Y147085D01*
Y147089D01*
X90441Y147092D01*
X90438Y147114D01*
X90426Y147147D01*
X90408Y147187D01*
X90390Y147231D01*
X90361Y147278D01*
X90328Y147321D01*
X90292Y147358D01*
X90288Y147362D01*
X90274Y147372D01*
X90248Y147387D01*
X90219Y147405D01*
X90179Y147423D01*
X90135Y147438D01*
X90084Y147449D01*
X90030Y147452D01*
X90008D01*
X89990Y147449D01*
X89950Y147445D01*
X89895Y147431D01*
X89837Y147413D01*
X89771Y147383D01*
X89710Y147340D01*
X89680Y147314D01*
X89651Y147285D01*
Y147281D01*
X89644Y147278D01*
X89637Y147267D01*
X89629Y147252D01*
X89618Y147234D01*
X89604Y147212D01*
X89593Y147187D01*
X89578Y147158D01*
X89564Y147121D01*
X89553Y147081D01*
X89538Y147038D01*
X89527Y146990D01*
X89520Y146939D01*
X89513Y146881D01*
X89506Y146819D01*
Y146754D01*
Y146750D01*
Y146739D01*
Y146717D01*
X89509Y146695D01*
Y146663D01*
X89513Y146630D01*
X89524Y146550D01*
X89538Y146462D01*
X89564Y146371D01*
X89597Y146291D01*
X89618Y146251D01*
X89644Y146219D01*
X89651Y146211D01*
X89669Y146193D01*
X89702Y146168D01*
X89742Y146139D01*
X89797Y146106D01*
X89859Y146080D01*
X89931Y146062D01*
X89972Y146058D01*
X90012Y146055D01*
X90019D01*
X90041Y146058D01*
X90077Y146062D01*
X90117Y146069D01*
X90164Y146080D01*
X90215Y146102D01*
X90266Y146127D01*
X90314Y146164D01*
X90321Y146168D01*
X90332Y146186D01*
X90354Y146211D01*
X90379Y146251D01*
X90405Y146299D01*
X90434Y146357D01*
X90456Y146430D01*
X90470Y146510D01*
X90776Y146470D01*
Y146466D01*
X90772Y146455D01*
X90769Y146441D01*
X90765Y146419D01*
X90758Y146390D01*
X90750Y146361D01*
X90725Y146288D01*
X90692Y146211D01*
X90645Y146127D01*
X90587Y146047D01*
X90554Y146011D01*
X90517Y145975D01*
X90514Y145971D01*
X90507Y145967D01*
X90496Y145960D01*
X90481Y145949D01*
X90463Y145935D01*
X90438Y145920D01*
X90408Y145905D01*
X90379Y145887D01*
X90306Y145854D01*
X90219Y145829D01*
X90124Y145807D01*
X90070Y145804D01*
X90015Y145800D01*
X89979D01*
X89953Y145804D01*
X89921Y145807D01*
X89884Y145815D01*
X89844Y145822D01*
X89801Y145829D01*
X89702Y145858D01*
X89655Y145880D01*
X89604Y145902D01*
X89553Y145931D01*
X89506Y145964D01*
X89458Y146000D01*
X89415Y146044D01*
X89411Y146047D01*
X89404Y146055D01*
X89393Y146069D01*
X89378Y146088D01*
X89364Y146113D01*
X89342Y146146D01*
X89324Y146182D01*
X89302Y146222D01*
X89280Y146270D01*
X89262Y146324D01*
X89240Y146379D01*
X89225Y146444D01*
X89211Y146510D01*
X89200Y146586D01*
X89193Y146663D01*
X89189Y146746D01*
Y146750D01*
Y146761D01*
Y146775D01*
Y146797D01*
X89193Y146823D01*
Y146852D01*
X89196Y146885D01*
X89200Y146921D01*
X89211Y147001D01*
X89229Y147089D01*
X89251Y147176D01*
X89284Y147263D01*
Y147267D01*
X89287Y147274D01*
X89294Y147285D01*
X89302Y147300D01*
X89324Y147340D01*
X89356Y147387D01*
X89400Y147442D01*
X89451Y147496D01*
X89513Y147551D01*
X89582Y147594D01*
X89586D01*
X89593Y147598D01*
X89604Y147605D01*
X89618Y147613D01*
X89637Y147620D01*
X89658Y147631D01*
X89713Y147653D01*
X89775Y147671D01*
X89851Y147689D01*
X89931Y147704D01*
X90019Y147707D01*
X90048D01*
X90070Y147704D01*
D02*
G37*
G36*
X92254Y146728D02*
X92596D01*
Y146444D01*
X92254D01*
Y145840D01*
X91944D01*
Y146444D01*
X90849D01*
Y146728D01*
X92003Y148359D01*
X92254D01*
Y146728D01*
D02*
G37*
%LPC*%
G36*
X91944Y147856D02*
X91151Y146728D01*
X91944D01*
Y147856D01*
D02*
G37*
%LPD*%
D10*
X81827Y248446D02*
X107024D01*
Y231910D02*
Y248446D01*
X81827Y231910D02*
X107024D01*
X81827D02*
Y248446D01*
X42457D02*
X67654D01*
Y231910D02*
Y248446D01*
X42457Y231910D02*
X67654D01*
X42457D02*
Y248446D01*
X76433Y173068D02*
X101630D01*
Y156532D02*
Y173068D01*
X76433Y156532D02*
X101630D01*
X76433D02*
Y173068D01*
X76591Y154068D02*
X101787D01*
Y137532D02*
Y154068D01*
X76591Y137532D02*
X101787D01*
X76591D02*
Y154068D01*
M02*
