G04*
G04 #@! TF.GenerationSoftware,Altium Limited,Altium Designer,23.0.1 (38)*
G04*
G04 Layer_Physical_Order=2*
G04 Layer_Color=16711680*
%FSLAX25Y25*%
%MOIN*%
G70*
G04*
G04 #@! TF.SameCoordinates,7B218C2A-F859-486B-BE56-2060E057D8DB*
G04*
G04*
G04 #@! TF.FilePolarity,Positive*
G04*
G01*
G75*
%ADD22R,0.04724X0.04724*%
%ADD23C,0.04724*%
%ADD26C,0.01575*%
%ADD27R,0.05906X0.05906*%
%ADD28C,0.05906*%
%ADD29R,0.04795X0.04795*%
%ADD30C,0.04795*%
%ADD31C,0.11811*%
%ADD32C,0.05512*%
%ADD33R,0.05906X0.05906*%
%ADD34C,0.02362*%
G36*
X222441Y1969D02*
X1969D01*
Y75065D01*
X3150Y75554D01*
X7137Y71567D01*
X7712Y71125D01*
X8383Y70847D01*
X9102Y70753D01*
X9944D01*
X10079Y70618D01*
Y70152D01*
X10414Y68901D01*
X11062Y67778D01*
X11978Y66862D01*
X12694Y66449D01*
X12716Y66390D01*
Y65210D01*
X12694Y65151D01*
X11978Y64738D01*
X11062Y63822D01*
X10414Y62700D01*
X10079Y61448D01*
Y60152D01*
X10414Y58900D01*
X11062Y57778D01*
X11978Y56862D01*
X13101Y56214D01*
X14352Y55879D01*
X15648D01*
X15918Y55951D01*
X16885Y54984D01*
X16333Y54017D01*
X15455Y54253D01*
X15250D01*
Y51050D01*
X18453D01*
Y51255D01*
X18217Y52133D01*
X17763Y52920D01*
X17390Y53293D01*
X18059Y54295D01*
X18131Y54265D01*
X18850Y54170D01*
X82654D01*
X83373Y54265D01*
X84043Y54542D01*
X84619Y54984D01*
X90932Y61297D01*
X91067Y61261D01*
X92311D01*
X93512Y61583D01*
X94590Y62204D01*
X95469Y63084D01*
X96091Y64161D01*
X96413Y65363D01*
Y66607D01*
X96091Y67809D01*
X95469Y68886D01*
X95316Y69039D01*
X95805Y70220D01*
X100198D01*
X100687Y69039D01*
X100533Y68886D01*
X99912Y67809D01*
X99590Y66607D01*
Y65363D01*
X99912Y64161D01*
X100533Y63084D01*
X101413Y62204D01*
X102490Y61583D01*
X103692Y61261D01*
X104936D01*
X106138Y61583D01*
X107215Y62204D01*
X108095Y63084D01*
X108164Y63205D01*
X113089D01*
X113159Y63084D01*
X114038Y62204D01*
X115115Y61583D01*
X116317Y61261D01*
X117561D01*
X118763Y61583D01*
X119840Y62204D01*
X120720Y63084D01*
X121341Y64161D01*
X121663Y65363D01*
Y66607D01*
X121341Y67809D01*
X120720Y68886D01*
X120566Y69039D01*
X121055Y70220D01*
X125448D01*
X125937Y69039D01*
X125784Y68886D01*
X125162Y67809D01*
X124840Y66607D01*
Y65363D01*
X125162Y64161D01*
X125784Y63084D01*
X126663Y62204D01*
X127741Y61583D01*
X128942Y61261D01*
X130186D01*
X130321Y61297D01*
X136184Y55435D01*
X136759Y54993D01*
X137430Y54715D01*
X138149Y54620D01*
X158072D01*
X161386Y51306D01*
Y50297D01*
X161683Y49186D01*
X162258Y48191D01*
X163071Y47378D01*
X164067Y46803D01*
X165177Y46505D01*
X166327D01*
X167437Y46803D01*
X168433Y47378D01*
X169246Y48191D01*
X169821Y49186D01*
X169965Y49725D01*
X171114Y50345D01*
X171181Y50348D01*
X171299Y50330D01*
X171421Y50165D01*
X171683Y49186D01*
X172258Y48191D01*
X173071Y47378D01*
X174067Y46803D01*
X175177Y46505D01*
X176327D01*
X177437Y46803D01*
X178433Y47378D01*
X179246Y48191D01*
X179821Y49186D01*
X180118Y50297D01*
Y51446D01*
X179821Y52557D01*
X179246Y53552D01*
X178433Y54365D01*
X177437Y54940D01*
X176327Y55238D01*
X175317D01*
X151982Y78572D01*
X152434Y79663D01*
X162357D01*
X163071Y78949D01*
X164067Y78374D01*
X165177Y78077D01*
X166327D01*
X167437Y78374D01*
X168433Y78949D01*
X169246Y79762D01*
X169821Y80758D01*
X169965Y81297D01*
X171114Y81916D01*
X171181Y81920D01*
X171299Y81902D01*
X171421Y81737D01*
X171683Y80758D01*
X172258Y79762D01*
X173071Y78949D01*
X174067Y78374D01*
X175177Y78077D01*
X176327D01*
X177437Y78374D01*
X178433Y78949D01*
X179246Y79762D01*
X179821Y80758D01*
X180118Y81868D01*
Y83018D01*
X179821Y84128D01*
X179246Y85124D01*
X178433Y85937D01*
X177437Y86512D01*
X176327Y86809D01*
X175317D01*
X153560Y108565D01*
X152985Y109007D01*
X152314Y109285D01*
X152507Y110433D01*
X155313D01*
X156033Y110528D01*
X156703Y110806D01*
X157279Y111248D01*
X160205Y114174D01*
X161386Y113684D01*
Y113440D01*
X161683Y112329D01*
X162258Y111334D01*
X163071Y110521D01*
X164067Y109946D01*
X165177Y109648D01*
X166327D01*
X167437Y109946D01*
X168433Y110521D01*
X169246Y111334D01*
X169821Y112329D01*
X169965Y112868D01*
X171114Y113488D01*
X171181Y113491D01*
X171299Y113473D01*
X171421Y113308D01*
X171683Y112329D01*
X172258Y111334D01*
X173071Y110521D01*
X174067Y109946D01*
X175177Y109648D01*
X176327D01*
X177437Y109946D01*
X178433Y110521D01*
X179246Y111334D01*
X179821Y112329D01*
X180118Y113440D01*
Y114589D01*
X179821Y115700D01*
X179246Y116695D01*
X178433Y117508D01*
X177437Y118083D01*
X176327Y118380D01*
X175317D01*
X171432Y122266D01*
X170856Y122707D01*
X170186Y122985D01*
X169466Y123080D01*
X162400D01*
X161681Y122985D01*
X161010Y122707D01*
X160434Y122266D01*
X157531Y119362D01*
X156350Y119851D01*
Y119915D01*
X156135Y120716D01*
X155720Y121434D01*
X155134Y122020D01*
X154416Y122435D01*
X153615Y122650D01*
X152785D01*
X151984Y122435D01*
X151266Y122020D01*
X150680Y121434D01*
X150265Y120716D01*
X150185Y120416D01*
X149305Y119536D01*
X125268D01*
X124816Y120627D01*
X126369Y122180D01*
X126504Y122144D01*
X127748D01*
X128949Y122466D01*
X130027Y123088D01*
X130906Y123968D01*
X131528Y125045D01*
X131765Y125926D01*
X132987D01*
X133224Y125045D01*
X133845Y123968D01*
X134725Y123088D01*
X135802Y122466D01*
X137004Y122144D01*
X138248D01*
X139450Y122466D01*
X140527Y123088D01*
X141407Y123968D01*
X141893Y124810D01*
X141931Y124850D01*
X142448Y125045D01*
X143103D01*
X143242Y125012D01*
X143845Y123968D01*
X144725Y123088D01*
X145802Y122466D01*
X147004Y122144D01*
X148248D01*
X149450Y122466D01*
X150527Y123088D01*
X151407Y123968D01*
X152028Y125045D01*
X152350Y126247D01*
Y127448D01*
X152452Y127543D01*
X153425Y128044D01*
X154435Y127034D01*
X155010Y126593D01*
X155681Y126315D01*
X156400Y126220D01*
X191449D01*
X199120Y118549D01*
Y41551D01*
X192349Y34780D01*
X175600D01*
X174881Y34685D01*
X174210Y34407D01*
X173635Y33966D01*
X168153Y28484D01*
X167711Y27908D01*
X167433Y27238D01*
X167339Y26518D01*
Y23270D01*
X166624Y22556D01*
X166050Y21560D01*
X165752Y20450D01*
Y19300D01*
X166050Y18190D01*
X166624Y17194D01*
X167437Y16381D01*
X168433Y15806D01*
X169543Y15509D01*
X170693D01*
X171803Y15806D01*
X172799Y16381D01*
X173612Y17194D01*
X174187Y18190D01*
X174484Y19300D01*
Y20450D01*
X174187Y21560D01*
X173612Y22556D01*
X172898Y23270D01*
Y25367D01*
X176751Y29220D01*
X193500D01*
X194219Y29315D01*
X194890Y29593D01*
X195466Y30035D01*
X203866Y38434D01*
X204307Y39010D01*
X204585Y39681D01*
X204680Y40400D01*
Y119700D01*
X204585Y120419D01*
X204307Y121090D01*
X203866Y121666D01*
X194565Y130965D01*
X193990Y131407D01*
X193319Y131685D01*
X192600Y131780D01*
X157551D01*
X143765Y145565D01*
X143190Y146007D01*
X142519Y146285D01*
X141800Y146380D01*
X130200D01*
X129481Y146285D01*
X128810Y146007D01*
X128235Y145565D01*
X119049Y136380D01*
X105401D01*
X104995Y137456D01*
X104992Y137561D01*
X121765Y154334D01*
X122207Y154910D01*
X122485Y155581D01*
X122580Y156300D01*
Y167315D01*
X122735Y167584D01*
X122950Y168385D01*
Y169215D01*
X122940Y169249D01*
X123670Y170521D01*
X123762Y170572D01*
X124139Y170630D01*
X156334Y138435D01*
X156910Y137993D01*
X157581Y137715D01*
X158300Y137620D01*
X170566D01*
X171286Y137715D01*
X171956Y137993D01*
X172532Y138435D01*
X175317Y141220D01*
X176327D01*
X177437Y141517D01*
X178433Y142092D01*
X179246Y142905D01*
X179821Y143901D01*
X180118Y145011D01*
Y146161D01*
X179821Y147271D01*
X179246Y148267D01*
X178433Y149080D01*
X177437Y149654D01*
X176327Y149952D01*
X175177D01*
X174067Y149654D01*
X173071Y149080D01*
X172258Y148267D01*
X171683Y147271D01*
X171421Y146292D01*
X171299Y146127D01*
X171181Y146109D01*
X171114Y146112D01*
X169965Y146732D01*
X169821Y147271D01*
X169246Y148267D01*
X168433Y149080D01*
X167437Y149654D01*
X166327Y149952D01*
X165317D01*
X132872Y182397D01*
X133364Y183576D01*
X134122D01*
X135139Y183848D01*
X135853Y183517D01*
X136344Y183123D01*
X136415Y182581D01*
X136693Y181910D01*
X137135Y181334D01*
X151635Y166834D01*
X152210Y166393D01*
X152881Y166115D01*
X153600Y166020D01*
X194078D01*
X194797Y166115D01*
X195467Y166393D01*
X196043Y166834D01*
X196966Y167757D01*
X197407Y168333D01*
X197685Y169003D01*
X197780Y169722D01*
Y184800D01*
X197685Y185519D01*
X197407Y186190D01*
X196966Y186766D01*
X182966Y200765D01*
X182390Y201207D01*
X181719Y201485D01*
X181000Y201580D01*
X171982D01*
Y204653D01*
X172773Y205076D01*
X173163Y205182D01*
X174067Y204660D01*
X175177Y204363D01*
X176327D01*
X177437Y204660D01*
X178433Y205235D01*
X179246Y206048D01*
X179821Y207043D01*
X180118Y208154D01*
Y209303D01*
X179821Y210414D01*
X179246Y211409D01*
X178433Y212222D01*
X177437Y212797D01*
X176327Y213095D01*
X175317D01*
X172546Y215865D01*
X171970Y216307D01*
X171300Y216585D01*
X170581Y216680D01*
X156800D01*
X156081Y216585D01*
X155410Y216307D01*
X154834Y215865D01*
X146249Y207280D01*
X110551D01*
X107923Y209908D01*
X108704Y210798D01*
X108710Y210793D01*
X109381Y210515D01*
X110100Y210420D01*
X128400D01*
X129119Y210515D01*
X129790Y210793D01*
X130366Y211234D01*
X132743Y213612D01*
X132878Y213576D01*
X134122D01*
X135324Y213898D01*
X136401Y214520D01*
X137280Y215399D01*
X137350Y215520D01*
X140200D01*
X140919Y215615D01*
X141590Y215893D01*
X141756Y216020D01*
X143650D01*
X143719Y215899D01*
X144599Y215019D01*
X145676Y214398D01*
X146878Y214076D01*
X148122D01*
X149324Y214398D01*
X150401Y215019D01*
X151280Y215899D01*
X151902Y216976D01*
X152224Y218178D01*
Y219422D01*
X151902Y220623D01*
X151280Y221701D01*
X150401Y222581D01*
X149324Y223202D01*
X148122Y223524D01*
X146878D01*
X145676Y223202D01*
X144599Y222581D01*
X143719Y221701D01*
X143650Y221580D01*
X140700D01*
X139981Y221485D01*
X139310Y221207D01*
X139144Y221080D01*
X137350D01*
X137280Y221201D01*
X136401Y222080D01*
X135324Y222702D01*
X134122Y223024D01*
X132878D01*
X131676Y222702D01*
X130599Y222080D01*
X129719Y221201D01*
X129098Y220124D01*
X128776Y218922D01*
Y217678D01*
X128812Y217543D01*
X127249Y215980D01*
X117233D01*
X116744Y217161D01*
X116763Y217180D01*
X117218Y217967D01*
X117453Y218845D01*
Y219050D01*
X114000D01*
X110547D01*
Y218845D01*
X110727Y218174D01*
X110268Y217728D01*
X109745Y217486D01*
X108849Y218382D01*
X108921Y218652D01*
Y219948D01*
X108586Y221199D01*
X107938Y222322D01*
X107022Y223238D01*
X105900Y223886D01*
X104648Y224221D01*
X103352D01*
X102101Y223886D01*
X100978Y223238D01*
X100062Y222322D01*
X99649Y221606D01*
X99590Y221584D01*
X98410D01*
X98351Y221606D01*
X97938Y222322D01*
X97022Y223238D01*
X95899Y223886D01*
X94648Y224221D01*
X94523D01*
X94033Y225402D01*
X98155Y229524D01*
X118004D01*
X118723Y229619D01*
X119394Y229897D01*
X119969Y230339D01*
X120411Y230914D01*
X120689Y231585D01*
X120689Y231586D01*
X121082Y231979D01*
X121548D01*
X122800Y232314D01*
X123922Y232962D01*
X124838Y233878D01*
X125486Y235000D01*
X125821Y236252D01*
Y237548D01*
X125486Y238800D01*
X124838Y239922D01*
X123922Y240838D01*
X122800Y241486D01*
X121548Y241821D01*
X120252D01*
X119000Y241486D01*
X117878Y240838D01*
X116962Y239922D01*
X116314Y238800D01*
X115979Y237548D01*
Y236252D01*
X116041Y236021D01*
X115322Y235084D01*
X97004D01*
X96285Y234989D01*
X95614Y234711D01*
X95038Y234269D01*
X84918Y224149D01*
X84648Y224221D01*
X83352D01*
X83082Y224149D01*
X77166Y230065D01*
X76590Y230507D01*
X75919Y230785D01*
X75200Y230880D01*
X24300D01*
X23581Y230785D01*
X22910Y230507D01*
X22334Y230065D01*
X13200Y220931D01*
X12758Y220355D01*
X12480Y219685D01*
X12385Y218965D01*
Y217821D01*
X11952D01*
X10701Y217486D01*
X9578Y216838D01*
X8662Y215922D01*
X8014Y214799D01*
X7679Y213548D01*
Y212252D01*
X8014Y211000D01*
X8662Y209878D01*
X9578Y208962D01*
X10701Y208314D01*
X11952Y207979D01*
X13248D01*
X14500Y208314D01*
X15622Y208962D01*
X16538Y209878D01*
X17186Y211000D01*
X17521Y212252D01*
Y213548D01*
X17197Y214758D01*
X17572Y215247D01*
X17850Y215917D01*
X17945Y216637D01*
Y217814D01*
X25451Y225320D01*
X74049D01*
X79151Y220218D01*
X79079Y219948D01*
Y218652D01*
X79414Y217401D01*
X80062Y216278D01*
X80978Y215362D01*
X82100Y214714D01*
X83352Y214379D01*
X84648D01*
X85900Y214714D01*
X87022Y215362D01*
X87938Y216278D01*
X88351Y216993D01*
X88410Y217016D01*
X89590D01*
X89649Y216993D01*
X90062Y216278D01*
X90978Y215362D01*
X92101Y214714D01*
X93352Y214379D01*
X94648D01*
X95899Y214714D01*
X97022Y215362D01*
X97938Y216278D01*
X98351Y216993D01*
X98410Y217016D01*
X99590D01*
X99649Y216993D01*
X100062Y216278D01*
X100978Y215362D01*
X102101Y214714D01*
X103352Y214379D01*
X104648D01*
X104918Y214451D01*
X105977Y213392D01*
X105196Y212502D01*
X105190Y212507D01*
X104519Y212785D01*
X103800Y212880D01*
X69431D01*
X68942Y214061D01*
X69280Y214399D01*
X69902Y215476D01*
X70224Y216678D01*
Y217922D01*
X69902Y219124D01*
X69280Y220201D01*
X68401Y221080D01*
X67324Y221702D01*
X66122Y222024D01*
X64878D01*
X63676Y221702D01*
X62599Y221080D01*
X61720Y220201D01*
X61098Y219124D01*
X60776Y217922D01*
Y216678D01*
X60941Y216060D01*
X59882Y215449D01*
X56065Y219266D01*
X55490Y219707D01*
X54819Y219985D01*
X54100Y220080D01*
X39350D01*
X39281Y220201D01*
X38401Y221080D01*
X37324Y221702D01*
X36122Y222024D01*
X34878D01*
X33676Y221702D01*
X32599Y221080D01*
X31719Y220201D01*
X31098Y219124D01*
X30776Y217922D01*
Y216678D01*
X31098Y215476D01*
X31719Y214399D01*
X31989Y214130D01*
X31581Y212885D01*
X30910Y212607D01*
X30334Y212165D01*
X15990Y197821D01*
X7679D01*
Y187979D01*
X17521D01*
Y192057D01*
X17568Y192063D01*
X18238Y192341D01*
X18814Y192783D01*
X29681Y203650D01*
X30538Y203276D01*
X30776Y203074D01*
Y201928D01*
X31098Y200726D01*
X31719Y199649D01*
X32599Y198769D01*
X33676Y198148D01*
X34878Y197826D01*
X36122D01*
X36257Y197862D01*
X61884Y172234D01*
X62460Y171793D01*
X63131Y171515D01*
X63850Y171420D01*
X116382D01*
X116994Y170239D01*
X116865Y170016D01*
X116650Y169215D01*
Y168385D01*
X116865Y167584D01*
X117020Y167315D01*
Y157451D01*
X102160Y142591D01*
X101627Y142677D01*
X101219Y143940D01*
X101322Y144043D01*
X101699Y144695D01*
X101894Y145423D01*
Y145550D01*
X96169D01*
Y145423D01*
X96364Y144695D01*
X96741Y144043D01*
X97274Y143510D01*
X97359Y143461D01*
X97042Y142280D01*
X83677D01*
Y150131D01*
X75016D01*
Y148580D01*
X66839D01*
X66570Y148735D01*
X65769Y148950D01*
X64940D01*
X64139Y148735D01*
X63420Y148320D01*
X62834Y147734D01*
X62419Y147016D01*
X62205Y146215D01*
Y145385D01*
X62419Y144584D01*
X62834Y143866D01*
X63239Y143461D01*
X63078Y142717D01*
X62812Y142280D01*
X56067D01*
X56033Y142294D01*
X55313Y142388D01*
X28061D01*
X28015Y143550D01*
X28318Y143632D01*
X28816Y143765D01*
X29534Y144180D01*
X30120Y144766D01*
X30535Y145484D01*
X30750Y146285D01*
Y147115D01*
X30535Y147916D01*
X30120Y148634D01*
X29534Y149220D01*
X28816Y149635D01*
X28516Y149715D01*
X26833Y151399D01*
X27322Y152579D01*
X36039D01*
Y162422D01*
X26197D01*
Y153704D01*
X25016Y153215D01*
X23480Y154751D01*
Y167649D01*
X26551Y170720D01*
X32249D01*
X34885Y168084D01*
X34965Y167784D01*
X35380Y167066D01*
X35966Y166480D01*
X36684Y166065D01*
X37485Y165850D01*
X38315D01*
X39116Y166065D01*
X39834Y166480D01*
X40420Y167066D01*
X40835Y167784D01*
X41050Y168585D01*
Y169415D01*
X40835Y170216D01*
X40420Y170934D01*
X39834Y171520D01*
X39116Y171935D01*
X38816Y172015D01*
X35366Y175466D01*
X34790Y175907D01*
X34119Y176185D01*
X33400Y176280D01*
X25400D01*
X24681Y176185D01*
X24010Y175907D01*
X23435Y175466D01*
X18734Y170765D01*
X18293Y170190D01*
X18015Y169519D01*
X17920Y168800D01*
Y153600D01*
X18015Y152881D01*
X18293Y152210D01*
X18734Y151635D01*
X24585Y145784D01*
X24665Y145484D01*
X25080Y144766D01*
X25666Y144180D01*
X26384Y143765D01*
X26882Y143632D01*
X27185Y143550D01*
X27139Y142388D01*
X7735D01*
X7016Y142294D01*
X6788Y142199D01*
X6681Y142185D01*
X6010Y141907D01*
X5435Y141465D01*
X3150Y139181D01*
X1969Y139670D01*
Y257874D01*
X222441D01*
Y1969D01*
D02*
G37*
G36*
X148802Y132668D02*
X148301Y131695D01*
X148206Y131593D01*
X147004D01*
X145802Y131271D01*
X145262Y130959D01*
X141875Y134346D01*
X141299Y134788D01*
X140629Y135065D01*
X139909Y135160D01*
X135343D01*
X134624Y135065D01*
X133953Y134788D01*
X133886Y134736D01*
X132214D01*
X131495Y134642D01*
X130824Y134364D01*
X130249Y133922D01*
X127883Y131557D01*
X127748Y131593D01*
X126504D01*
X125302Y131271D01*
X124225Y130649D01*
X123345Y129770D01*
X122724Y128692D01*
X122402Y127491D01*
Y126247D01*
X122438Y126111D01*
X119406Y123080D01*
X109396D01*
X108889Y124243D01*
X109344Y125030D01*
X109579Y125908D01*
Y126113D01*
X106126D01*
Y126613D01*
X109579D01*
Y126818D01*
X109344Y127696D01*
X108889Y128483D01*
X108246Y129126D01*
X107459Y129580D01*
X107239Y129639D01*
X107395Y130820D01*
X120200D01*
X120919Y130915D01*
X121590Y131193D01*
X122166Y131634D01*
X131351Y140820D01*
X140649D01*
X148802Y132668D01*
D02*
G37*
G36*
X54703Y136815D02*
X55422Y136720D01*
X62099D01*
X62505Y135644D01*
X62508Y135539D01*
X57757Y130788D01*
X57622Y130824D01*
X56378D01*
X55176Y130502D01*
X54099Y129880D01*
X53219Y129001D01*
X52597Y127924D01*
X52276Y126722D01*
Y125478D01*
X52597Y124276D01*
X52985Y123606D01*
X52040Y122880D01*
X49814Y125106D01*
X49850Y125241D01*
Y126485D01*
X49528Y127687D01*
X48906Y128764D01*
X48027Y129643D01*
X46949Y130265D01*
X45748Y130587D01*
X44504D01*
X43302Y130265D01*
X42225Y129643D01*
X41346Y128764D01*
X40724Y127687D01*
X40402Y126485D01*
Y125241D01*
X40604Y124487D01*
X39545Y123875D01*
X38314Y125106D01*
X38350Y125241D01*
Y126485D01*
X38028Y127687D01*
X37407Y128764D01*
X36527Y129643D01*
X35449Y130265D01*
X34248Y130587D01*
X33004D01*
X31802Y130265D01*
X30725Y129643D01*
X29845Y128764D01*
X29224Y127687D01*
X28902Y126485D01*
Y125241D01*
X29224Y124039D01*
X29845Y122962D01*
X30725Y122082D01*
X31802Y121461D01*
X33004Y121139D01*
X34248D01*
X34383Y121175D01*
X49831Y105727D01*
X49874Y105356D01*
X49638Y104250D01*
X49398Y104066D01*
X45883Y100551D01*
X45748Y100587D01*
X44504D01*
X43302Y100265D01*
X42225Y99643D01*
X41346Y98764D01*
X40724Y97686D01*
X40402Y96485D01*
Y95241D01*
X40604Y94487D01*
X39545Y93875D01*
X38314Y95106D01*
X38350Y95241D01*
Y96485D01*
X38028Y97686D01*
X37407Y98764D01*
X36527Y99643D01*
X35449Y100265D01*
X34248Y100587D01*
X33004D01*
X32869Y100551D01*
X17654Y115766D01*
X17079Y116207D01*
X16408Y116485D01*
X15921Y116549D01*
Y118721D01*
X6980D01*
Y121496D01*
X8161Y121812D01*
X8237Y121680D01*
X8880Y121037D01*
X9667Y120582D01*
X10545Y120347D01*
X10750D01*
Y123800D01*
Y127253D01*
X10545D01*
X9667Y127017D01*
X8880Y126563D01*
X8237Y125920D01*
X8161Y125788D01*
X6980Y126104D01*
Y129190D01*
X7502Y129541D01*
X8161Y129757D01*
X9100Y129214D01*
X10352Y128879D01*
X11648D01*
X12900Y129214D01*
X14022Y129862D01*
X14938Y130778D01*
X15586Y131901D01*
X15921Y133152D01*
Y134448D01*
X15600Y135648D01*
X15589Y135704D01*
X16298Y136829D01*
X54669D01*
X54703Y136815D01*
D02*
G37*
G36*
X28938Y96620D02*
X28902Y96485D01*
Y95241D01*
X29224Y94039D01*
X29845Y92962D01*
X30725Y92083D01*
X31802Y91461D01*
X33004Y91139D01*
X34248D01*
X34383Y91175D01*
X37523Y88034D01*
X38099Y87593D01*
X38770Y87315D01*
X39489Y87220D01*
X50900D01*
X51619Y87315D01*
X52290Y87593D01*
X52865Y88034D01*
X56243Y91412D01*
X56378Y91376D01*
X57622D01*
X58824Y91698D01*
X59901Y92320D01*
X60780Y93199D01*
X61402Y94276D01*
X61724Y95478D01*
Y96722D01*
X61402Y97923D01*
X61278Y98139D01*
X61960Y99320D01*
X71205D01*
Y91442D01*
X77116D01*
X91597Y76961D01*
X91108Y75780D01*
X87800D01*
X87081Y75685D01*
X86410Y75407D01*
X85834Y74966D01*
X77823Y66954D01*
X76642Y67440D01*
X76406Y68318D01*
X75952Y69105D01*
X75309Y69748D01*
X74522Y70202D01*
X73644Y70438D01*
X73439D01*
Y66985D01*
X73189D01*
Y66735D01*
X69736D01*
Y66530D01*
X69972Y65652D01*
X70255Y65161D01*
X69906Y64278D01*
X69641Y63980D01*
X68431D01*
X67784Y64940D01*
X67795Y65161D01*
X68110Y66337D01*
Y67633D01*
X67775Y68884D01*
X67127Y70007D01*
X66211Y70923D01*
X65088Y71571D01*
X63837Y71906D01*
X62541D01*
X61290Y71571D01*
X60167Y70923D01*
X59251Y70007D01*
X58838Y69292D01*
X58779Y69269D01*
X57599D01*
X57540Y69292D01*
X57127Y70007D01*
X56211Y70923D01*
X55089Y71571D01*
X53837Y71906D01*
X52541D01*
X51289Y71571D01*
X50167Y70923D01*
X49251Y70007D01*
X48838Y69292D01*
X48779Y69269D01*
X47599D01*
X47540Y69292D01*
X47127Y70007D01*
X46211Y70923D01*
X45088Y71571D01*
X43837Y71906D01*
X42541D01*
X41289Y71571D01*
X40167Y70923D01*
X39251Y70007D01*
X38603Y68884D01*
X38268Y67633D01*
Y66337D01*
X38603Y65086D01*
X39251Y63963D01*
X40167Y63047D01*
X41289Y62399D01*
X42541Y62064D01*
X43837D01*
X45088Y62399D01*
X46211Y63047D01*
X47127Y63963D01*
X47540Y64679D01*
X47599Y64701D01*
X48779D01*
X48838Y64679D01*
X49251Y63963D01*
X50167Y63047D01*
X51289Y62399D01*
X52541Y62064D01*
X53837D01*
X54107Y62136D01*
X55423Y60821D01*
X54971Y59729D01*
X21031D01*
X19921Y60152D01*
Y61448D01*
X19586Y62700D01*
X18938Y63822D01*
X18022Y64738D01*
X17307Y65151D01*
X17284Y65210D01*
Y66390D01*
X17307Y66449D01*
X18022Y66862D01*
X18938Y67778D01*
X19586Y68901D01*
X19921Y70152D01*
Y71448D01*
X19586Y72699D01*
X18938Y73822D01*
X18022Y74738D01*
X16899Y75386D01*
X15648Y75721D01*
X14352D01*
X13158Y75401D01*
X13061Y75498D01*
X12486Y75940D01*
X11815Y76217D01*
X11096Y76312D01*
X10254D01*
X6980Y79586D01*
Y108879D01*
X15921D01*
Y108879D01*
X16457Y109101D01*
X28938Y96620D01*
D02*
G37*
%LPC*%
G36*
X104645Y243040D02*
X104518D01*
Y240428D01*
X107130D01*
Y240555D01*
X106935Y241283D01*
X106558Y241935D01*
X106025Y242468D01*
X105373Y242845D01*
X104645Y243040D01*
D02*
G37*
G36*
X104018D02*
X103891D01*
X103163Y242845D01*
X102510Y242468D01*
X101978Y241935D01*
X101601Y241283D01*
X101406Y240555D01*
Y240428D01*
X104018D01*
Y243040D01*
D02*
G37*
G36*
X65275D02*
X65148D01*
Y240428D01*
X67760D01*
Y240555D01*
X67565Y241283D01*
X67188Y241935D01*
X66655Y242468D01*
X66003Y242845D01*
X65275Y243040D01*
D02*
G37*
G36*
X64648D02*
X64521D01*
X63793Y242845D01*
X63140Y242468D01*
X62608Y241935D01*
X62231Y241283D01*
X62036Y240555D01*
Y240428D01*
X64648D01*
Y243040D01*
D02*
G37*
G36*
X211405Y253937D02*
X209854D01*
X208333Y253634D01*
X206900Y253041D01*
X205610Y252179D01*
X204514Y251082D01*
X203652Y249793D01*
X203059Y248360D01*
X202756Y246838D01*
Y245287D01*
X203059Y243766D01*
X203652Y242333D01*
X204514Y241044D01*
X205610Y239947D01*
X206900Y239085D01*
X208333Y238492D01*
X209854Y238189D01*
X211405D01*
X212927Y238492D01*
X214360Y239085D01*
X215649Y239947D01*
X216746Y241044D01*
X217608Y242333D01*
X218201Y243766D01*
X218504Y245287D01*
Y246838D01*
X218201Y248360D01*
X217608Y249793D01*
X216746Y251082D01*
X215649Y252179D01*
X214360Y253041D01*
X212927Y253634D01*
X211405Y253937D01*
D02*
G37*
G36*
X14555D02*
X13004D01*
X11483Y253634D01*
X10050Y253041D01*
X8760Y252179D01*
X7663Y251082D01*
X6802Y249793D01*
X6208Y248360D01*
X5906Y246838D01*
Y245287D01*
X6208Y243766D01*
X6802Y242333D01*
X7663Y241044D01*
X8760Y239947D01*
X10050Y239085D01*
X11483Y238492D01*
X13004Y238189D01*
X14555D01*
X16076Y238492D01*
X17509Y239085D01*
X18799Y239947D01*
X19896Y241044D01*
X20757Y242333D01*
X21351Y243766D01*
X21654Y245287D01*
Y246838D01*
X21351Y248360D01*
X20757Y249793D01*
X19896Y251082D01*
X18799Y252179D01*
X17509Y253041D01*
X16076Y253634D01*
X14555Y253937D01*
D02*
G37*
G36*
X88913Y244509D02*
X80252D01*
Y239778D01*
X78253Y237780D01*
X68145D01*
X67500Y238961D01*
X67565Y239073D01*
X67760Y239801D01*
Y239928D01*
X62036D01*
Y239801D01*
X62231Y239073D01*
X62296Y238961D01*
X61650Y237780D01*
X51542D01*
X49543Y239778D01*
Y244509D01*
X40882D01*
Y235847D01*
X45612D01*
X48425Y233034D01*
X49001Y232593D01*
X49671Y232315D01*
X50391Y232220D01*
X79405D01*
X80124Y232315D01*
X80794Y232593D01*
X81370Y233034D01*
X84183Y235847D01*
X88913D01*
Y244509D01*
D02*
G37*
G36*
X188366Y246166D02*
X179634D01*
Y237434D01*
X188366D01*
Y246166D01*
D02*
G37*
G36*
X174575D02*
X173425D01*
X172315Y245869D01*
X171319Y245294D01*
X170506Y244481D01*
X169931Y243485D01*
X169634Y242375D01*
Y241225D01*
X169931Y240115D01*
X170506Y239119D01*
X171319Y238306D01*
X172315Y237731D01*
X173425Y237434D01*
X174575D01*
X175685Y237731D01*
X176681Y238306D01*
X177494Y239119D01*
X178069Y240115D01*
X178366Y241225D01*
Y242375D01*
X178069Y243485D01*
X177494Y244481D01*
X176681Y245294D01*
X175685Y245869D01*
X174575Y246166D01*
D02*
G37*
G36*
X164575D02*
X163425D01*
X162315Y245869D01*
X161319Y245294D01*
X160506Y244481D01*
X159931Y243485D01*
X159634Y242375D01*
Y241225D01*
X159931Y240115D01*
X160506Y239119D01*
X161319Y238306D01*
X162315Y237731D01*
X163425Y237434D01*
X164575D01*
X165685Y237731D01*
X166681Y238306D01*
X167494Y239119D01*
X168069Y240115D01*
X168366Y241225D01*
Y242375D01*
X168069Y243485D01*
X167494Y244481D01*
X166681Y245294D01*
X165685Y245869D01*
X164575Y246166D01*
D02*
G37*
G36*
X107130Y239928D02*
X104518D01*
Y237316D01*
X104645D01*
X105373Y237511D01*
X106025Y237888D01*
X106558Y238421D01*
X106935Y239073D01*
X107130Y239801D01*
Y239928D01*
D02*
G37*
G36*
X104018D02*
X101406D01*
Y239801D01*
X101601Y239073D01*
X101978Y238421D01*
X102510Y237888D01*
X103163Y237511D01*
X103891Y237316D01*
X104018D01*
Y239928D01*
D02*
G37*
G36*
X131355Y240353D02*
X131150D01*
Y237150D01*
X134353D01*
Y237355D01*
X134117Y238233D01*
X133663Y239020D01*
X133020Y239663D01*
X132233Y240118D01*
X131355Y240353D01*
D02*
G37*
G36*
X130650D02*
X130445D01*
X129567Y240118D01*
X128780Y239663D01*
X128137Y239020D01*
X127682Y238233D01*
X127447Y237355D01*
Y237150D01*
X130650D01*
Y240353D01*
D02*
G37*
G36*
X134353Y236650D02*
X131150D01*
Y233447D01*
X131355D01*
X132233Y233682D01*
X133020Y234137D01*
X133663Y234780D01*
X134117Y235567D01*
X134353Y236445D01*
Y236650D01*
D02*
G37*
G36*
X130650D02*
X127447D01*
Y236445D01*
X127682Y235567D01*
X128137Y234780D01*
X128780Y234137D01*
X129567Y233682D01*
X130445Y233447D01*
X130650D01*
Y236650D01*
D02*
G37*
G36*
X145821Y241821D02*
X135979D01*
Y231979D01*
X145821D01*
Y241821D01*
D02*
G37*
G36*
X114455Y222753D02*
X114250D01*
Y219550D01*
X117453D01*
Y219755D01*
X117218Y220633D01*
X116763Y221420D01*
X116120Y222063D01*
X115333Y222517D01*
X114455Y222753D01*
D02*
G37*
G36*
X113750D02*
X113545D01*
X112667Y222517D01*
X111880Y222063D01*
X111237Y221420D01*
X110783Y220633D01*
X110547Y219755D01*
Y219550D01*
X113750D01*
Y222753D01*
D02*
G37*
G36*
X190118Y213095D02*
X181386D01*
Y204363D01*
X190118D01*
Y213095D01*
D02*
G37*
G36*
X13055Y206353D02*
X12850D01*
Y203150D01*
X16053D01*
Y203355D01*
X15817Y204233D01*
X15363Y205020D01*
X14720Y205663D01*
X13933Y206118D01*
X13055Y206353D01*
D02*
G37*
G36*
X12350D02*
X12145D01*
X11267Y206118D01*
X10480Y205663D01*
X9837Y205020D01*
X9383Y204233D01*
X9147Y203355D01*
Y203150D01*
X12350D01*
Y206353D01*
D02*
G37*
G36*
X16053Y202650D02*
X12850D01*
Y199447D01*
X13055D01*
X13933Y199682D01*
X14720Y200137D01*
X15363Y200780D01*
X15817Y201567D01*
X16053Y202445D01*
Y202650D01*
D02*
G37*
G36*
X12350D02*
X9147D01*
Y202445D01*
X9383Y201567D01*
X9837Y200780D01*
X10480Y200137D01*
X11267Y199682D01*
X12145Y199447D01*
X12350D01*
Y202650D01*
D02*
G37*
G36*
X36122Y192524D02*
X34878D01*
X33676Y192202D01*
X32599Y191580D01*
X31719Y190701D01*
X31098Y189624D01*
X30776Y188422D01*
Y187178D01*
X31098Y185976D01*
X31719Y184899D01*
X32599Y184019D01*
X33676Y183398D01*
X34878Y183076D01*
X36122D01*
X37324Y183398D01*
X38401Y184019D01*
X39281Y184899D01*
X39902Y185976D01*
X40224Y187178D01*
Y188422D01*
X39902Y189624D01*
X39281Y190701D01*
X38401Y191580D01*
X37324Y192202D01*
X36122Y192524D01*
D02*
G37*
G36*
X99251Y167662D02*
X99124D01*
Y165050D01*
X101736D01*
Y165177D01*
X101541Y165905D01*
X101164Y166557D01*
X100631Y167090D01*
X99979Y167467D01*
X99251Y167662D01*
D02*
G37*
G36*
X98624D02*
X98497D01*
X97769Y167467D01*
X97117Y167090D01*
X96584Y166557D01*
X96207Y165905D01*
X96012Y165177D01*
Y165050D01*
X98624D01*
Y167662D01*
D02*
G37*
G36*
X101736Y164550D02*
X99124D01*
Y161938D01*
X99251D01*
X99979Y162133D01*
X100631Y162510D01*
X101164Y163043D01*
X101541Y163695D01*
X101736Y164423D01*
Y164550D01*
D02*
G37*
G36*
X98624D02*
X96012D01*
Y164423D01*
X96207Y163695D01*
X96584Y163043D01*
X97117Y162510D01*
X97769Y162133D01*
X98497Y161938D01*
X98624D01*
Y164550D01*
D02*
G37*
G36*
X83520Y169131D02*
X74858D01*
Y160469D01*
X83520D01*
Y169131D01*
D02*
G37*
G36*
X61766Y162422D02*
X60470D01*
X59219Y162087D01*
X58096Y161439D01*
X57180Y160522D01*
X56767Y159807D01*
X56708Y159784D01*
X55529D01*
X55469Y159807D01*
X55056Y160522D01*
X54140Y161439D01*
X53018Y162087D01*
X51766Y162422D01*
X50470D01*
X49219Y162087D01*
X48096Y161439D01*
X47180Y160522D01*
X46532Y159400D01*
X46197Y158149D01*
Y156853D01*
X46532Y155601D01*
X47180Y154479D01*
X48096Y153563D01*
X49219Y152915D01*
X50470Y152579D01*
X51766D01*
X53018Y152915D01*
X54140Y153563D01*
X55056Y154479D01*
X55469Y155194D01*
X55529Y155217D01*
X56708D01*
X56767Y155194D01*
X57180Y154479D01*
X58096Y153563D01*
X59219Y152915D01*
X60470Y152579D01*
X61766D01*
X63018Y152915D01*
X64140Y153563D01*
X65056Y154479D01*
X65704Y155601D01*
X66039Y156853D01*
Y158149D01*
X65704Y159400D01*
X65056Y160522D01*
X64140Y161439D01*
X63018Y162087D01*
X61766Y162422D01*
D02*
G37*
G36*
X41573Y160953D02*
X41368D01*
Y157751D01*
X44571D01*
Y157955D01*
X44336Y158834D01*
X43881Y159621D01*
X43238Y160264D01*
X42451Y160718D01*
X41573Y160953D01*
D02*
G37*
G36*
X40868D02*
X40664D01*
X39786Y160718D01*
X38998Y160264D01*
X38355Y159621D01*
X37901Y158834D01*
X37665Y157955D01*
Y157751D01*
X40868D01*
Y160953D01*
D02*
G37*
G36*
X44571Y157251D02*
X41368D01*
Y154048D01*
X41573D01*
X42451Y154283D01*
X43238Y154738D01*
X43881Y155381D01*
X44336Y156168D01*
X44571Y157046D01*
Y157251D01*
D02*
G37*
G36*
X40868D02*
X37665D01*
Y157046D01*
X37901Y156168D01*
X38355Y155381D01*
X38998Y154738D01*
X39786Y154283D01*
X40664Y154048D01*
X40868D01*
Y157251D01*
D02*
G37*
G36*
X99408Y148662D02*
X99282D01*
Y146050D01*
X101894D01*
Y146177D01*
X101699Y146905D01*
X101322Y147557D01*
X100789Y148090D01*
X100136Y148467D01*
X99408Y148662D01*
D02*
G37*
G36*
X98782D02*
X98655D01*
X97927Y148467D01*
X97274Y148090D01*
X96741Y147557D01*
X96364Y146905D01*
X96169Y146177D01*
Y146050D01*
X98782D01*
Y148662D01*
D02*
G37*
G36*
X190118Y149952D02*
X181386D01*
Y141220D01*
X190118D01*
Y149952D01*
D02*
G37*
G36*
Y118380D02*
X181386D01*
Y109648D01*
X190118D01*
Y118380D01*
D02*
G37*
G36*
Y86809D02*
X181386D01*
Y78077D01*
X190118D01*
Y86809D01*
D02*
G37*
G36*
X14750Y54253D02*
X14545D01*
X13667Y54017D01*
X12880Y53563D01*
X12237Y52920D01*
X11783Y52133D01*
X11547Y51255D01*
Y51050D01*
X14750D01*
Y54253D01*
D02*
G37*
G36*
X18453Y50550D02*
X15250D01*
Y47347D01*
X15455D01*
X16333Y47583D01*
X17120Y48037D01*
X17763Y48680D01*
X18217Y49467D01*
X18453Y50345D01*
Y50550D01*
D02*
G37*
G36*
X14750D02*
X11547D01*
Y50345D01*
X11783Y49467D01*
X12237Y48680D01*
X12880Y48037D01*
X13667Y47583D01*
X14545Y47347D01*
X14750D01*
Y50550D01*
D02*
G37*
G36*
X190118Y55238D02*
X181386D01*
Y46505D01*
X190118D01*
Y55238D01*
D02*
G37*
G36*
X53837Y41906D02*
X52541D01*
X51289Y41571D01*
X50167Y40923D01*
X49291Y40047D01*
X49105Y40056D01*
X48110Y40393D01*
Y41906D01*
X38268D01*
Y32064D01*
X48110D01*
Y33577D01*
X49105Y33914D01*
X49291Y33923D01*
X50167Y33047D01*
X51289Y32399D01*
X52541Y32064D01*
X53837D01*
X54107Y32136D01*
X64408Y21835D01*
X64984Y21393D01*
X65655Y21115D01*
X66374Y21020D01*
X79504D01*
X80223Y21115D01*
X80894Y21393D01*
X81470Y21835D01*
X90932Y31297D01*
X91067Y31261D01*
X92311D01*
X93512Y31583D01*
X94590Y32204D01*
X95469Y33084D01*
X95539Y33205D01*
X100464D01*
X100533Y33084D01*
X101413Y32204D01*
X102490Y31583D01*
X103692Y31261D01*
X104936D01*
X106138Y31583D01*
X107215Y32204D01*
X108095Y33084D01*
X108716Y34161D01*
X109038Y35363D01*
Y36607D01*
X108716Y37809D01*
X108095Y38886D01*
X107215Y39766D01*
X106138Y40387D01*
X104936Y40709D01*
X103692D01*
X102490Y40387D01*
X101413Y39766D01*
X100533Y38886D01*
X100464Y38765D01*
X95539D01*
X95469Y38886D01*
X94590Y39766D01*
X93512Y40387D01*
X92311Y40709D01*
X91067D01*
X89865Y40387D01*
X88788Y39766D01*
X87909Y38886D01*
X87287Y37809D01*
X86965Y36607D01*
Y35363D01*
X87001Y35228D01*
X78353Y26580D01*
X67525D01*
X61375Y32730D01*
X61617Y33253D01*
X62063Y33712D01*
X62734Y33532D01*
X62939D01*
Y36735D01*
X59736D01*
Y36530D01*
X59916Y35859D01*
X59457Y35414D01*
X58934Y35171D01*
X58038Y36067D01*
X58110Y36337D01*
Y37633D01*
X57775Y38884D01*
X57127Y40007D01*
X56211Y40923D01*
X55089Y41571D01*
X53837Y41906D01*
D02*
G37*
G36*
X142811Y40709D02*
X141567D01*
X140366Y40387D01*
X139288Y39766D01*
X138409Y38886D01*
X138339Y38765D01*
X133414D01*
X133344Y38886D01*
X132465Y39766D01*
X131388Y40387D01*
X130186Y40709D01*
X128942D01*
X127741Y40387D01*
X126663Y39766D01*
X125784Y38886D01*
X125714Y38765D01*
X120789D01*
X120720Y38886D01*
X119840Y39766D01*
X118763Y40387D01*
X117561Y40709D01*
X116317D01*
X115115Y40387D01*
X114038Y39766D01*
X113159Y38886D01*
X112537Y37809D01*
X112215Y36607D01*
Y35363D01*
X112537Y34161D01*
X113159Y33084D01*
X114038Y32204D01*
X115115Y31583D01*
X116317Y31261D01*
X117561D01*
X118763Y31583D01*
X119840Y32204D01*
X120720Y33084D01*
X120789Y33205D01*
X125714D01*
X125784Y33084D01*
X126663Y32204D01*
X127741Y31583D01*
X128942Y31261D01*
X130186D01*
X131388Y31583D01*
X132465Y32204D01*
X133344Y33084D01*
X133414Y33205D01*
X138339D01*
X138409Y33084D01*
X139288Y32204D01*
X140366Y31583D01*
X141567Y31261D01*
X142811D01*
X144013Y31583D01*
X145090Y32204D01*
X145969Y33084D01*
X146591Y34161D01*
X146913Y35363D01*
Y36607D01*
X146591Y37809D01*
X145969Y38886D01*
X145090Y39766D01*
X144013Y40387D01*
X142811Y40709D01*
D02*
G37*
G36*
X63644Y40438D02*
X63439D01*
Y37235D01*
X66642D01*
Y37440D01*
X66406Y38318D01*
X65952Y39105D01*
X65309Y39748D01*
X64522Y40202D01*
X63644Y40438D01*
D02*
G37*
G36*
X62939D02*
X62734D01*
X61856Y40202D01*
X61069Y39748D01*
X60426Y39105D01*
X59972Y38318D01*
X59736Y37440D01*
Y37235D01*
X62939D01*
Y40438D01*
D02*
G37*
G36*
X19921Y45721D02*
X10079D01*
Y35879D01*
X19921D01*
Y45721D01*
D02*
G37*
G36*
X66642Y36735D02*
X63439D01*
Y33532D01*
X63644D01*
X64522Y33768D01*
X65309Y34222D01*
X65952Y34865D01*
X66406Y35652D01*
X66642Y36530D01*
Y36735D01*
D02*
G37*
G36*
X73837Y41906D02*
X72541D01*
X71289Y41571D01*
X70167Y40923D01*
X69251Y40007D01*
X68603Y38884D01*
X68268Y37633D01*
Y36337D01*
X68603Y35085D01*
X69251Y33963D01*
X70167Y33047D01*
X71289Y32399D01*
X72541Y32064D01*
X73837D01*
X75089Y32399D01*
X76211Y33047D01*
X77127Y33963D01*
X77775Y35085D01*
X78110Y36337D01*
Y37633D01*
X77775Y38884D01*
X77127Y40007D01*
X76211Y40923D01*
X75089Y41571D01*
X73837Y41906D01*
D02*
G37*
G36*
X184484Y24241D02*
X175752D01*
Y15509D01*
X184484D01*
Y24241D01*
D02*
G37*
G36*
X160693D02*
X159543D01*
X158433Y23943D01*
X157437Y23369D01*
X156624Y22556D01*
X156050Y21560D01*
X155752Y20450D01*
Y19300D01*
X156050Y18190D01*
X156624Y17194D01*
X157437Y16381D01*
X158433Y15806D01*
X159543Y15509D01*
X160693D01*
X161803Y15806D01*
X162799Y16381D01*
X163612Y17194D01*
X164187Y18190D01*
X164484Y19300D01*
Y20450D01*
X164187Y21560D01*
X163612Y22556D01*
X162799Y23369D01*
X161803Y23943D01*
X160693Y24241D01*
D02*
G37*
G36*
X211405Y21654D02*
X209854D01*
X208333Y21351D01*
X206900Y20757D01*
X205610Y19896D01*
X204514Y18799D01*
X203652Y17509D01*
X203059Y16076D01*
X202756Y14555D01*
Y13004D01*
X203059Y11483D01*
X203652Y10050D01*
X204514Y8760D01*
X205610Y7663D01*
X206900Y6802D01*
X208333Y6208D01*
X209854Y5906D01*
X211405D01*
X212927Y6208D01*
X214360Y6802D01*
X215649Y7663D01*
X216746Y8760D01*
X217608Y10050D01*
X218201Y11483D01*
X218504Y13004D01*
Y14555D01*
X218201Y16076D01*
X217608Y17509D01*
X216746Y18799D01*
X215649Y19896D01*
X214360Y20757D01*
X212927Y21351D01*
X211405Y21654D01*
D02*
G37*
G36*
X14555D02*
X13004D01*
X11483Y21351D01*
X10050Y20757D01*
X8760Y19896D01*
X7663Y18799D01*
X6802Y17509D01*
X6208Y16076D01*
X5906Y14555D01*
Y13004D01*
X6208Y11483D01*
X6802Y10050D01*
X7663Y8760D01*
X8760Y7663D01*
X10050Y6802D01*
X11483Y6208D01*
X13004Y5906D01*
X14555D01*
X16076Y6208D01*
X17509Y6802D01*
X18799Y7663D01*
X19896Y8760D01*
X20757Y10050D01*
X21351Y11483D01*
X21654Y13004D01*
Y14555D01*
X21351Y16076D01*
X20757Y17509D01*
X19896Y18799D01*
X18799Y19896D01*
X17509Y20757D01*
X16076Y21351D01*
X14555Y21654D01*
D02*
G37*
G36*
X11455Y127253D02*
X11250D01*
Y124050D01*
X14453D01*
Y124255D01*
X14217Y125133D01*
X13763Y125920D01*
X13120Y126563D01*
X12333Y127017D01*
X11455Y127253D01*
D02*
G37*
G36*
X14453Y123550D02*
X11250D01*
Y120347D01*
X11455D01*
X12333Y120582D01*
X13120Y121037D01*
X13763Y121680D01*
X14217Y122467D01*
X14453Y123345D01*
Y123550D01*
D02*
G37*
G36*
X72939Y70438D02*
X72734D01*
X71856Y70202D01*
X71069Y69748D01*
X70426Y69105D01*
X69972Y68318D01*
X69736Y67440D01*
Y67235D01*
X72939D01*
Y70438D01*
D02*
G37*
%LPD*%
D22*
X84583Y240178D02*
D03*
X45213D02*
D03*
X79189Y164800D02*
D03*
X79346Y145800D02*
D03*
D23*
X104268Y240178D02*
D03*
X64898D02*
D03*
X98874Y164800D02*
D03*
X99032Y145800D02*
D03*
D26*
X65354D02*
X79346D01*
X76126Y96363D02*
X94289Y78200D01*
X148423D02*
X175752Y50871D01*
X94289Y78200D02*
X148423D01*
X87800Y73000D02*
X135174D01*
X76000Y61200D02*
X87800Y73000D01*
X135174D02*
X142189Y65985D01*
X103800Y210100D02*
X109400Y204500D01*
X54100Y217300D02*
X61300Y210100D01*
X103800D01*
X14448Y194748D02*
X16848D01*
X32300Y210200D02*
X45750D01*
X16848Y194748D02*
X32300Y210200D01*
X45750D02*
X53400Y202550D01*
X12600Y192900D02*
X14448Y194748D01*
X64898Y240178D02*
X71520Y246800D01*
X97646D02*
X104268Y240178D01*
X71520Y246800D02*
X97646D01*
X53400Y202550D02*
X65500D01*
X15165Y216637D02*
Y218965D01*
X12600Y214072D02*
X15165Y216637D01*
X12600Y212900D02*
Y214072D01*
X15165Y218965D02*
X24300Y228100D01*
X75200D02*
X84000Y219300D01*
X24300Y228100D02*
X75200D01*
X11000Y113800D02*
X15689D01*
X33626Y95863D01*
X55422Y139500D02*
X103000D01*
X55313Y139609D02*
X55422Y139500D01*
X7735Y139609D02*
X55313D01*
X7627Y139500D02*
X7735Y139609D01*
X39489Y90000D02*
X50900D01*
X33626Y95863D02*
X39489Y90000D01*
X170118Y19875D02*
Y26518D01*
X175600Y32000D01*
X193500D01*
X201900Y40400D01*
Y119700D01*
X192600Y129000D02*
X201900Y119700D01*
X141800Y143600D02*
X156400Y129000D01*
X192600D01*
X130200Y143600D02*
X141800D01*
X120200Y133600D02*
X130200Y143600D01*
X64500Y133600D02*
X120200D01*
X57000Y126100D02*
X64500Y133600D01*
X50900Y90000D02*
X57000Y96100D01*
X7400Y139500D02*
X7627D01*
X4200Y136300D02*
X7400Y139500D01*
X103000D02*
X119800Y156300D01*
X146873Y127622D02*
X147626Y126869D01*
X134919Y131957D02*
X135343Y132380D01*
X120557Y120300D02*
X132214Y131957D01*
X139909Y132380D02*
X144668Y127622D01*
X146873D01*
X135343Y132380D02*
X139909D01*
X132214Y131957D02*
X134919D01*
X127435Y231735D02*
Y232849D01*
X130900Y236314D01*
Y236900D01*
X126276Y230576D02*
X127435Y231735D01*
X126276Y226910D02*
Y230576D01*
X118665Y219300D02*
X126276Y226910D01*
X114000Y219300D02*
X118665D01*
X118004Y232304D02*
Y232832D01*
X120900Y235728D01*
Y236900D01*
X97004Y232304D02*
X118004D01*
X84000Y219300D02*
X97004Y232304D01*
X65100Y168700D02*
X76000Y157800D01*
X91874D01*
X98874Y164800D01*
X52317Y168700D02*
X65100D01*
X165752Y208729D02*
X166623D01*
X167677Y207675D02*
X168280D01*
X169203Y199723D02*
Y206752D01*
X166623Y208729D02*
X167677Y207675D01*
X170125Y198800D02*
X181000D01*
X195000Y184800D01*
X168280Y207675D02*
X169203Y206752D01*
Y199723D02*
X170125Y198800D01*
X195000Y169722D02*
Y184800D01*
X139100Y183300D02*
X153600Y168800D01*
X194078D02*
X195000Y169722D01*
X153600Y168800D02*
X194078D01*
X18850Y46950D02*
X53224D01*
X15000Y50800D02*
X18850Y46950D01*
X53224D02*
X63189Y36985D01*
X18850Y56950D02*
X82654D01*
X15000Y60800D02*
X18850Y56950D01*
X82654D02*
X91689Y65985D01*
X9102Y73532D02*
X11096D01*
X13828Y70800D01*
X15000D01*
X4200Y78435D02*
X9102Y73532D01*
X119800Y156300D02*
Y168800D01*
X4200Y78435D02*
Y136300D01*
X33400Y173500D02*
X37900Y169000D01*
X25400Y173500D02*
X33400D01*
X20700Y168800D02*
X25400Y173500D01*
X20700Y153600D02*
Y168800D01*
Y153600D02*
X27600Y146700D01*
X128638Y182700D02*
X165752Y145586D01*
X110600Y182700D02*
X128638D01*
X104000Y189300D02*
X110600Y182700D01*
X79405Y235000D02*
X84583Y240178D01*
X50391Y235000D02*
X79405D01*
X45213Y240178D02*
X50391Y235000D01*
X103489Y89000D02*
X142700D01*
X96126Y96363D02*
X103489Y89000D01*
X170581Y213900D02*
X175752Y208729D01*
X156800Y213900D02*
X170581D01*
X147400Y204500D02*
X156800Y213900D01*
X109400Y204500D02*
X147400D01*
X35500Y217300D02*
X54100D01*
X100046Y82443D02*
X165752D01*
X86126Y96363D02*
X100046Y82443D01*
X102189Y120300D02*
X120557D01*
X96126Y126363D02*
X102189Y120300D01*
X86126Y126363D02*
X95732Y116757D01*
X150457D01*
X153200Y119500D01*
X58974Y61200D02*
X76000D01*
X53189Y66985D02*
X58974Y61200D01*
X169466Y120300D02*
X175752Y114014D01*
X162400Y120300D02*
X169466D01*
X155313Y113213D02*
X162400Y120300D01*
X57776Y113213D02*
X155313D01*
X45126Y125863D02*
X57776Y113213D01*
X154357Y198552D02*
X175752Y177157D01*
X93252Y198552D02*
X154357D01*
X84000Y189300D02*
X93252Y198552D01*
X94000Y189300D02*
X99709Y195009D01*
X136000D01*
X139100Y191909D01*
Y183300D02*
Y191909D01*
X170566Y140400D02*
X175752Y145586D01*
X158300Y140400D02*
X170566D01*
X124500Y174200D02*
X158300Y140400D01*
X63850Y174200D02*
X124500D01*
X35500Y202550D02*
X63850Y174200D01*
X104000Y219300D02*
X110100Y213200D01*
X128400D01*
X133500Y218300D01*
X129564Y65985D02*
X138149Y57400D01*
X159223D01*
X165752Y50871D01*
X33626Y125863D02*
X52889Y106600D01*
X151595D01*
X175752Y82443D01*
X41118Y157501D02*
X52317Y168700D01*
X88200Y183500D02*
X94000Y189300D01*
X69800Y183500D02*
X88200D01*
X65500Y187800D02*
X69800Y183500D01*
X53189Y36985D02*
X66374Y23800D01*
X79504D01*
X91689Y35985D01*
X45126Y95863D02*
X51363Y102100D01*
X80389D01*
X86126Y96363D01*
X91689Y35985D02*
X104314D01*
Y65985D02*
X116939D01*
X140700Y218800D02*
X147500D01*
X140200Y218300D02*
X140700Y218800D01*
X133500Y218300D02*
X140200D01*
X116939Y35985D02*
X129564D01*
X142189D01*
D27*
X31118Y157501D02*
D03*
X140900Y236900D02*
D03*
D28*
X41118Y157501D02*
D03*
X51118D02*
D03*
X61118D02*
D03*
X120900Y236900D02*
D03*
X130900D02*
D03*
X73189Y66985D02*
D03*
X63189D02*
D03*
X53189D02*
D03*
X43189D02*
D03*
X73189Y36985D02*
D03*
X63189D02*
D03*
X53189D02*
D03*
X114000Y219300D02*
D03*
X104000D02*
D03*
X94000D02*
D03*
X84000D02*
D03*
X114000Y189300D02*
D03*
X104000D02*
D03*
X94000D02*
D03*
X12600Y212900D02*
D03*
Y202900D02*
D03*
X11000Y133800D02*
D03*
Y123800D02*
D03*
X15000Y50800D02*
D03*
Y60800D02*
D03*
Y70800D02*
D03*
X106126Y126363D02*
D03*
X96126D02*
D03*
X86126D02*
D03*
X76126D02*
D03*
X106126Y96363D02*
D03*
X96126D02*
D03*
X86126D02*
D03*
D29*
X180118Y19875D02*
D03*
X185752Y50871D02*
D03*
Y82443D02*
D03*
Y114014D02*
D03*
Y145586D02*
D03*
Y177157D02*
D03*
Y208729D02*
D03*
X184000Y241800D02*
D03*
D30*
X170118Y19875D02*
D03*
X160118D02*
D03*
X175752Y50871D02*
D03*
X165752D02*
D03*
X175752Y82443D02*
D03*
X165752D02*
D03*
X175752Y114014D02*
D03*
X165752D02*
D03*
X175752Y145586D02*
D03*
X165752D02*
D03*
X175752Y177157D02*
D03*
X165752D02*
D03*
X175752Y208729D02*
D03*
X165752D02*
D03*
X174000Y241800D02*
D03*
X164000D02*
D03*
D31*
X210630Y246063D02*
D03*
Y13780D02*
D03*
X13780D02*
D03*
Y246063D02*
D03*
D32*
X133500Y188300D02*
D03*
Y218300D02*
D03*
X65500Y187800D02*
D03*
X35500D02*
D03*
X65500Y202550D02*
D03*
X35500D02*
D03*
X65500Y217300D02*
D03*
X35500D02*
D03*
X142189Y35985D02*
D03*
Y65985D02*
D03*
X129564D02*
D03*
Y35985D02*
D03*
X116939Y65985D02*
D03*
Y35985D02*
D03*
X104314D02*
D03*
Y65985D02*
D03*
X91689D02*
D03*
Y35985D02*
D03*
X137626Y126869D02*
D03*
Y96869D02*
D03*
X127126D02*
D03*
Y126869D02*
D03*
X147626D02*
D03*
Y96869D02*
D03*
X57000Y126100D02*
D03*
Y96100D02*
D03*
X45126Y95863D02*
D03*
Y125863D02*
D03*
X33626Y95863D02*
D03*
Y125863D02*
D03*
X147500Y218800D02*
D03*
Y188800D02*
D03*
D33*
X43189Y36985D02*
D03*
X84000Y189300D02*
D03*
X12600Y192900D02*
D03*
X11000Y113800D02*
D03*
X15000Y40800D02*
D03*
X76126Y96363D02*
D03*
D34*
X65354Y145800D02*
D03*
X37900Y169000D02*
D03*
X27600Y146700D02*
D03*
X142700Y89000D02*
D03*
X153200Y119500D02*
D03*
X119800Y168800D02*
D03*
M02*
