G04*
G04 #@! TF.GenerationSoftware,Altium Limited,Altium Designer,23.0.1 (38)*
G04*
G04 Layer_Physical_Order=1*
G04 Layer_Color=255*
%FSLAX25Y25*%
%MOIN*%
G70*
G04*
G04 #@! TF.SameCoordinates,7B218C2A-F859-486B-BE56-2060E057D8DB*
G04*
G04*
G04 #@! TF.FilePolarity,Positive*
G04*
G01*
G75*
%ADD22R,0.04724X0.04724*%
%ADD23C,0.04724*%
%ADD26C,0.01575*%
%ADD27R,0.05906X0.05906*%
%ADD28C,0.05906*%
%ADD29R,0.04795X0.04795*%
%ADD30C,0.04795*%
%ADD31C,0.11811*%
%ADD32C,0.05512*%
%ADD33R,0.05906X0.05906*%
%ADD34C,0.02362*%
D22*
X84583Y240178D02*
D03*
X45213D02*
D03*
X79189Y164800D02*
D03*
X79346Y145800D02*
D03*
D23*
X104268Y240178D02*
D03*
X64898D02*
D03*
X98874Y164800D02*
D03*
X99032Y145800D02*
D03*
D26*
X72835Y129654D02*
X76126Y126363D01*
X69291Y124863D02*
X73500Y120654D01*
X65354Y122756D02*
X71000Y117111D01*
X69291Y124863D02*
Y149328D01*
X72835Y129654D02*
Y161665D01*
X61118Y157501D02*
X69291Y149328D01*
X65354Y122756D02*
Y145800D01*
X66000Y168500D02*
X72835Y161665D01*
Y208135D02*
X84000Y219300D01*
X72835Y161665D02*
Y208135D01*
X78200Y185050D02*
Y198800D01*
Y185050D02*
X79650Y183600D01*
X78200Y198800D02*
X83700Y204300D01*
X19198Y174709D02*
X25591Y181102D01*
X19198Y174698D02*
Y174709D01*
X25591Y181102D02*
Y196850D01*
X12600Y202900D02*
X19541D01*
X25591Y196850D01*
X44800Y228700D02*
X70900Y254800D01*
X35500Y187800D02*
X44800Y197100D01*
Y228700D01*
X84583Y240178D02*
X91405Y247000D01*
X107700D02*
X112000Y242700D01*
X91405Y247000D02*
X107700D01*
X5132Y138668D02*
Y208010D01*
X6055Y208932D02*
X8632D01*
X5132Y208010D02*
X6055Y208932D01*
X5132Y138668D02*
X6335Y137465D01*
X18275Y173775D02*
X19198Y174698D01*
X23724D01*
X36827Y159421D02*
X37919Y158329D01*
X23724Y174698D02*
X36827Y161595D01*
Y159421D02*
Y161595D01*
X18275Y125708D02*
Y173775D01*
X37919Y158329D02*
X40290D01*
X41118Y157501D01*
X8632Y208932D02*
X12600Y212900D01*
X6335Y137465D02*
X7449D01*
X11000Y133914D01*
Y133800D02*
Y133914D01*
X16377Y123810D02*
X18275Y125708D01*
X11100Y123900D02*
X17109D01*
X11000Y123800D02*
X11100Y123900D01*
X17109Y93396D02*
Y123900D01*
X7000Y83288D02*
X17109Y93396D01*
X7000Y58800D02*
Y83288D01*
Y58800D02*
X15000Y50800D01*
X141669Y216969D02*
Y236131D01*
X140900Y236900D02*
X141669Y236131D01*
X114000Y189300D02*
X141669Y216969D01*
X86400Y250800D02*
X138503D01*
X153100Y194400D02*
Y236203D01*
X138503Y250800D02*
X153100Y236203D01*
X112000Y229373D02*
X119709Y221665D01*
X112000Y229373D02*
Y242700D01*
X119800Y205100D02*
Y221000D01*
X119709Y221091D02*
X119800Y221000D01*
X119709Y221091D02*
Y221665D01*
X78000Y242400D02*
X86400Y250800D01*
X78000Y235300D02*
Y242400D01*
Y235300D02*
X94000Y219300D01*
X161252Y254800D02*
X174000Y242052D01*
X70900Y254800D02*
X161252D01*
X15000Y40800D02*
X17268Y38532D01*
X22000Y148383D02*
X31118Y157501D01*
X22000Y43265D02*
Y148383D01*
X17268Y38532D02*
X22000Y43265D01*
X156300Y28752D02*
X160118Y24934D01*
Y19875D02*
Y24934D01*
X156300Y28752D02*
Y75400D01*
X142700Y89000D02*
X156300Y75400D01*
X160500Y235048D02*
X163384Y237932D01*
Y241184D01*
X164000Y241800D01*
X160500Y192409D02*
Y235048D01*
Y192409D02*
X175752Y177157D01*
X174000Y241800D02*
Y242052D01*
X37900Y169000D02*
X38400Y168500D01*
X27600Y146700D02*
X27800Y146900D01*
X27600Y82574D02*
Y146700D01*
Y82574D02*
X43189Y66985D01*
X73189Y46985D02*
Y66985D01*
X63189Y36985D02*
X73189Y46985D01*
X104268Y229032D02*
Y240178D01*
Y229032D02*
X114000Y219300D01*
X99032Y133457D02*
Y145800D01*
Y133457D02*
X106126Y126363D01*
X38400Y168500D02*
X66000D01*
X114000Y104237D02*
Y189300D01*
X106126Y96363D02*
X114000Y104237D01*
X147500Y188800D02*
X153100Y194400D01*
X147626Y106869D02*
Y126869D01*
X137626Y96869D02*
X147626Y106869D01*
X153200Y102443D02*
Y119500D01*
X147626Y96869D02*
X153200Y102443D01*
X73500Y120654D02*
X80417D01*
X86126Y126363D01*
X160500Y66123D02*
X175752Y50871D01*
X160500Y66123D02*
Y108762D01*
X165752Y114014D01*
X104314Y46714D02*
Y65985D01*
X98100Y40500D02*
X104314Y46714D01*
X98100Y33800D02*
Y40500D01*
X94600Y30300D02*
X98100Y33800D01*
X49874Y30300D02*
X94600D01*
X43189Y36985D02*
X49874Y30300D01*
X37400Y41196D02*
X63189Y66985D01*
X37400Y23800D02*
Y41196D01*
Y23800D02*
X43000Y18200D01*
X99154D01*
X116939Y35985D01*
X75378Y117111D02*
X96126Y96363D01*
X71000Y117111D02*
X75378D01*
X104000Y189300D02*
X119800Y205100D01*
X121600Y102395D02*
X127126Y96869D01*
X121600Y102395D02*
Y162900D01*
X147500Y188800D01*
X133500Y182500D02*
Y188300D01*
X119800Y168800D02*
X133500Y182500D01*
X165752Y154995D02*
Y177157D01*
X137626Y126869D02*
X165752Y154995D01*
X98800Y89037D02*
X106126Y96363D01*
X98800Y62596D02*
Y89037D01*
X73189Y36985D02*
X98800Y62596D01*
X80074Y183600D02*
X98874Y164800D01*
X79650Y183600D02*
X80074D01*
X83700Y204300D02*
X99000D01*
X114000Y219300D01*
X51100Y69074D02*
X53189Y66985D01*
X51100Y69074D02*
Y131400D01*
X51118Y131418D01*
Y157501D01*
X98874Y155358D02*
Y164800D01*
Y155358D02*
X99032Y155200D01*
Y145800D02*
Y155200D01*
X79189Y155357D02*
Y164800D01*
Y155357D02*
X79346Y155200D01*
Y145800D02*
Y155200D01*
X65500Y202550D02*
Y217300D01*
D27*
X31118Y157501D02*
D03*
X140900Y236900D02*
D03*
D28*
X41118Y157501D02*
D03*
X51118D02*
D03*
X61118D02*
D03*
X120900Y236900D02*
D03*
X130900D02*
D03*
X73189Y66985D02*
D03*
X63189D02*
D03*
X53189D02*
D03*
X43189D02*
D03*
X73189Y36985D02*
D03*
X63189D02*
D03*
X53189D02*
D03*
X114000Y219300D02*
D03*
X104000D02*
D03*
X94000D02*
D03*
X84000D02*
D03*
X114000Y189300D02*
D03*
X104000D02*
D03*
X94000D02*
D03*
X12600Y212900D02*
D03*
Y202900D02*
D03*
X11000Y133800D02*
D03*
Y123800D02*
D03*
X15000Y50800D02*
D03*
Y60800D02*
D03*
Y70800D02*
D03*
X106126Y126363D02*
D03*
X96126D02*
D03*
X86126D02*
D03*
X76126D02*
D03*
X106126Y96363D02*
D03*
X96126D02*
D03*
X86126D02*
D03*
D29*
X180118Y19875D02*
D03*
X185752Y50871D02*
D03*
Y82443D02*
D03*
Y114014D02*
D03*
Y145586D02*
D03*
Y177157D02*
D03*
Y208729D02*
D03*
X184000Y241800D02*
D03*
D30*
X170118Y19875D02*
D03*
X160118D02*
D03*
X175752Y50871D02*
D03*
X165752D02*
D03*
X175752Y82443D02*
D03*
X165752D02*
D03*
X175752Y114014D02*
D03*
X165752D02*
D03*
X175752Y145586D02*
D03*
X165752D02*
D03*
X175752Y177157D02*
D03*
X165752D02*
D03*
X175752Y208729D02*
D03*
X165752D02*
D03*
X174000Y241800D02*
D03*
X164000D02*
D03*
D31*
X210630Y246063D02*
D03*
Y13780D02*
D03*
X13780D02*
D03*
Y246063D02*
D03*
D32*
X133500Y188300D02*
D03*
Y218300D02*
D03*
X65500Y187800D02*
D03*
X35500D02*
D03*
X65500Y202550D02*
D03*
X35500D02*
D03*
X65500Y217300D02*
D03*
X35500D02*
D03*
X142189Y35985D02*
D03*
Y65985D02*
D03*
X129564D02*
D03*
Y35985D02*
D03*
X116939Y65985D02*
D03*
Y35985D02*
D03*
X104314D02*
D03*
Y65985D02*
D03*
X91689D02*
D03*
Y35985D02*
D03*
X137626Y126869D02*
D03*
Y96869D02*
D03*
X127126D02*
D03*
Y126869D02*
D03*
X147626D02*
D03*
Y96869D02*
D03*
X57000Y126100D02*
D03*
Y96100D02*
D03*
X45126Y95863D02*
D03*
Y125863D02*
D03*
X33626Y95863D02*
D03*
Y125863D02*
D03*
X147500Y218800D02*
D03*
Y188800D02*
D03*
D33*
X43189Y36985D02*
D03*
X84000Y189300D02*
D03*
X12600Y192900D02*
D03*
X11000Y113800D02*
D03*
X15000Y40800D02*
D03*
X76126Y96363D02*
D03*
D34*
X65354Y145800D02*
D03*
X37900Y169000D02*
D03*
X27600Y146700D02*
D03*
X142700Y89000D02*
D03*
X153200Y119500D02*
D03*
X119800Y168800D02*
D03*
M02*
