M48
;Layer_Color=9474304
;FILE_FORMAT=2:5
INCH,TZ
;TYPE=PLATED
T1F00S00C0.01181
T2F00S00C0.02756
T3F00S00C0.02795
T4F00S00C0.03346
T5F00S00C0.03543
T6F00S00C0.11811
%
T01
X27600Y146700
X37900Y169000
X65354Y145800
X119800Y168800
X153200Y119500
X142700Y89000
T02
X79346Y145800
X79189Y164800
X98874
X99032Y145800
X104268Y240178
X84583
X64898
X45213
T03
X160118Y19875
X170118
X180118
X175752Y50871
X185752
X165752
Y82443
X175752
X185752
Y114014
X175752
X165752
Y145586
X175752
X185752
Y177157
X175752
X165752
Y208729
X175752
X185752
X184000Y241800
X174000
X164000
T04
X91689Y35985
X104314
X116939
X129564
X142189
Y65985
X129564
X116939
X104314
X91689
X45126Y95863
X33626
Y125863
X45126
X35500Y187800
Y202550
Y217300
X65500
Y202550
Y187800
X133500Y188300
X147500Y188800
Y218800
X133500Y218300
X137626Y126869
X147626
X127126
Y96869
X137626
X147626
X57000Y96100
Y126100
T05
X53189Y36985
X63189
X73189
Y66985
X63189
X53189
X43189
Y36985
X15000Y40800
Y50800
Y60800
Y70800
X11000Y113800
Y123800
Y133800
X31118Y157501
X41118
X51118
X12600Y192900
Y202900
Y212900
X84000Y219300
X94000
X104000
X114000
Y189300
X104000
X94000
X84000
X61118Y157501
X76126Y126363
X86126
X96126
X106126
Y96363
X96126
X86126
X76126
X120900Y236900
X130900
X140900
T06
X210630Y13780
X13780
X210630Y246063
X13780
M30
