G04*
G04 #@! TF.GenerationSoftware,Altium Limited,Altium Designer,23.0.1 (38)*
G04*
G04 Layer_Color=16711935*
%FSLAX25Y25*%
%MOIN*%
G70*
G04*
G04 #@! TF.SameCoordinates,7B218C2A-F859-486B-BE56-2060E057D8DB*
G04*
G04*
G04 #@! TF.FilePolarity,Positive*
G04*
G01*
G75*
%ADD10C,0.00787*%
%ADD13C,0.00500*%
%ADD36C,0.00394*%
D10*
X185512Y19875D02*
X184724D01*
X185512D01*
X191146Y50871D02*
X190358D01*
X191146D01*
Y82443D02*
X190358D01*
X191146D01*
Y114014D02*
X190358D01*
X191146D01*
Y145586D02*
X190358D01*
X191146D01*
Y177157D02*
X190358D01*
X191146D01*
Y208729D02*
X190358D01*
X191146D01*
X189394Y241800D02*
X188606D01*
X189394D01*
X83598Y248052D02*
X105252D01*
Y232304D02*
Y248052D01*
X83598Y232304D02*
X105252D01*
X83598D02*
Y248052D01*
X44228D02*
X65882D01*
Y232304D02*
Y248052D01*
X44228Y232304D02*
X65882D01*
X44228D02*
Y248052D01*
X78205Y172674D02*
X99858D01*
Y156926D02*
Y172674D01*
X78205Y156926D02*
X99858D01*
X78205D02*
Y172674D01*
X78362Y153674D02*
X100016D01*
Y137926D02*
Y153674D01*
X78362Y137926D02*
X100016D01*
X78362D02*
Y153674D01*
D13*
X151358Y10347D02*
X188878D01*
X151358D02*
Y29363D01*
X188878D01*
Y10347D02*
Y29363D01*
X156992Y41344D02*
X194512D01*
X156992D02*
Y60360D01*
X194512D01*
Y41344D02*
Y60360D01*
X156992Y72915D02*
X194512D01*
X156992D02*
Y91931D01*
X194512D01*
Y72915D02*
Y91931D01*
X156992Y104487D02*
X194512D01*
X156992D02*
Y123503D01*
X194512D01*
Y104487D02*
Y123503D01*
X156992Y136058D02*
X194512D01*
X156992D02*
Y155074D01*
X194512D01*
Y136058D02*
Y155074D01*
X156992Y167630D02*
X194512D01*
X156992D02*
Y186645D01*
X194512D01*
Y167630D02*
Y186645D01*
X156992Y199201D02*
X194512D01*
X156992D02*
Y218217D01*
X194512D01*
Y199201D02*
Y218217D01*
X155240Y232272D02*
X192760D01*
X155240D02*
Y251288D01*
X192760D01*
Y232272D02*
Y251288D01*
D36*
X43720Y42536D02*
X43457Y43521D01*
X42736Y44241D01*
X41752Y44505D01*
X40768Y44241D01*
X40047Y43521D01*
X39783Y42536D01*
X40047Y41552D01*
X40768Y40832D01*
X41752Y40568D01*
X42736Y40832D01*
X43457Y41552D01*
X43720Y42536D01*
X84531Y194851D02*
X84268Y195835D01*
X83547Y196556D01*
X82563Y196820D01*
X81579Y196556D01*
X80858Y195835D01*
X80594Y194851D01*
X80858Y193867D01*
X81579Y193146D01*
X82563Y192883D01*
X83547Y193146D01*
X84268Y193867D01*
X84531Y194851D01*
X76657Y101914D02*
X76394Y102898D01*
X75673Y103619D01*
X74689Y103883D01*
X73705Y103619D01*
X72984Y102898D01*
X72720Y101914D01*
X72984Y100930D01*
X73705Y100209D01*
X74689Y99946D01*
X75673Y100209D01*
X76394Y100930D01*
X76657Y101914D01*
X78169Y38993D02*
Y64977D01*
X38209Y38993D02*
Y64977D01*
X78169D01*
X38209Y38993D02*
X78169D01*
X118980Y191308D02*
Y217292D01*
X79020Y191308D02*
Y217292D01*
X118980D01*
X79020Y191308D02*
X118980D01*
X111106Y98371D02*
Y124355D01*
X71146Y98371D02*
Y124355D01*
X111106D01*
X71146Y98371D02*
X111106D01*
M02*
