G04*
G04 #@! TF.GenerationSoftware,Altium Limited,Altium Designer,23.0.1 (38)*
G04*
G04 Layer_Color=128*
%FSLAX25Y25*%
%MOIN*%
G70*
G04*
G04 #@! TF.SameCoordinates,7B218C2A-F859-486B-BE56-2060E057D8DB*
G04*
G04*
G04 #@! TF.FilePolarity,Positive*
G04*
G01*
G75*
%ADD13C,0.00500*%
D13*
X29347Y157501D02*
X32890D01*
X31118Y155729D02*
Y159273D01*
X39347Y157501D02*
X42890D01*
X41118Y155729D02*
Y159273D01*
X49347Y157501D02*
X52890D01*
X51118Y155729D02*
Y159273D01*
X59347Y157501D02*
X62890D01*
X61118Y155729D02*
Y159273D01*
X178720Y19875D02*
X181516D01*
X180118Y18477D02*
Y21272D01*
X168720Y19875D02*
X171516D01*
X170118Y18477D02*
Y21272D01*
X158721Y19875D02*
X161516D01*
X160118Y18477D02*
Y21272D01*
X184354Y50871D02*
X187150D01*
X185752Y49474D02*
Y52269D01*
X174354Y50871D02*
X177150D01*
X175752Y49474D02*
Y52269D01*
X164354Y50871D02*
X167150D01*
X165752Y49474D02*
Y52269D01*
X184354Y82443D02*
X187150D01*
X185752Y81045D02*
Y83841D01*
X174354Y82443D02*
X177150D01*
X175752Y81045D02*
Y83841D01*
X164354Y82443D02*
X167150D01*
X165752Y81045D02*
Y83841D01*
X184354Y114014D02*
X187150D01*
X185752Y112617D02*
Y115412D01*
X174354Y114014D02*
X177150D01*
X175752Y112617D02*
Y115412D01*
X164354Y114014D02*
X167150D01*
X165752Y112617D02*
Y115412D01*
X184354Y145586D02*
X187150D01*
X185752Y144188D02*
Y146983D01*
X174354Y145586D02*
X177150D01*
X175752Y144188D02*
Y146983D01*
X164354Y145586D02*
X167150D01*
X165752Y144188D02*
Y146983D01*
X184354Y177157D02*
X187150D01*
X185752Y175760D02*
Y178555D01*
X174354Y177157D02*
X177150D01*
X175752Y175760D02*
Y178555D01*
X164354Y177157D02*
X167150D01*
X165752Y175760D02*
Y178555D01*
X184354Y208729D02*
X187150D01*
X185752Y207331D02*
Y210126D01*
X174354Y208729D02*
X177150D01*
X175752Y207331D02*
Y210126D01*
X164354Y208729D02*
X167150D01*
X165752Y207331D02*
Y210126D01*
X182602Y241800D02*
X185398D01*
X184000Y240402D02*
Y243198D01*
X172602Y241800D02*
X175398D01*
X174000Y240402D02*
Y243198D01*
X162602Y241800D02*
X165398D01*
X164000Y240402D02*
Y243198D01*
X204724Y246063D02*
X216535D01*
X210630Y240158D02*
Y251969D01*
X204724Y13780D02*
X216535D01*
X210630Y7874D02*
Y19685D01*
X119128Y236900D02*
X122672D01*
X120900Y235128D02*
Y238672D01*
X129128Y236900D02*
X132672D01*
X130900Y235128D02*
Y238672D01*
X139128Y236900D02*
X142672D01*
X140900Y235128D02*
Y238672D01*
X131827Y188300D02*
X135173D01*
X133500Y186627D02*
Y189973D01*
X131827Y218300D02*
X135173D01*
X133500Y216627D02*
Y219973D01*
X83205Y240178D02*
X85961D01*
X84583Y238800D02*
Y241556D01*
X102890Y240178D02*
X105646D01*
X104268Y238800D02*
Y241556D01*
X43835Y240178D02*
X46591D01*
X45213Y238800D02*
Y241556D01*
X63520Y240178D02*
X66276D01*
X64898Y238800D02*
Y241556D01*
X7874Y13780D02*
X19685D01*
X13780Y7874D02*
Y19685D01*
X7874Y246063D02*
X19685D01*
X13780Y240158D02*
Y251969D01*
X63827Y187800D02*
X67173D01*
X65500Y186127D02*
Y189473D01*
X33827Y187800D02*
X37173D01*
X35500Y186127D02*
Y189473D01*
X63827Y202550D02*
X67173D01*
X65500Y200877D02*
Y204223D01*
X33827Y202550D02*
X37173D01*
X35500Y200877D02*
Y204223D01*
X63827Y217300D02*
X67173D01*
X65500Y215627D02*
Y218973D01*
X33827Y217300D02*
X37173D01*
X35500Y215627D02*
Y218973D01*
X71417Y66985D02*
X74961D01*
X73189Y65213D02*
Y68757D01*
X61417Y66985D02*
X64961D01*
X63189Y65213D02*
Y68757D01*
X51417Y66985D02*
X54961D01*
X53189Y65213D02*
Y68757D01*
X41417Y66985D02*
X44961D01*
X43189Y65213D02*
Y68757D01*
X71417Y36985D02*
X74961D01*
X73189Y35213D02*
Y38757D01*
X61417Y36985D02*
X64961D01*
X63189Y35213D02*
Y38757D01*
X51417Y36985D02*
X54961D01*
X53189Y35213D02*
Y38757D01*
X41417Y36985D02*
X44961D01*
X43189Y35213D02*
Y38757D01*
X112228Y219300D02*
X115772D01*
X114000Y217528D02*
Y221072D01*
X102228Y219300D02*
X105772D01*
X104000Y217528D02*
Y221072D01*
X92228Y219300D02*
X95772D01*
X94000Y217528D02*
Y221072D01*
X82228Y219300D02*
X85772D01*
X84000Y217528D02*
Y221072D01*
X112228Y189300D02*
X115772D01*
X114000Y187528D02*
Y191072D01*
X102228Y189300D02*
X105772D01*
X104000Y187528D02*
Y191072D01*
X92228Y189300D02*
X95772D01*
X94000Y187528D02*
Y191072D01*
X82228Y189300D02*
X85772D01*
X84000Y187528D02*
Y191072D01*
X10828Y212900D02*
X14372D01*
X12600Y211128D02*
Y214672D01*
X10828Y202900D02*
X14372D01*
X12600Y201128D02*
Y204672D01*
X10828Y192900D02*
X14372D01*
X12600Y191128D02*
Y194672D01*
X9228Y133800D02*
X12772D01*
X11000Y132028D02*
Y135572D01*
X9228Y123800D02*
X12772D01*
X11000Y122028D02*
Y125572D01*
X9228Y113800D02*
X12772D01*
X11000Y112028D02*
Y115572D01*
X13228Y40800D02*
X16772D01*
X15000Y39028D02*
Y42572D01*
X13228Y50800D02*
X16772D01*
X15000Y49028D02*
Y52572D01*
X13228Y60800D02*
X16772D01*
X15000Y59028D02*
Y62572D01*
X13228Y70800D02*
X16772D01*
X15000Y69028D02*
Y72572D01*
X140516Y35985D02*
X143862D01*
X142189Y34312D02*
Y37658D01*
X140516Y65985D02*
X143862D01*
X142189Y64312D02*
Y67658D01*
X127891Y65985D02*
X131237D01*
X129564Y64312D02*
Y67658D01*
X127891Y35985D02*
X131237D01*
X129564Y34312D02*
Y37658D01*
X115266Y65985D02*
X118612D01*
X116939Y64312D02*
Y67658D01*
X115266Y35985D02*
X118612D01*
X116939Y34312D02*
Y37658D01*
X102641Y35985D02*
X105987D01*
X104314Y34312D02*
Y37658D01*
X102641Y65985D02*
X105987D01*
X104314Y64312D02*
Y67658D01*
X90016Y65985D02*
X93362D01*
X91689Y64312D02*
Y67658D01*
X90016Y35985D02*
X93362D01*
X91689Y34312D02*
Y37658D01*
X77811Y164800D02*
X80567D01*
X79189Y163422D02*
Y166178D01*
X97496Y164800D02*
X100252D01*
X98874Y163422D02*
Y166178D01*
X77968Y145800D02*
X80724D01*
X79346Y144422D02*
Y147178D01*
X97654Y145800D02*
X100410D01*
X99032Y144422D02*
Y147178D01*
X135953Y126869D02*
X139299D01*
X137626Y125195D02*
Y128542D01*
X135953Y96869D02*
X139299D01*
X137626Y95195D02*
Y98542D01*
X125453Y96869D02*
X128799D01*
X127126Y95195D02*
Y98542D01*
X125453Y126869D02*
X128799D01*
X127126Y125195D02*
Y128542D01*
X145953Y126869D02*
X149299D01*
X147626Y125195D02*
Y128542D01*
X145953Y96869D02*
X149299D01*
X147626Y95195D02*
Y98542D01*
X104354Y126363D02*
X107898D01*
X106126Y124591D02*
Y128135D01*
X94354Y126363D02*
X97898D01*
X96126Y124591D02*
Y128135D01*
X84354Y126363D02*
X87898D01*
X86126Y124591D02*
Y128135D01*
X74354Y126363D02*
X77898D01*
X76126Y124591D02*
Y128135D01*
X104354Y96363D02*
X107898D01*
X106126Y94591D02*
Y98135D01*
X94354Y96363D02*
X97898D01*
X96126Y94591D02*
Y98135D01*
X84354Y96363D02*
X87898D01*
X86126Y94591D02*
Y98135D01*
X74354Y96363D02*
X77898D01*
X76126Y94591D02*
Y98135D01*
X55327Y126100D02*
X58673D01*
X57000Y124427D02*
Y127773D01*
X55327Y96100D02*
X58673D01*
X57000Y94427D02*
Y97773D01*
X43453Y95863D02*
X46799D01*
X45126Y94190D02*
Y97536D01*
X43453Y125863D02*
X46799D01*
X45126Y124190D02*
Y127536D01*
X31953Y95863D02*
X35299D01*
X33626Y94190D02*
Y97536D01*
X31953Y125863D02*
X35299D01*
X33626Y124190D02*
Y127536D01*
X145827Y218800D02*
X149173D01*
X147500Y217127D02*
Y220473D01*
X145827Y188800D02*
X149173D01*
X147500Y187127D02*
Y190473D01*
X64764Y145800D02*
X65945D01*
X65354Y145209D02*
Y146391D01*
X37309Y169000D02*
X38491D01*
X37900Y168409D02*
Y169591D01*
X27009Y146700D02*
X28191D01*
X27600Y146109D02*
Y147291D01*
X142109Y89000D02*
X143291D01*
X142700Y88410D02*
Y89591D01*
X152609Y119500D02*
X153791D01*
X153200Y118909D02*
Y120091D01*
X119209Y168800D02*
X120391D01*
X119800Y168209D02*
Y169391D01*
M02*
