G04*
G04 #@! TF.GenerationSoftware,Altium Limited,Altium Designer,23.0.1 (38)*
G04*
G04 Layer_Color=2752767*
%FSLAX25Y25*%
%MOIN*%
G70*
G04*
G04 #@! TF.SameCoordinates,7B218C2A-F859-486B-BE56-2060E057D8DB*
G04*
G04*
G04 #@! TF.FilePolarity,Positive*
G04*
G01*
G75*
%ADD13C,0.00500*%
%ADD38C,0.00667*%
D13*
X31118Y155501D02*
X29118Y159501D01*
X33118D01*
X31118Y155501D01*
X41118D02*
X39118Y159501D01*
X43118D01*
X41118Y155501D01*
X51118D02*
X49118Y159501D01*
X53118D01*
X51118Y155501D01*
X61118D02*
X59118Y159501D01*
X63118D01*
X61118Y155501D01*
X178118Y17875D02*
X179118Y19875D01*
X178118Y21875D01*
X180118Y20875D01*
X182118Y21875D01*
X181118Y19875D01*
X182118Y17875D01*
X180118Y18875D01*
X178118Y17875D01*
X168118D02*
X169118Y19875D01*
X168118Y21875D01*
X170118Y20875D01*
X172118Y21875D01*
X171118Y19875D01*
X172118Y17875D01*
X170118Y18875D01*
X168118Y17875D01*
X158118D02*
X159118Y19875D01*
X158118Y21875D01*
X160118Y20875D01*
X162118Y21875D01*
X161118Y19875D01*
X162118Y17875D01*
X160118Y18875D01*
X158118Y17875D01*
X183752Y48871D02*
X184752Y50871D01*
X183752Y52871D01*
X185752Y51871D01*
X187752Y52871D01*
X186752Y50871D01*
X187752Y48871D01*
X185752Y49871D01*
X183752Y48871D01*
X173752D02*
X174752Y50871D01*
X173752Y52871D01*
X175752Y51871D01*
X177752Y52871D01*
X176752Y50871D01*
X177752Y48871D01*
X175752Y49871D01*
X173752Y48871D01*
X163752D02*
X164752Y50871D01*
X163752Y52871D01*
X165752Y51871D01*
X167752Y52871D01*
X166752Y50871D01*
X167752Y48871D01*
X165752Y49871D01*
X163752Y48871D01*
X183752Y80443D02*
X184752Y82443D01*
X183752Y84443D01*
X185752Y83443D01*
X187752Y84443D01*
X186752Y82443D01*
X187752Y80443D01*
X185752Y81443D01*
X183752Y80443D01*
X173752D02*
X174752Y82443D01*
X173752Y84443D01*
X175752Y83443D01*
X177752Y84443D01*
X176752Y82443D01*
X177752Y80443D01*
X175752Y81443D01*
X173752Y80443D01*
X163752D02*
X164752Y82443D01*
X163752Y84443D01*
X165752Y83443D01*
X167752Y84443D01*
X166752Y82443D01*
X167752Y80443D01*
X165752Y81443D01*
X163752Y80443D01*
X183752Y112014D02*
X184752Y114014D01*
X183752Y116014D01*
X185752Y115014D01*
X187752Y116014D01*
X186752Y114014D01*
X187752Y112014D01*
X185752Y113014D01*
X183752Y112014D01*
X173752D02*
X174752Y114014D01*
X173752Y116014D01*
X175752Y115014D01*
X177752Y116014D01*
X176752Y114014D01*
X177752Y112014D01*
X175752Y113014D01*
X173752Y112014D01*
X163752D02*
X164752Y114014D01*
X163752Y116014D01*
X165752Y115014D01*
X167752Y116014D01*
X166752Y114014D01*
X167752Y112014D01*
X165752Y113014D01*
X163752Y112014D01*
X183752Y143586D02*
X184752Y145586D01*
X183752Y147586D01*
X185752Y146586D01*
X187752Y147586D01*
X186752Y145586D01*
X187752Y143586D01*
X185752Y144586D01*
X183752Y143586D01*
X173752D02*
X174752Y145586D01*
X173752Y147586D01*
X175752Y146586D01*
X177752Y147586D01*
X176752Y145586D01*
X177752Y143586D01*
X175752Y144586D01*
X173752Y143586D01*
X163752D02*
X164752Y145586D01*
X163752Y147586D01*
X165752Y146586D01*
X167752Y147586D01*
X166752Y145586D01*
X167752Y143586D01*
X165752Y144586D01*
X163752Y143586D01*
X183752Y175157D02*
X184752Y177157D01*
X183752Y179157D01*
X185752Y178157D01*
X187752Y179157D01*
X186752Y177157D01*
X187752Y175157D01*
X185752Y176157D01*
X183752Y175157D01*
X173752D02*
X174752Y177157D01*
X173752Y179157D01*
X175752Y178157D01*
X177752Y179157D01*
X176752Y177157D01*
X177752Y175157D01*
X175752Y176157D01*
X173752Y175157D01*
X163752D02*
X164752Y177157D01*
X163752Y179157D01*
X165752Y178157D01*
X167752Y179157D01*
X166752Y177157D01*
X167752Y175157D01*
X165752Y176157D01*
X163752Y175157D01*
X183752Y206729D02*
X184752Y208729D01*
X183752Y210729D01*
X185752Y209729D01*
X187752Y210729D01*
X186752Y208729D01*
X187752Y206729D01*
X185752Y207729D01*
X183752Y206729D01*
X173752D02*
X174752Y208729D01*
X173752Y210729D01*
X175752Y209729D01*
X177752Y210729D01*
X176752Y208729D01*
X177752Y206729D01*
X175752Y207729D01*
X173752Y206729D01*
X163752D02*
X164752Y208729D01*
X163752Y210729D01*
X165752Y209729D01*
X167752Y210729D01*
X166752Y208729D01*
X167752Y206729D01*
X165752Y207729D01*
X163752Y206729D01*
X182000Y239800D02*
X183000Y241800D01*
X182000Y243800D01*
X184000Y242800D01*
X186000Y243800D01*
X185000Y241800D01*
X186000Y239800D01*
X184000Y240800D01*
X182000Y239800D01*
X172000D02*
X173000Y241800D01*
X172000Y243800D01*
X174000Y242800D01*
X176000Y243800D01*
X175000Y241800D01*
X176000Y239800D01*
X174000Y240800D01*
X172000Y239800D01*
X162000D02*
X163000Y241800D01*
X162000Y243800D01*
X164000Y242800D01*
X166000Y243800D01*
X165000Y241800D01*
X166000Y239800D01*
X164000Y240800D01*
X162000Y239800D01*
X209630Y245063D02*
Y244063D01*
X211630D01*
Y245063D01*
X212630D01*
Y247063D01*
X211630D01*
Y248063D01*
X209630D01*
Y247063D01*
X208630D01*
Y245063D01*
X209630D01*
Y12779D02*
Y11779D01*
X211630D01*
Y12779D01*
X212630D01*
Y14780D01*
X211630D01*
Y15779D01*
X209630D01*
Y14780D01*
X208630D01*
Y12779D01*
X209630D01*
X120900Y234900D02*
X118900Y238900D01*
X122900D01*
X120900Y234900D01*
X130900D02*
X128900Y238900D01*
X132900D01*
X130900Y234900D01*
X140900D02*
X138900Y238900D01*
X142900D01*
X140900Y234900D01*
X82583Y238178D02*
Y242178D01*
X86583D01*
Y238178D01*
X82583D01*
X102268D02*
Y242178D01*
X106268D01*
Y238178D01*
X102268D01*
X43213D02*
Y242178D01*
X47213D01*
Y238178D01*
X43213D01*
X62898D02*
Y242178D01*
X66898D01*
Y238178D01*
X62898D01*
X12779Y12779D02*
Y11779D01*
X14780D01*
Y12779D01*
X15779D01*
Y14780D01*
X14780D01*
Y15779D01*
X12779D01*
Y14780D01*
X11779D01*
Y12779D01*
X12779D01*
Y245063D02*
Y244063D01*
X14780D01*
Y245063D01*
X15779D01*
Y247063D01*
X14780D01*
Y248063D01*
X12779D01*
Y247063D01*
X11779D01*
Y245063D01*
X12779D01*
X73189Y64985D02*
X71189Y68985D01*
X75189D01*
X73189Y64985D01*
X63189D02*
X61189Y68985D01*
X65189D01*
X63189Y64985D01*
X53189D02*
X51189Y68985D01*
X55189D01*
X53189Y64985D01*
X43189D02*
X41189Y68985D01*
X45189D01*
X43189Y64985D01*
X73189Y34985D02*
X71189Y38985D01*
X75189D01*
X73189Y34985D01*
X63189D02*
X61189Y38985D01*
X65189D01*
X63189Y34985D01*
X53189D02*
X51189Y38985D01*
X55189D01*
X53189Y34985D01*
X43189D02*
X41189Y38985D01*
X45189D01*
X43189Y34985D01*
X114000Y217300D02*
X112000Y221300D01*
X116000D01*
X114000Y217300D01*
X104000D02*
X102000Y221300D01*
X106000D01*
X104000Y217300D01*
X94000D02*
X92000Y221300D01*
X96000D01*
X94000Y217300D01*
X84000D02*
X82000Y221300D01*
X86000D01*
X84000Y217300D01*
X114000Y187300D02*
X112000Y191300D01*
X116000D01*
X114000Y187300D01*
X104000D02*
X102000Y191300D01*
X106000D01*
X104000Y187300D01*
X94000D02*
X92000Y191300D01*
X96000D01*
X94000Y187300D01*
X84000D02*
X82000Y191300D01*
X86000D01*
X84000Y187300D01*
X12600Y210900D02*
X10600Y214900D01*
X14600D01*
X12600Y210900D01*
Y200900D02*
X10600Y204900D01*
X14600D01*
X12600Y200900D01*
Y190900D02*
X10600Y194900D01*
X14600D01*
X12600Y190900D01*
X11000Y131800D02*
X9000Y135800D01*
X13000D01*
X11000Y131800D01*
Y121800D02*
X9000Y125800D01*
X13000D01*
X11000Y121800D01*
Y111800D02*
X9000Y115800D01*
X13000D01*
X11000Y111800D01*
X15000Y38800D02*
X13000Y42800D01*
X17000D01*
X15000Y38800D01*
Y48800D02*
X13000Y52800D01*
X17000D01*
X15000Y48800D01*
Y58800D02*
X13000Y62800D01*
X17000D01*
X15000Y58800D01*
Y68800D02*
X13000Y72800D01*
X17000D01*
X15000Y68800D01*
X77189Y162800D02*
Y166800D01*
X81189D01*
Y162800D01*
X77189D01*
X96874D02*
Y166800D01*
X100874D01*
Y162800D01*
X96874D01*
X77346Y143800D02*
Y147800D01*
X81346D01*
Y143800D01*
X77346D01*
X97032D02*
Y147800D01*
X101032D01*
Y143800D01*
X97032D01*
X106126Y124363D02*
X104126Y128363D01*
X108126D01*
X106126Y124363D01*
X96126D02*
X94126Y128363D01*
X98126D01*
X96126Y124363D01*
X86126D02*
X84126Y128363D01*
X88126D01*
X86126Y124363D01*
X76126D02*
X74126Y128363D01*
X78126D01*
X76126Y124363D01*
X106126Y94363D02*
X104126Y98363D01*
X108126D01*
X106126Y94363D01*
X96126D02*
X94126Y98363D01*
X98126D01*
X96126Y94363D01*
X86126D02*
X84126Y98363D01*
X88126D01*
X86126Y94363D01*
X76126D02*
X74126Y98363D01*
X78126D01*
X76126Y94363D01*
X65354Y143800D02*
X66354Y144800D01*
X67354D01*
X66354Y145800D01*
X67354Y146800D01*
X66354D01*
X65354Y147800D01*
X64354Y146800D01*
X63354D01*
X64354Y145800D01*
X63354Y144800D01*
X64354D01*
X65354Y143800D01*
X37900Y167000D02*
X38900Y168000D01*
X39900D01*
X38900Y169000D01*
X39900Y170000D01*
X38900D01*
X37900Y171000D01*
X36900Y170000D01*
X35900D01*
X36900Y169000D01*
X35900Y168000D01*
X36900D01*
X37900Y167000D01*
X27600Y144700D02*
X28600Y145700D01*
X29600D01*
X28600Y146700D01*
X29600Y147700D01*
X28600D01*
X27600Y148700D01*
X26600Y147700D01*
X25600D01*
X26600Y146700D01*
X25600Y145700D01*
X26600D01*
X27600Y144700D01*
X142700Y87000D02*
X143700Y88000D01*
X144700D01*
X143700Y89000D01*
X144700Y90000D01*
X143700D01*
X142700Y91000D01*
X141700Y90000D01*
X140700D01*
X141700Y89000D01*
X140700Y88000D01*
X141700D01*
X142700Y87000D01*
X153200Y117500D02*
X154200Y118500D01*
X155200D01*
X154200Y119500D01*
X155200Y120500D01*
X154200D01*
X153200Y121500D01*
X152200Y120500D01*
X151200D01*
X152200Y119500D01*
X151200Y118500D01*
X152200D01*
X153200Y117500D01*
X119800Y166800D02*
X120800Y167800D01*
X121800D01*
X120800Y168800D01*
X121800Y169800D01*
X120800D01*
X119800Y170800D01*
X118800Y169800D01*
X117800D01*
X118800Y168800D01*
X117800Y167800D01*
X118800D01*
X119800Y166800D01*
D38*
X135500Y188300D02*
X135271Y189229D01*
X134636Y189946D01*
X133741Y190285D01*
X132791Y190170D01*
X132003Y189626D01*
X131558Y188779D01*
Y187821D01*
X132003Y186974D01*
X132791Y186430D01*
X133741Y186315D01*
X134636Y186654D01*
X135271Y187371D01*
X135500Y188300D01*
Y218300D02*
X135271Y219229D01*
X134636Y219946D01*
X133741Y220285D01*
X132791Y220170D01*
X132003Y219626D01*
X131558Y218779D01*
Y217821D01*
X132003Y216974D01*
X132791Y216430D01*
X133741Y216315D01*
X134636Y216654D01*
X135271Y217371D01*
X135500Y218300D01*
X67500Y187800D02*
X67271Y188729D01*
X66636Y189446D01*
X65741Y189785D01*
X64791Y189670D01*
X64003Y189126D01*
X63558Y188279D01*
Y187321D01*
X64003Y186474D01*
X64791Y185930D01*
X65741Y185815D01*
X66636Y186154D01*
X67271Y186871D01*
X67500Y187800D01*
X37500D02*
X37271Y188729D01*
X36636Y189446D01*
X35741Y189785D01*
X34791Y189670D01*
X34003Y189126D01*
X33558Y188279D01*
Y187321D01*
X34003Y186474D01*
X34791Y185930D01*
X35741Y185815D01*
X36636Y186154D01*
X37271Y186871D01*
X37500Y187800D01*
X67500Y202550D02*
X67271Y203479D01*
X66636Y204196D01*
X65741Y204535D01*
X64791Y204420D01*
X64003Y203876D01*
X63558Y203029D01*
Y202071D01*
X64003Y201224D01*
X64791Y200680D01*
X65741Y200565D01*
X66636Y200904D01*
X67271Y201621D01*
X67500Y202550D01*
X37500D02*
X37271Y203479D01*
X36636Y204196D01*
X35741Y204535D01*
X34791Y204420D01*
X34003Y203876D01*
X33558Y203029D01*
Y202071D01*
X34003Y201224D01*
X34791Y200680D01*
X35741Y200565D01*
X36636Y200904D01*
X37271Y201621D01*
X37500Y202550D01*
X67500Y217300D02*
X67271Y218229D01*
X66636Y218946D01*
X65741Y219285D01*
X64791Y219170D01*
X64003Y218626D01*
X63558Y217779D01*
Y216821D01*
X64003Y215974D01*
X64791Y215430D01*
X65741Y215315D01*
X66636Y215654D01*
X67271Y216371D01*
X67500Y217300D01*
X37500D02*
X37271Y218229D01*
X36636Y218946D01*
X35741Y219285D01*
X34791Y219170D01*
X34003Y218626D01*
X33558Y217779D01*
Y216821D01*
X34003Y215974D01*
X34791Y215430D01*
X35741Y215315D01*
X36636Y215654D01*
X37271Y216371D01*
X37500Y217300D01*
X144189Y35985D02*
X143960Y36914D01*
X143325Y37631D01*
X142430Y37970D01*
X141480Y37855D01*
X140692Y37311D01*
X140247Y36464D01*
Y35506D01*
X140692Y34659D01*
X141480Y34115D01*
X142430Y34000D01*
X143325Y34339D01*
X143960Y35056D01*
X144189Y35985D01*
Y65985D02*
X143960Y66914D01*
X143325Y67631D01*
X142430Y67970D01*
X141480Y67855D01*
X140692Y67311D01*
X140247Y66464D01*
Y65506D01*
X140692Y64659D01*
X141480Y64115D01*
X142430Y64000D01*
X143325Y64339D01*
X143960Y65056D01*
X144189Y65985D01*
X131564D02*
X131335Y66914D01*
X130700Y67631D01*
X129805Y67970D01*
X128855Y67855D01*
X128067Y67311D01*
X127622Y66464D01*
Y65506D01*
X128067Y64659D01*
X128855Y64115D01*
X129805Y64000D01*
X130700Y64339D01*
X131335Y65056D01*
X131564Y65985D01*
Y35985D02*
X131335Y36914D01*
X130700Y37631D01*
X129805Y37970D01*
X128855Y37855D01*
X128067Y37311D01*
X127622Y36464D01*
Y35506D01*
X128067Y34659D01*
X128855Y34115D01*
X129805Y34000D01*
X130700Y34339D01*
X131335Y35056D01*
X131564Y35985D01*
X118939Y65985D02*
X118710Y66914D01*
X118075Y67631D01*
X117180Y67970D01*
X116230Y67855D01*
X115442Y67311D01*
X114997Y66464D01*
Y65506D01*
X115442Y64659D01*
X116230Y64115D01*
X117180Y64000D01*
X118075Y64339D01*
X118710Y65056D01*
X118939Y65985D01*
Y35985D02*
X118710Y36914D01*
X118075Y37631D01*
X117180Y37970D01*
X116230Y37855D01*
X115442Y37311D01*
X114997Y36464D01*
Y35506D01*
X115442Y34659D01*
X116230Y34115D01*
X117180Y34000D01*
X118075Y34339D01*
X118710Y35056D01*
X118939Y35985D01*
X106314D02*
X106085Y36914D01*
X105450Y37631D01*
X104555Y37970D01*
X103605Y37855D01*
X102817Y37311D01*
X102372Y36464D01*
Y35506D01*
X102817Y34659D01*
X103605Y34115D01*
X104555Y34000D01*
X105450Y34339D01*
X106085Y35056D01*
X106314Y35985D01*
Y65985D02*
X106085Y66914D01*
X105450Y67631D01*
X104555Y67970D01*
X103605Y67855D01*
X102817Y67311D01*
X102372Y66464D01*
Y65506D01*
X102817Y64659D01*
X103605Y64115D01*
X104555Y64000D01*
X105450Y64339D01*
X106085Y65056D01*
X106314Y65985D01*
X93689D02*
X93460Y66914D01*
X92825Y67631D01*
X91930Y67970D01*
X90980Y67855D01*
X90192Y67311D01*
X89747Y66464D01*
Y65506D01*
X90192Y64659D01*
X90980Y64115D01*
X91930Y64000D01*
X92825Y64339D01*
X93460Y65056D01*
X93689Y65985D01*
Y35985D02*
X93460Y36914D01*
X92825Y37631D01*
X91930Y37970D01*
X90980Y37855D01*
X90192Y37311D01*
X89747Y36464D01*
Y35506D01*
X90192Y34659D01*
X90980Y34115D01*
X91930Y34000D01*
X92825Y34339D01*
X93460Y35056D01*
X93689Y35985D01*
X139626Y126869D02*
X139397Y127798D01*
X138762Y128515D01*
X137867Y128854D01*
X136917Y128739D01*
X136129Y128195D01*
X135684Y127347D01*
Y126390D01*
X136129Y125542D01*
X136917Y124999D01*
X137867Y124883D01*
X138762Y125223D01*
X139397Y125939D01*
X139626Y126869D01*
Y96869D02*
X139397Y97798D01*
X138762Y98515D01*
X137867Y98854D01*
X136917Y98739D01*
X136129Y98195D01*
X135684Y97347D01*
Y96390D01*
X136129Y95542D01*
X136917Y94999D01*
X137867Y94883D01*
X138762Y95223D01*
X139397Y95939D01*
X139626Y96869D01*
X129126D02*
X128897Y97798D01*
X128262Y98515D01*
X127367Y98854D01*
X126417Y98739D01*
X125629Y98195D01*
X125184Y97347D01*
Y96390D01*
X125629Y95542D01*
X126417Y94999D01*
X127367Y94883D01*
X128262Y95223D01*
X128897Y95939D01*
X129126Y96869D01*
Y126869D02*
X128897Y127798D01*
X128262Y128515D01*
X127367Y128854D01*
X126417Y128739D01*
X125629Y128195D01*
X125184Y127347D01*
Y126390D01*
X125629Y125542D01*
X126417Y124999D01*
X127367Y124883D01*
X128262Y125223D01*
X128897Y125939D01*
X129126Y126869D01*
X149626D02*
X149397Y127798D01*
X148762Y128515D01*
X147867Y128854D01*
X146917Y128739D01*
X146129Y128195D01*
X145684Y127347D01*
Y126390D01*
X146129Y125542D01*
X146917Y124999D01*
X147867Y124883D01*
X148762Y125223D01*
X149397Y125939D01*
X149626Y126869D01*
Y96869D02*
X149397Y97798D01*
X148762Y98515D01*
X147867Y98854D01*
X146917Y98739D01*
X146129Y98195D01*
X145684Y97347D01*
Y96390D01*
X146129Y95542D01*
X146917Y94999D01*
X147867Y94883D01*
X148762Y95223D01*
X149397Y95939D01*
X149626Y96869D01*
X59000Y126100D02*
X58771Y127029D01*
X58136Y127746D01*
X57241Y128085D01*
X56291Y127970D01*
X55503Y127426D01*
X55058Y126579D01*
Y125621D01*
X55503Y124774D01*
X56291Y124230D01*
X57241Y124115D01*
X58136Y124454D01*
X58771Y125171D01*
X59000Y126100D01*
Y96100D02*
X58771Y97029D01*
X58136Y97746D01*
X57241Y98085D01*
X56291Y97970D01*
X55503Y97426D01*
X55058Y96579D01*
Y95621D01*
X55503Y94774D01*
X56291Y94230D01*
X57241Y94115D01*
X58136Y94454D01*
X58771Y95171D01*
X59000Y96100D01*
X47126Y95863D02*
X46897Y96792D01*
X46262Y97509D01*
X45367Y97848D01*
X44417Y97733D01*
X43629Y97189D01*
X43184Y96342D01*
Y95384D01*
X43629Y94537D01*
X44417Y93993D01*
X45367Y93878D01*
X46262Y94217D01*
X46897Y94934D01*
X47126Y95863D01*
Y125863D02*
X46897Y126793D01*
X46262Y127509D01*
X45367Y127848D01*
X44417Y127733D01*
X43629Y127189D01*
X43184Y126342D01*
Y125384D01*
X43629Y124537D01*
X44417Y123993D01*
X45367Y123878D01*
X46262Y124217D01*
X46897Y124934D01*
X47126Y125863D01*
X35626Y95863D02*
X35397Y96792D01*
X34762Y97509D01*
X33867Y97848D01*
X32917Y97733D01*
X32129Y97189D01*
X31684Y96342D01*
Y95384D01*
X32129Y94537D01*
X32917Y93993D01*
X33867Y93878D01*
X34762Y94217D01*
X35397Y94934D01*
X35626Y95863D01*
Y125863D02*
X35397Y126793D01*
X34762Y127509D01*
X33867Y127848D01*
X32917Y127733D01*
X32129Y127189D01*
X31684Y126342D01*
Y125384D01*
X32129Y124537D01*
X32917Y123993D01*
X33867Y123878D01*
X34762Y124217D01*
X35397Y124934D01*
X35626Y125863D01*
X149500Y218800D02*
X149271Y219729D01*
X148636Y220446D01*
X147741Y220785D01*
X146791Y220670D01*
X146003Y220126D01*
X145558Y219279D01*
Y218321D01*
X146003Y217474D01*
X146791Y216930D01*
X147741Y216815D01*
X148636Y217154D01*
X149271Y217871D01*
X149500Y218800D01*
Y188800D02*
X149271Y189729D01*
X148636Y190446D01*
X147741Y190785D01*
X146791Y190670D01*
X146003Y190126D01*
X145558Y189279D01*
Y188321D01*
X146003Y187474D01*
X146791Y186930D01*
X147741Y186815D01*
X148636Y187154D01*
X149271Y187871D01*
X149500Y188800D01*
M02*
